<svg width="29" height="35" viewBox="0 0 29 35" fill="none" xmlns="http://www.w3.org/2000/svg">
<path d="M4.39491 5.7975L12.5042 10.384C12.7542 10.5259 13.0751 10.4394 13.218 10.186L15.4832 6.18073C15.6259 5.92902 15.5369 5.60924 15.2852 5.46694L7.17632 0.880492C6.92512 0.738259 6.60482 0.826242 6.46252 1.07849L4.19691 5.08377C4.12833 5.2045 4.11097 5.34779 4.14779 5.48187C4.18514 5.61535 4.27365 5.72951 4.39491 5.7975ZM7.11648 2.05012L14.3135 6.1209L12.5641 9.21439L5.36654 5.14361L7.11648 2.05012Z" fill="#22AB00"/>
<path d="M28.476 10.2883C24.1843 10.2883 18.5811 10.2883 14.4985 10.2883C14.2089 10.2883 13.9745 10.5227 13.9745 10.8123V14.8902C11.0827 14.8902 8.59791 14.8902 5.7061 14.8902V10.8123C5.7061 10.5227 5.47174 10.2883 5.18214 10.2883H0.527111C0.237516 10.2883 0.00315635 10.5227 0.00315635 10.8123C-0.00394544 32.1621 0.00315635 25.7922 0.00315635 33.8206C0.00315635 34.1102 0.237516 34.3446 0.527111 34.3446H28.476C28.7656 34.3446 29 34.1102 29 33.8206C28.9998 33.3127 29.0008 35.8136 28.9974 28.0204C28.9974 27.7308 28.7631 27.4964 28.4735 27.4964C28.1839 27.4964 27.9495 27.7308 27.9495 28.0204V28.6947C25.0845 28.6947 22.6182 28.6947 19.6816 28.6947V25.1413H27.9495V25.8202C27.9495 26.1098 28.1839 26.3442 28.4735 26.3442C28.7631 26.3442 28.9974 26.1098 28.9974 25.8202C28.9976 25.8987 28.9999 12.7172 29 10.8122C28.9999 10.5227 28.7656 10.2883 28.476 10.2883ZM10.3643 28.6948V25.1413H18.6327V28.6948C15.7409 28.6948 13.2561 28.6948 10.3643 28.6948ZM1.04798 28.6948V25.1413H9.31638V28.6948C6.42456 28.6948 3.93979 28.6948 1.04798 28.6948ZM13.9746 20.5394V24.0934C11.0827 24.0934 8.59797 24.0934 5.70616 24.0934V20.5394H13.9746ZM10.3643 15.9381H18.6327V19.4916C15.7409 19.4916 13.2561 19.4916 10.3643 19.4916V15.9381ZM27.949 15.9381V19.4916C25.0572 19.4916 22.5724 19.4916 19.6806 19.4916V15.9381H27.949ZM4.65825 24.0934H1.051V20.5394H4.65819L4.65825 24.0934ZM15.0224 24.0934V20.5394H23.2908V24.0909C22.4454 24.0911 26.3535 24.09 15.0224 24.0934ZM24.3387 24.0909V20.5394H27.9521V24.0909H24.3387ZM27.9521 14.8902H24.3387V11.3362H27.9521V14.8902ZM15.0224 11.3362H23.2908V14.8902C20.399 14.8902 17.9142 14.8902 15.0224 14.8902V11.3362ZM9.31638 19.4916C6.42456 19.4916 3.93979 19.4916 1.04798 19.4916V15.9381H9.31638V19.4916ZM1.051 11.3362H4.65819V14.8902H1.051V11.3362ZM1.051 29.7427H4.65819V33.2967H1.051V29.7427ZM5.7061 29.7427H13.9745V33.2967H5.7061V29.7427ZM15.0224 29.7427C15.084 29.7427 23.229 29.7442 23.2908 29.7442V33.2967H15.0224V29.7427ZM24.3387 33.2967V29.7442H27.9521V33.2967H24.3387Z" fill="#22AB00"/>
</svg>
