<svg width="256" height="179" viewBox="0 0 256 179" fill="none" xmlns="http://www.w3.org/2000/svg">
<path d="M19.7932 172.541C19.7932 171.54 17.0729 157.532 33.3947 138.519C49.7179 119.506 47.9034 119.506 43.37 109C38.8367 98.4931 34.7555 84.4837 44.2773 78.9795C53.799 73.4752 59.2396 68.9723 61.0527 55.9641C62.8658 42.9559 71.9339 19.9405 100.953 22.4423C129.97 24.9441 131.785 27.9465 137.225 39.4528C142.666 50.9605 149.014 49.9592 162.615 47.4574C176.217 44.9556 188.459 38.9522 194.353 56.4633C200.247 73.9745 188.459 81.9805 210.223 93.4882C231.986 104.996 233.346 99.4917 229.718 117.503C226.091 135.515 218.837 136.517 222.917 148.023C226.998 159.531 242.412 161.532 234.252 172.539H19.7932V172.541Z" fill="white" fill-opacity="0.3"/>
<path d="M125.034 178.834C187.689 178.834 238.481 176.275 238.481 173.118C238.481 169.961 187.689 167.402 125.034 167.402C62.3797 167.402 11.588 169.961 11.588 173.118C11.588 176.275 62.3797 178.834 125.034 178.834Z" fill="#231F20"/>
<path d="M66.6524 8.05661C63.4535 7.10789 60.7263 7.2213 59.1622 7.43151C58.3006 7.54768 57.3795 7.39417 56.8512 7.0346C52.831 4.29078 48.8051 4.63238 45.9908 5.49812C37.8465 -1.47067 28.6746 6.67779 28.6746 6.67779C24.0929 5.30035 20.7889 6.66258 18.8403 8.02618C17.6856 8.83384 18.8154 9.95543 20.8 9.96096L33.5109 9.99968C33.7501 10.0453 34.0157 10.0716 34.3005 10.0716L56.0021 10.0674L57.5773 10.073C57.5773 10.073 57.5732 10.0702 57.5704 10.0674H65.5418C67.7338 10.0661 68.5401 8.61671 66.6551 8.05799L66.6524 8.05661Z" fill="#E5E5E5"/>
<path d="M185.755 8.74725C183.653 8.12353 181.859 8.19822 180.832 8.33651C180.265 8.41258 179.659 8.313 179.313 8.07513C176.67 6.27174 174.025 6.49578 172.174 7.06556C166.822 2.48517 160.792 7.84003 160.792 7.84003C157.78 6.93418 155.609 7.83035 154.328 8.72651C153.569 9.25757 154.312 9.99469 155.616 9.99884L163.971 10.0237C164.128 10.0542 164.302 10.0708 164.489 10.0708L178.753 10.068L179.788 10.0708C179.788 10.0708 179.785 10.068 179.783 10.068H185.022C186.463 10.068 186.993 9.11512 185.754 8.74725H185.755Z" fill="#E5E5E5"/>
<path d="M186.5 115.435L190.038 33.6817C190.066 33.0456 190.588 32.5449 191.226 32.5449H194.087C194.73 32.5449 195.257 33.0566 195.275 33.6997L197.6 115.453C197.62 116.122 197.082 116.675 196.412 116.675H187.688C187.012 116.675 186.471 116.111 186.5 115.435Z" fill="#888888"/>
<path d="M195.275 33.6986C195.257 33.0818 194.771 32.5895 194.162 32.5508C194.245 32.7071 194.298 32.8813 194.303 33.0694L196.628 114.822C196.647 115.492 196.109 116.045 195.44 116.045H186.716C186.69 116.045 186.666 116.039 186.641 116.036C186.841 116.413 187.231 116.674 187.688 116.674H196.412C197.082 116.674 197.62 116.121 197.6 115.451L195.275 33.6986Z" fill="#BBBCBD"/>
<path d="M195.275 33.6997C195.257 33.0566 194.73 32.5449 194.087 32.5449H191.226C190.59 32.5449 190.066 33.0469 190.038 33.6817L189.344 49.7283C191.168 52.3988 193.937 56.2518 195.988 58.7467L195.275 33.6983V33.6997Z" fill="#888888"/>
<path d="M188.684 100.258H190.624C191.014 100.258 191.33 100.575 191.33 100.963V109.058C191.33 109.448 191.013 109.763 190.624 109.763H188.684C188.294 109.763 187.979 109.446 187.979 109.058V100.963C187.979 100.573 188.296 100.258 188.684 100.258Z" fill="#509EB6"/>
<path d="M184.495 31.3518C188.073 31.1402 192.182 31.0669 196.718 31.2813C200.226 31.4472 203.453 31.7612 206.357 32.1456C206.843 32.2093 206.95 32.7113 206.518 32.8828C204.043 33.8688 200.93 34.9033 197.224 35.7054C193.032 36.6112 189.284 36.9611 186.326 37.0745C185.716 35.166 185.105 33.2589 184.495 31.3504V31.3518Z" fill="#BBBCBD"/>
<path d="M185.575 34.728C190.453 35.3642 199.639 34.0697 201.017 33.1335C202.015 32.4558 201.492 31.904 200.857 31.5527C202.797 31.7145 204.635 31.9178 206.357 32.146C206.843 32.2096 206.95 32.7117 206.518 32.8832C204.043 33.8692 200.93 34.9037 197.224 35.7058C193.032 36.6116 189.284 36.9615 186.326 37.0749C186.076 36.2922 185.826 35.5094 185.575 34.728Z" fill="#888888"/>
<path d="M183.661 34.5112C184.142 36.0961 185.296 37.2509 186.236 37.0919C187.177 36.9314 187.549 35.518 187.067 33.9332C186.586 32.3483 185.433 31.1935 184.492 31.3525C183.552 31.5116 183.18 32.9264 183.661 34.5112Z" fill="#D3CBD3"/>
<path d="M183.661 34.5112C184.142 36.0961 185.296 37.2509 186.236 37.0919C187.177 36.9314 187.549 35.518 187.067 33.9332C186.586 32.3483 185.433 31.1935 184.492 31.3525C183.552 31.5116 183.18 32.9264 183.661 34.5112Z" fill="#D3CBD3"/>
<path d="M184.492 31.3524C184.62 31.3303 184.751 31.3345 184.885 31.358C184.21 31.7729 183.988 33.0148 184.404 34.3839C184.82 35.753 185.738 36.8013 186.588 36.9576C186.481 37.0226 186.365 37.0682 186.238 37.0904C185.297 37.2494 184.144 36.0946 183.663 34.5097C183.181 32.9249 183.553 31.5115 184.494 31.351L184.492 31.3524Z" fill="#CEC0CD"/>
<path d="M182.479 35.8865C182.479 35.8865 159.744 41.7475 147.712 39.2513C147.313 39.1683 147.261 38.6123 147.639 38.4561C151.203 36.968 163.087 32.7458 182.202 33.2367L182.479 35.8865Z" fill="#BBBCBD"/>
<path d="M184.176 32.0299C184.176 32.0299 190.313 9.36856 198.429 0.141391C198.698 -0.165628 199.206 0.0653276 199.157 0.470537C198.69 4.30413 196.49 16.7218 186.618 33.0989L184.177 32.0299H184.176Z" fill="#BBBCBD"/>
<path d="M187.059 35.457C187.059 35.457 202.925 52.7635 206.382 64.5547C206.497 64.9475 206.031 65.2531 205.714 64.9945C202.725 62.5494 193.408 54.0497 184.851 36.9479L187.059 35.457Z" fill="#888888"/>
<path d="M184.199 30.722C185.838 30.1121 187.571 31.242 188.069 33.2473C188.568 35.2526 187.644 37.3727 186.005 37.9826C184.366 38.5925 182.634 37.4626 182.136 35.4573C181.637 33.452 182.56 31.3319 184.199 30.722Z" fill="#888888"/>
<path d="M183.935 30.722C185.377 30.1121 186.901 31.242 187.341 33.2473C187.78 35.2526 186.968 37.3727 185.525 37.9826C184.083 38.5925 182.559 37.4626 182.119 35.4573C181.681 33.452 182.493 31.3319 183.935 30.722Z" fill="#BBBCBD"/>
<path d="M183.911 32.6233C184.539 32.3343 185.203 32.8695 185.395 33.8196C185.586 34.7697 185.232 35.7737 184.604 36.0628C183.976 36.3518 183.313 35.8166 183.12 34.8665C182.93 33.9164 183.284 32.9123 183.911 32.6233Z" fill="#22AB00"/>
<path d="M95.9575 98.4078L98.5063 39.514C98.5256 39.0563 98.9032 38.6953 99.3623 38.6953H101.423C101.886 38.6953 102.265 39.0646 102.279 39.5279L103.954 98.4216C103.968 98.9043 103.58 99.3026 103.098 99.3026H96.8135C96.3267 99.3026 95.9367 98.896 95.9575 98.4092V98.4078Z" fill="#888888"/>
<path d="M102.279 39.5262C102.267 39.0809 101.915 38.7269 101.477 38.6992C101.536 38.8112 101.574 38.9371 101.578 39.0726L103.253 97.9664C103.266 98.449 102.879 98.8473 102.397 98.8473H96.1109C96.093 98.8473 96.075 98.8432 96.057 98.8418C96.2008 99.1128 96.4816 99.3009 96.8107 99.3009H103.096C103.579 99.3009 103.966 98.9026 103.952 98.42L102.278 39.5262H102.279Z" fill="#BBBCBD"/>
<path d="M102.279 39.5259C102.265 39.0626 101.886 38.6934 101.423 38.6934H99.3623C98.9032 38.6934 98.527 39.0543 98.5063 39.5121L98.0056 51.0723C99.3194 52.996 101.315 55.7717 102.792 57.5695L102.279 39.5245V39.5259Z" fill="#888888"/>
<path d="M97.5313 87.4746H98.9281C99.2088 87.4746 99.437 87.7028 99.437 87.9835V93.8141C99.437 94.0949 99.2088 94.3231 98.9281 94.3231H97.5313C97.2505 94.3231 97.0223 94.0949 97.0223 93.8141V87.9835C97.0223 87.7028 97.2505 87.4746 97.5313 87.4746Z" fill="#509EB6"/>
<path d="M94.5136 37.8329C97.0901 37.6808 100.051 37.6282 103.318 37.7817C105.844 37.9007 108.169 38.1275 110.261 38.4041C110.611 38.4497 110.689 38.8106 110.378 38.9351C108.595 39.646 106.353 40.3914 103.683 40.9681C100.664 41.6208 97.9627 41.8725 95.833 41.9541C95.3932 40.5795 94.9534 39.2048 94.5136 37.8301V37.8329Z" fill="#BBBCBD"/>
<path d="M95.2922 40.2654C98.8064 40.7231 105.424 39.791 106.417 39.1161C107.135 38.6279 106.758 38.2296 106.301 37.9766C107.699 38.0927 109.022 38.2393 110.263 38.4039C110.613 38.4495 110.69 38.8105 110.379 38.935C108.596 39.6458 106.355 40.3912 103.684 40.9679C100.665 41.6207 97.9641 41.8724 95.8344 41.954C95.6546 41.3897 95.4734 40.8269 95.2936 40.2626L95.2922 40.2654Z" fill="#888888"/>
<path d="M93.912 40.1078C94.2591 41.2502 95.0903 42.0813 95.768 41.9665C96.4456 41.8518 96.7139 40.8325 96.3668 39.6916C96.0197 38.5506 95.1885 37.7181 94.5109 37.8328C93.8332 37.9476 93.5649 38.9669 93.912 40.1078Z" fill="#D3CBD3"/>
<path d="M93.912 40.1078C94.2591 41.2502 95.0903 42.0813 95.768 41.9665C96.4456 41.8518 96.7139 40.8325 96.3668 39.6916C96.0197 38.5506 95.1885 37.7181 94.5109 37.8328C93.8332 37.9476 93.5649 38.9669 93.912 40.1078Z" fill="#D3CBD3"/>
<path d="M94.5109 37.8327C94.6021 37.8175 94.6976 37.8189 94.793 37.8369C94.3062 38.1356 94.1471 39.0304 94.4459 40.0164C94.746 41.0039 95.407 41.7576 96.0183 41.871C95.9422 41.918 95.8579 41.9512 95.7652 41.9664C95.0876 42.0812 94.2564 41.25 93.9093 40.1077C93.5622 38.9668 93.8304 37.9475 94.5081 37.8327H94.5109Z" fill="#CEC0CD"/>
<path d="M93.0602 41.1024C93.0602 41.1024 76.6816 45.3246 68.0146 43.5254C67.7269 43.4659 67.6896 43.0662 67.962 42.9528C70.5288 41.881 79.0908 38.8385 92.861 39.1926L93.0602 41.1024Z" fill="#BBBCBD"/>
<path d="M94.2827 38.3245C94.2827 38.3245 98.7041 21.9985 104.55 15.352C104.745 15.1307 105.11 15.2967 105.074 15.5899C104.738 18.3516 103.153 27.2981 96.0405 39.0948L94.2827 38.3245Z" fill="#BBBCBD"/>
<path d="M96.3599 40.791C96.3599 40.791 107.79 53.2585 110.28 61.7527C110.362 62.0348 110.026 62.2561 109.798 62.0694C107.645 60.3089 100.933 54.1837 94.7681 41.8656L96.3599 40.7924V40.791Z" fill="#BBBCBD"/>
<path d="M94.2993 37.381C95.479 36.9412 96.7278 37.7558 97.0874 39.1996C97.4469 40.6434 96.7817 42.1716 95.6007 42.6114C94.421 43.0511 93.1722 42.2366 92.8126 40.7928C92.453 39.3489 93.1182 37.8208 94.2993 37.381Z" fill="#888888"/>
<path d="M94.1098 37.381C95.1484 36.9412 96.2479 37.7558 96.5632 39.1996C96.8799 40.6434 96.2935 42.1716 95.2549 42.6114C94.2163 43.0511 93.1169 42.2366 92.8015 40.7928C92.4848 39.3489 93.0712 37.8208 94.1098 37.381Z" fill="#BBBCBD"/>
<path d="M94.0918 38.7501C94.544 38.5412 95.0226 38.9271 95.1609 39.6117C95.2992 40.2962 95.0433 41.0195 94.5911 41.227C94.1388 41.4344 93.6603 41.05 93.522 40.3654C93.3837 39.6808 93.6396 38.9575 94.0918 38.7501Z" fill="#64C44D"/>
<path d="M220.134 172.493C220.134 172.493 222.734 149.973 223.534 148.61C223.534 148.61 221.017 142.935 221.076 140.469C221.076 140.469 214.414 139.606 210.329 135.157C210.329 135.157 210.152 129.539 205.74 125.031C205.74 125.031 205.711 124.739 206.036 124.804C206.361 124.869 211.099 128.631 211.217 134.08C211.217 134.08 215.717 137.939 220.898 137.874C220.898 137.874 224.193 133.885 223.839 128.133C223.839 128.133 222.379 125.754 222.102 123.375C222.102 123.375 219.122 122.727 217.049 120.229C217.049 120.229 216.693 116.986 215.391 115.526C215.391 115.526 215.391 115.185 215.658 115.412C215.924 115.639 217.385 117.321 217.602 119.592C217.602 119.592 220.74 121.905 222.142 121.883C222.142 121.883 224.538 120.175 224.643 117.018C224.643 117.018 223.979 115.764 223.979 114.769C223.979 114.769 220.445 112.52 219.894 111.115C219.894 111.115 220.051 111.028 220.23 111.266C220.407 111.504 223.171 113.818 223.802 113.926C223.802 113.926 224.473 110.985 225.026 110.92C225.579 110.855 224.986 112.11 225.026 112.953C225.066 113.797 225.42 116.326 225.815 116.845C225.815 116.845 229.507 116.391 231.223 114.531C231.223 114.531 231.578 114.444 231.381 114.877C231.183 115.31 227.435 117.675 226.012 117.667C226.012 117.667 225.558 120.867 223.998 122.272C223.998 122.272 224.117 126.293 226.071 127.656C226.071 127.656 228.834 126.228 230.137 126.186C231.44 126.143 232.032 126.163 232.032 126.163C232.032 126.163 235.012 124.931 236.513 122.12C236.513 122.12 236.77 121.947 236.849 122.335C236.928 122.724 235.606 125.903 232.468 127.049C232.468 127.049 229.224 126.827 226.467 128.974C226.467 128.974 226.851 135.309 224.513 137.58C224.513 137.58 224.305 145.073 227.237 147.569C227.237 147.569 232.537 142.055 237.865 142.282C237.865 142.282 240.144 139.393 240.707 134.821C240.707 134.821 240.944 134.268 241.24 134.821C241.536 135.374 240.5 141.503 238.546 143.547C238.546 143.547 230.464 145.396 226.999 150.52C226.999 150.52 226.413 169.603 226.828 171.322C227.243 173.041 226.136 174.565 223.315 174.338C220.492 174.111 220.015 172.93 220.137 172.489L220.134 172.493Z" fill="#644250"/>
<path d="M223.538 135.927C223.538 135.927 219.728 139.105 213.116 136.639C213.116 136.639 210.333 141.098 204.674 137.864C199.016 134.632 204.142 130.08 204.142 130.08C204.142 130.08 197.719 127.448 202.569 123.776C202.569 123.776 200.406 117.674 204.974 115.746C209.541 113.819 211.871 114.521 211.871 114.521C211.871 114.521 212.556 112.751 214.961 112.586L215.489 110.504C215.489 110.504 210.376 108.375 212.087 103.948C213.797 99.5214 221.621 100.064 221.621 100.064C221.621 100.064 224.921 95.3131 228.912 98.7027C228.912 98.7027 241.461 93.7503 241.439 103.233C241.439 103.233 246.062 104.102 245.882 107.348C245.701 110.592 244.143 111.346 244.143 111.346C244.143 111.346 247.971 114.316 245.259 117.842C245.259 117.842 252.55 116.481 253.725 121.896C254.901 127.311 251.568 127.647 251.568 127.647C251.568 127.647 254.502 133.264 247.669 137.395C247.669 137.395 244.13 144.533 235.99 141.319C235.99 141.319 230.13 143.983 226.199 141.45C222.267 138.918 223.539 135.929 223.539 135.929L223.538 135.927Z" fill="#177400"/>
<path d="M241.169 129.788C241.169 129.788 235.31 132.452 231.378 129.92C227.446 127.387 228.718 124.399 228.718 124.399C228.718 124.399 224.908 127.577 218.296 125.111C218.296 125.111 215.514 129.57 209.855 126.336C204.197 123.104 209.322 118.552 209.322 118.552C209.322 118.552 206.306 117.315 205.968 115.355C205.649 115.473 205.318 115.602 204.974 115.747C200.408 117.675 202.569 123.776 202.569 123.776C197.719 127.448 204.142 130.08 204.142 130.08C204.142 130.08 199.016 134.633 204.674 137.865C210.332 141.097 213.116 136.639 213.116 136.639C219.728 139.105 223.538 135.927 223.538 135.927C223.538 135.927 222.265 138.916 226.197 141.448C230.129 143.98 235.989 141.317 235.989 141.317C244.129 144.532 247.668 137.393 247.668 137.393C254.323 133.37 251.713 127.939 251.572 127.658C249.901 129.527 246.534 131.907 241.166 129.788H241.169Z" fill="#44A52B"/>
<path d="M252.848 125.866C252.848 125.866 252.442 126.684 251.588 127.643C251.783 127.615 253.41 127.323 253.859 125.189C253.547 125.418 253.215 125.644 252.848 125.866Z" fill="#1E695E"/>
<path d="M252.88 127.26C252.88 127.26 256.213 126.911 254.991 120.82C253.768 114.73 246.485 116.196 246.485 116.196C246.485 116.196 236.161 116.033 237.214 123.983C238.266 131.934 223.853 124.512 224.905 136.324C224.905 136.324 223.658 139.669 227.613 142.546C231.569 145.422 237.409 142.481 237.409 142.481C245.581 146.159 249.062 138.173 249.062 138.173C255.863 133.592 252.88 127.258 252.88 127.258V127.26Z" fill="#1C8D00"/>
<path d="M211.448 111.325C211.448 111.325 208.942 110.576 204.031 112.638C199.119 114.698 201.441 121.212 201.441 121.212C196.223 125.134 203.128 127.94 203.128 127.94C203.128 127.94 212.439 122.294 209.369 119.345C206.298 116.398 222.426 116.112 214.771 109.258C212.185 109.435 211.448 111.325 211.448 111.325Z" fill="#89C158"/>
<path d="M225.395 165.613C225.395 165.613 224.392 172.798 223.39 164.945C222.89 161.038 222.682 156.718 222.597 153.361C221.537 160.354 220.134 172.496 220.134 172.496C220.013 172.936 220.49 174.118 223.312 174.345C224.668 174.454 225.622 174.157 226.208 173.63C225.51 170.512 225.395 165.613 225.395 165.613Z" fill="#9B4754"/>
<path d="M224.643 145.896C224.643 145.896 224.977 149.322 224.643 153.833C224.308 158.345 225.478 156.089 225.645 152.663C225.813 149.238 224.643 145.896 224.643 145.896Z" fill="#9B4754"/>
<path d="M132.208 173.399H56.0311L55.9952 114.259L114.471 108.174H132.172L132.208 173.399Z" fill="white"/>
<g style="mix-blend-mode:multiply">
<path d="M132.172 117.608V108.174L55.9952 112.389V117.608H132.172Z" fill="#D0D1D3"/>
</g>
<path d="M165.396 114.691L165.24 66.9961H96.4996L52.2598 114.691H165.396Z" fill="#231F20"/>
<path d="M132.036 99.6122L132.114 99.6302L148.382 82.3292L128.163 82.2656C127.673 82.982 127.102 83.5794 126.484 83.9805C126.372 84.1202 126.265 84.2626 126.146 84.4023C124.968 85.788 123.658 86.8834 122.404 87.9303C122.021 88.2497 121.652 88.4461 121.3 88.5595C119.021 91.5619 116.373 94.2435 114.037 97.1602C113.362 98.0038 112.658 98.7907 111.939 99.55L132.036 99.6136V99.6122Z" fill="#D0D1D3"/>
<path d="M128.161 82.2656C127.672 82.982 127.101 83.5794 126.482 83.9805C126.37 84.1202 126.264 84.2626 126.145 84.4023C124.967 85.788 123.657 86.8834 122.403 87.9303C122.02 88.2497 121.65 88.4461 121.299 88.5581C119.02 91.5606 116.371 94.2435 114.036 97.1588C113.361 98.001 112.658 98.7907 111.94 99.5486H111.978L128.323 82.2656H128.161Z" fill="#90BEDA"/>
<path d="M132.036 99.6106L148.38 82.3276L129.866 82.2695L113.521 99.5525L132.036 99.6106Z" fill="#BBBCBD"/>
<path d="M131.942 98.8631L146.88 83.0682L129.96 83.0156L115.022 98.8105L131.942 98.8631Z" fill="#424242"/>
<path d="M119.248 99.1551L134.967 82.5346L134.325 82.5332L118.605 99.1537L119.248 99.1551Z" fill="#BBBCBD"/>
<path d="M123.398 99.1682L139.117 82.5463L138.474 82.5449L122.755 99.1654L123.398 99.1682Z" fill="#BBBCBD"/>
<path d="M143.619 87.1765L144.389 86.362L126.608 86.3066C126.355 86.6178 126.083 86.8833 125.8 87.1212L143.619 87.1779V87.1765Z" fill="#BBBCBD"/>
<path d="M139.474 91.3757L140.244 90.5612L122.463 90.5059C122.21 90.817 121.938 91.0826 121.656 91.3204L139.474 91.3771V91.3757Z" fill="#BBBCBD"/>
<path d="M135.331 95.573L136.101 94.7584L118.32 94.7031C118.067 95.0143 117.795 95.2798 117.512 95.5177L135.331 95.5744V95.573Z" fill="#BBBCBD"/>
<path d="M127.549 99.1799L143.267 82.5594L142.624 82.5566L126.906 99.1785L127.549 99.1799Z" fill="#BBBCBD"/>
<path d="M112.188 99.5492L128.439 82.2662L89.8669 82.1445L73.617 99.4275L112.188 99.5492Z" fill="#D0D1D3"/>
<path d="M92.0367 99.4856L108.382 82.2026L89.8669 82.1445L73.5215 99.4275L92.0367 99.4856Z" fill="#BBBCBD"/>
<path d="M91.9427 98.7381L106.88 82.9432L89.9609 82.8906L75.0234 98.6855L91.9427 98.7381Z" fill="#424242"/>
<path d="M79.2485 99.0295L94.9687 82.409L94.3256 82.4062L78.6068 99.0282L79.2485 99.0295Z" fill="#BBBCBD"/>
<path d="M83.3987 99.0432L99.1175 82.4227L98.4758 82.4199L82.7556 99.0404L83.3987 99.0432Z" fill="#BBBCBD"/>
<path d="M103.619 87.0515L104.389 86.237L86.6086 86.1816C86.3555 86.4928 86.083 86.7583 85.8009 86.9962L103.619 87.0515Z" fill="#BBBCBD"/>
<path d="M99.4758 91.2507L100.246 90.4362L82.4652 90.3809C82.2122 90.692 81.9397 90.9576 81.6576 91.1954L99.4758 91.2507Z" fill="#BBBCBD"/>
<path d="M95.3323 95.448L96.1027 94.6334L78.3218 94.5781C78.0687 94.8893 77.7963 95.1548 77.5142 95.3927L95.3323 95.448Z" fill="#BBBCBD"/>
<path d="M87.549 99.0555L103.268 82.435L102.625 82.4336L86.9059 99.0541L87.549 99.0555Z" fill="#BBBCBD"/>
<path d="M112.094 99.5481L128.439 82.2651L109.924 82.207L93.5788 99.49L112.094 99.5481Z" fill="#BBBCBD"/>
<path d="M112 98.8006L126.937 83.0057L110.018 82.9531L95.0793 98.7466L112 98.8006Z" fill="#424242"/>
<path d="M99.3057 99.092L115.026 82.4715L114.383 82.4688L98.6626 99.0893L99.3057 99.092Z" fill="#BBBCBD"/>
<path d="M103.456 99.1043L119.175 82.4838L118.533 82.4824L102.813 99.1029L103.456 99.1043Z" fill="#BBBCBD"/>
<path d="M123.676 87.114L124.447 86.2995L106.666 86.2441C106.413 86.5553 106.14 86.8208 105.858 87.0587L123.676 87.114Z" fill="#BBBCBD"/>
<path d="M119.533 91.3133L120.303 90.4987L102.522 90.4434C102.269 90.7545 101.997 91.0201 101.715 91.2579L119.533 91.3133Z" fill="#BBBCBD"/>
<path d="M115.388 95.5105L116.159 94.6959L98.3777 94.6406C98.1246 94.9518 97.8522 95.2173 97.5701 95.4552L115.388 95.5105Z" fill="#BBBCBD"/>
<path d="M107.606 99.1174L123.325 82.4955L122.682 82.4941L106.963 99.1147L107.606 99.1174Z" fill="#BBBCBD"/>
<path d="M114.354 172.688H96.2548L96.2174 137.82H114.318L114.354 172.688Z" fill="#231F20"/>
<path d="M112.657 172.688H97.9516L97.9143 139.648H112.621L112.657 172.688Z" fill="white"/>
<path d="M111.066 152.503C111.066 152.973 110.631 153.353 110.094 153.353C109.558 153.353 109.122 152.973 109.122 152.503C109.122 152.033 109.558 151.652 110.094 151.652C110.631 151.652 111.066 152.033 111.066 152.503Z" fill="#231F20"/>
<path d="M204.05 173.399H126.816L126.78 108.174L165.396 67.3184L204.014 108.174L204.05 173.399Z" fill="#E5E5E5"/>
<g style="mix-blend-mode:multiply">
<path d="M165.396 67.3184L126.78 108.174V118.08L165.396 78.9242L204.014 118.08V108.174L165.396 67.3184Z" fill="#D0D1D3"/>
</g>
<path d="M86.5657 123.77H62.7482V152.692H86.5657V123.77Z" fill="#231F20"/>
<path d="M84.6641 126.078H64.6484V150.385H84.6641V126.078Z" fill="white"/>
<path d="M75.4645 124.543H73.7801V152.515H75.4645V124.543Z" fill="#231F20"/>
<path d="M85.6764 137.463H63.571V139.595H85.6764V137.463Z" fill="#231F20"/>
<path d="M159.79 123.77H135.972V152.692H159.79V123.77Z" fill="#231F20"/>
<path d="M157.888 126.078H137.872V150.385H157.888V126.078Z" fill="url(#paint0_linear_181_3708)"/>
<path d="M157.888 126.078H137.872V150.385H157.888V126.078Z" fill="#E5E5E5"/>
<path d="M148.689 124.543H147.004V152.515H148.689V124.543Z" fill="#231F20"/>
<path d="M158.901 137.463H136.795V139.595H158.901V137.463Z" fill="#231F20"/>
<path d="M196.545 123.77H172.727V152.692H196.545V123.77Z" fill="#231F20"/>
<path d="M194.643 126.078H174.628V150.385H194.643V126.078Z" fill="url(#paint1_linear_181_3708)"/>
<path d="M194.643 126.078H174.628V150.385H194.643V126.078Z" fill="#E5E5E5"/>
<path d="M185.444 124.543H183.759V152.515H185.444V124.543Z" fill="#231F20"/>
<path d="M195.654 137.463H173.549V139.595H195.654V137.463Z" fill="#231F20"/>
<path d="M208.13 111.207L168.727 70.5904L168.738 70.5794L168.368 70.2212L165.335 67.0943L165.24 66.9961L165.146 67.0943L162.113 70.2212L161.743 70.5794L161.754 70.5904L122.35 111.207L125.942 114.691L165.24 74.1848L204.539 114.691L208.13 111.207Z" fill="#231F20"/>
<path d="M56.0311 173.399H126.816H132.208H204.05L204.049 170.908H56.0297L56.0311 173.399Z" fill="#101938"/>
<path d="M130.511 40.278L121.448 55.1283C120.707 56.3439 121.501 57.9758 122.831 57.973L140.965 57.9246C142.292 57.9205 143.079 56.2886 142.337 55.0771L133.264 40.2738C132.606 39.1992 131.166 39.2006 130.51 40.2766L130.511 40.278Z" fill="#231F20"/>
<path d="M131.151 39.6602C130.904 39.7943 130.681 40.0004 130.511 40.2783L121.448 55.1287C120.707 56.3443 121.501 57.9762 122.831 57.9734L126.498 57.9638C129.767 57.4949 134.553 56.4881 136.436 54.4676C139.323 51.3656 134.845 41.9351 131.151 39.6615V39.6602Z" fill="#231F20"/>
<path d="M129.707 47.9603C130.504 46.0476 130.021 43.9317 129.306 42.25L123.289 52.1106C125.339 51.6874 128.604 50.6087 129.707 47.9603Z" fill="#231F20"/>
<path d="M130.523 50.7862L133.501 46.5488H130.872L128.973 52.2162L132.63 51.1984L131.505 53.8232L131.039 53.165L130.94 55.6059L132.721 53.9339L131.919 54.0113L134.813 49.5513L130.523 50.7862Z" fill="#64C44D"/>
<path d="M20.6437 172.493C20.6437 172.493 23.2437 149.973 24.043 148.61C24.043 148.61 21.526 142.935 21.5855 140.469C21.5855 140.469 14.9237 139.606 10.8384 135.157C10.8384 135.157 10.6614 129.539 6.24975 125.031C6.24975 125.031 6.22071 124.739 6.54571 124.804C6.87071 124.869 11.6088 128.631 11.7263 134.08C11.7263 134.08 16.2265 137.939 21.4071 137.874C21.4071 137.874 24.7027 133.885 24.3487 128.133C24.3487 128.133 22.8883 125.754 22.6117 123.375C22.6117 123.375 19.6314 122.727 17.5583 120.229C17.5583 120.229 17.2029 116.986 15.9001 115.526C15.9001 115.526 15.9001 115.185 16.167 115.412C16.4339 115.639 17.8944 117.321 18.1115 119.592C18.1115 119.592 21.2494 121.905 22.6518 121.883C22.6518 121.883 25.0471 120.175 25.1522 117.018C25.1522 117.018 24.4884 115.764 24.4884 114.769C24.4884 114.769 20.9549 112.52 20.4031 111.115C20.4031 111.115 20.5607 111.028 20.7391 111.266C20.9175 111.504 23.6807 113.818 24.3113 113.926C24.3113 113.926 24.9821 110.985 25.5353 110.92C26.0884 110.855 25.4952 112.11 25.5353 112.953C25.5754 113.797 25.9294 116.326 26.3249 116.845C26.3249 116.845 30.0161 116.391 31.7323 114.531C31.7323 114.531 32.0878 114.444 31.89 114.877C31.6922 115.31 27.9444 117.675 26.5213 117.667C26.5213 117.667 26.0677 120.867 24.5077 122.272C24.5077 122.272 24.6266 126.293 26.5808 127.656C26.5808 127.656 29.344 126.228 30.6467 126.186C31.9495 126.143 32.5414 126.163 32.5414 126.163C32.5414 126.163 35.5217 124.931 37.0222 122.12C37.0222 122.12 37.2794 121.947 37.3583 122.335C37.4371 122.724 36.115 125.903 32.977 127.049C32.977 127.049 29.734 126.827 26.9763 128.974C26.9763 128.974 27.3608 135.309 25.0222 137.58C25.0222 137.58 24.8147 145.073 27.7466 147.569C27.7466 147.569 33.0462 142.055 38.3747 142.282C38.3747 142.282 40.6539 139.393 41.2167 134.821C41.2167 134.821 41.4532 134.268 41.7492 134.821C42.0451 135.374 41.0093 141.503 39.0552 143.547C39.0552 143.547 30.9731 145.396 27.5088 150.52C27.5088 150.52 26.9224 169.603 27.3373 171.322C27.7522 173.041 26.6458 174.565 23.8245 174.338C21.0019 174.111 20.5248 172.93 20.6465 172.489L20.6437 172.493Z" fill="#644250"/>
<path d="M24.0472 135.927C24.0472 135.927 20.2371 139.105 13.6251 136.639C13.6251 136.639 10.8426 141.098 5.18346 137.864C-0.474263 134.632 4.65102 130.08 4.65102 130.08C4.65102 130.08 -1.77149 127.448 3.07859 123.776C3.07859 123.776 0.915622 117.674 5.48357 115.746C10.0501 113.819 12.3804 114.521 12.3804 114.521C12.3804 114.521 13.065 112.751 15.47 112.586L15.9983 110.504C15.9983 110.504 10.8854 108.375 12.5962 103.948C14.3069 99.5214 22.1304 100.064 22.1304 100.064C22.1304 100.064 25.4301 95.3131 29.4214 98.7027C29.4214 98.7027 41.9704 93.7503 41.9483 103.233C41.9483 103.233 46.5716 104.102 46.3918 107.348C46.2106 110.592 44.652 111.346 44.652 111.346C44.652 111.346 48.4801 114.316 45.7681 117.842C45.7681 117.842 53.0591 116.481 54.2346 121.896C55.4101 127.311 52.0772 127.647 52.0772 127.647C52.0772 127.647 55.0118 133.264 48.1786 137.395C48.1786 137.395 44.6396 144.533 36.4994 141.319C36.4994 141.319 30.6398 143.983 26.708 141.45C22.7762 138.918 24.0485 135.929 24.0485 135.929L24.0472 135.927Z" fill="#177400"/>
<path d="M41.6773 129.788C41.6773 129.788 35.8177 132.452 31.8859 129.92C27.9541 127.387 29.2264 124.399 29.2264 124.399C29.2264 124.399 25.4163 127.577 18.8044 125.111C18.8044 125.111 16.0218 129.57 10.3627 126.336C4.705 123.104 9.83028 118.552 9.83028 118.552C9.83028 118.552 6.81403 117.315 6.47658 115.355C6.15711 115.473 5.82659 115.602 5.48223 115.747C0.915662 117.675 3.07724 123.776 3.07724 123.776C-1.77283 127.448 4.64968 130.08 4.64968 130.08C4.64968 130.08 -0.475605 134.633 5.18212 137.865C10.8398 141.097 13.6238 136.639 13.6238 136.639C20.2357 139.105 24.0458 135.927 24.0458 135.927C24.0458 135.927 22.7735 138.916 26.7053 141.448C30.6371 143.98 36.4967 141.317 36.4967 141.317C44.6368 144.532 48.1759 137.393 48.1759 137.393C54.8307 133.37 52.2211 127.939 52.08 127.658C50.4094 129.527 47.0418 131.907 41.6745 129.788H41.6773Z" fill="#1C8D00"/>
<path d="M53.3578 125.866C53.3578 125.866 52.9513 126.684 52.098 127.643C52.293 127.615 53.9193 127.323 54.3688 125.189C54.0562 125.418 53.7243 125.644 53.3578 125.866Z" fill="#1E695E"/>
<path d="M53.3897 127.26C53.3897 127.26 56.7226 126.911 55.5001 120.82C54.2775 114.73 46.9948 116.196 46.9948 116.196C46.9948 116.196 36.6709 116.033 37.7234 123.983C38.7758 131.934 24.3625 124.512 25.415 136.324C25.415 136.324 24.1675 139.669 28.1228 142.546C32.0781 145.422 37.9184 142.481 37.9184 142.481C46.0903 146.159 49.5713 138.173 49.5713 138.173C56.3727 133.592 53.3897 127.258 53.3897 127.258V127.26Z" fill="#44A52B"/>
<path d="M11.9573 111.325C11.9573 111.325 9.45134 110.576 4.54042 112.638C-0.371891 114.698 1.95011 121.212 1.95011 121.212C-3.26783 125.134 3.63734 127.94 3.63734 127.94C3.63734 127.94 12.9489 122.294 9.87868 119.345C6.8071 116.398 22.9353 116.112 15.2806 109.258C12.6944 109.435 11.9573 111.325 11.9573 111.325Z" fill="#3FAB23"/>
<path d="M25.9046 165.613C25.9046 165.613 24.9019 172.798 23.8993 164.945C23.4 161.038 23.1912 156.718 23.1068 153.361C22.0461 160.354 20.6437 172.496 20.6437 172.496C20.522 172.936 20.9992 174.118 23.8218 174.345C25.1771 174.454 26.1314 174.157 26.7177 173.63C26.0193 170.512 25.9046 165.613 25.9046 165.613Z" fill="#9B4754"/>
<path d="M25.1522 145.896C25.1522 145.896 25.4868 149.322 25.1522 153.833C24.8175 158.345 25.9875 156.089 26.1548 152.663C26.3222 149.238 25.1522 145.896 25.1522 145.896Z" fill="#9B4754"/>
<path d="M47.8287 173.925C47.0459 173.697 44.6506 173.056 43.9467 172.253L41.2084 172.184C41.0964 172.903 40.8613 174.73 41.3274 174.927C41.9096 175.175 48.0998 174.864 48.0998 174.864C48.0998 174.864 48.7055 174.179 47.8287 173.925Z" fill="#E5E5E5"/>
<path d="M53.0604 174.056C52.3275 173.843 50.1797 173.267 49.3306 172.534L46.4166 172.461C46.3005 173.255 46.1207 174.873 46.5577 175.058C47.1399 175.306 53.3301 174.995 53.3301 174.995C53.3301 174.995 53.9358 174.31 53.059 174.056H53.0604Z" fill="#E5E5E5"/>
<path d="M44.0006 144.596C44.0006 144.596 41.9621 141.324 41.2139 140.662C41.2139 140.662 43.074 137.506 43.1944 136.013C43.3161 134.52 41.3605 131.455 40.6608 133.903C39.961 136.351 38.3512 140.128 39.0178 141.786C39.6844 143.443 41.5514 143.896 42.5928 145.884L44.0006 144.595V144.596Z" fill="#D0D1D3"/>
<path d="M43.0408 145.477L42.5928 145.886C41.5514 143.898 39.6844 143.445 39.0178 141.789C38.3512 140.13 39.961 136.354 40.6608 133.906C40.9097 133.034 41.3177 132.863 41.7353 133.069C41.0715 133.895 39.6346 139.133 39.6374 140.335C39.6401 141.538 40.4713 142.407 41.3025 143.277C41.893 143.895 42.6509 144.929 43.0408 145.477Z" fill="#E5E5E5"/>
<path d="M44.0117 172.252L41.0701 172.179C41.0701 172.179 41.5556 164.536 42.8279 160.742C42.8279 160.742 41.9124 156.156 41.6911 153.206C41.6911 153.206 40.8447 151.712 41.2347 147.895L49.48 147.807C49.48 147.807 51.2972 157.568 51.5461 159.339C51.7964 161.112 49.509 170.18 49.4495 172.534L46.2134 172.453C46.2134 172.453 46.7279 163.633 47.9711 161.015C47.9711 161.015 46.5591 158.624 45.7128 157.132C45.7128 157.132 46.183 161.853 45.8676 162.729C45.551 163.604 44.2344 169.165 44.0103 172.251L44.0117 172.252Z" fill="#231F20"/>
<path d="M48.7594 141.312C49.0983 139.555 49.4648 137.321 49.4648 137.321C49.4648 137.321 49.5311 136.668 49.5408 136.668C49.5408 136.661 49.4993 135.959 49.4993 135.953C49.5201 132.738 47.5023 132.449 47.5023 132.449C47.5023 132.449 47.5051 132.449 47.5065 132.446L46.9353 131.846L42.8168 131.742C42.8168 131.742 40.7424 132.279 40.3828 134.92C40.0218 137.56 41.6773 142.018 41.3384 143.775C40.9996 145.533 40.2487 148.314 41.1683 148.704C42.088 149.094 48.274 148.955 49.48 147.807C50.6859 146.659 48.4206 143.07 48.7594 141.312Z" fill="#E5E5E5"/>
<path d="M48.7594 141.313C49.0416 139.85 49.3417 138.063 49.4357 137.503C49.4385 137.463 49.4399 137.423 49.4426 137.384C49.444 137.352 49.4468 137.321 49.4482 137.289C49.48 136.694 49.4966 136.221 49.5035 136.005C49.5021 135.976 49.5007 135.954 49.5007 135.953C49.5035 135.592 49.4772 135.272 49.4329 134.982C47.7485 134.925 47.9725 135.579 47.9725 135.579C47.9725 135.579 47.5244 135.963 47.4498 136.651C47.1732 139.236 47.2949 140.293 47.2589 141.781C47.2216 143.269 48.2712 143.295 48.2035 145.975C48.1675 147.422 46.5135 148.306 44.9991 148.814C45.7944 148.766 46.5882 148.689 47.3087 148.583C48.2961 148.408 49.1162 148.155 49.48 147.809C50.6859 146.661 48.4206 143.072 48.7594 141.315V141.313Z" fill="#D0D1D3"/>
<path d="M45.869 162.732C46.1857 161.857 45.7141 157.136 45.7141 157.136C45.7985 157.284 45.8898 157.443 45.9824 157.606C46.1733 155.278 44.4971 152.836 44.4971 152.836C45.5482 157.867 44.8788 161.088 44.2316 163.428C43.5844 165.767 43.0215 172.229 43.0215 172.229L44.0117 172.254C44.2357 169.169 45.5523 163.608 45.869 162.732Z" fill="#323031"/>
<path d="M48.0845 125.683C47.9186 125.872 47.736 126.061 47.5313 126.238C47.5341 126.242 48.0859 127.02 47.7706 127.893C47.7706 127.893 47.5064 126.709 46.9173 126.694C46.9173 126.694 47.1303 129.937 46.5273 130.511C45.9976 131.014 44.0061 131.142 43.3313 130.96C43.3783 131.197 43.3119 131.754 43.3119 131.754L46.7887 131.841L46.815 130.811C46.815 130.811 48.6017 129.973 48.6322 128.796C48.6612 127.619 48.0873 125.682 48.0873 125.682C48.0873 125.682 48.0859 125.682 48.0845 125.682V125.683Z" fill="#FBC0A4"/>
<path d="M49.3513 123.516C48.8991 123.946 47.7222 123.917 47.7222 123.917C48.3183 123.637 48.3321 123.048 48.3321 123.048C47.4345 123.615 45.8344 122.838 44.0698 122.794C42.3051 122.75 41.6717 124.5 41.6717 124.5C41.3854 124.199 41.3923 123.904 41.3923 123.904C41.0839 124.485 41.3633 125.081 41.3633 125.081C41.077 124.78 40.4741 125.354 40.4741 125.354C40.7686 125.361 41.0549 125.662 41.0549 125.662C40.7161 127.42 41.9995 129.071 42.5817 129.38C43.1626 129.688 42.8459 130.563 43.1335 130.865C43.4198 131.166 45.9243 131.082 46.5273 130.508C47.1303 129.934 46.9173 126.691 46.9173 126.691C47.5051 126.706 47.7706 127.89 47.7706 127.89C48.0859 127.017 47.5341 126.239 47.5314 126.235C48.8604 125.084 49.3527 123.514 49.3527 123.514L49.3513 123.516Z" fill="#231F20"/>
<path d="M54.9081 132.683C54.9123 132.499 54.9371 132.353 54.9952 132.276C55.2621 131.918 55.7227 131.47 55.4253 131.022C55.37 130.939 55.3175 130.847 55.3202 130.748C55.3244 130.629 55.4087 130.532 55.4765 130.434C55.5429 130.336 55.5968 130.204 55.536 130.102C55.4737 129.995 55.323 129.978 55.24 129.886C55.1681 129.806 55.1626 129.687 55.1695 129.579C55.1778 129.471 55.1944 129.359 55.1543 129.258C54.951 128.747 54.0728 129.495 53.8806 129.661C53.6952 129.82 53.5196 129.989 53.3495 130.163C53.3039 130.21 53.1379 130.333 53.1255 130.401L52.9858 131.181L53.4809 132.627C53.8681 132.564 54.4033 132.53 54.9067 132.683H54.9081Z" fill="#FBC0A4"/>
<path d="M53.2845 131.099L51.9997 127.034L54.3452 126.496L54.9717 130.967L53.2845 131.099Z" fill="#231F20"/>
<path d="M53.7657 130.7C53.7948 130.808 53.9068 130.871 54.0147 130.841C54.1226 130.812 54.1862 130.7 54.1571 130.592C54.1281 130.484 54.0161 130.421 53.9082 130.451C53.8003 130.48 53.7367 130.592 53.7671 130.7H53.7657Z" fill="#31467A"/>
<path d="M52.6345 127.189L52.7341 127.377L53.6482 127.178L53.6745 126.985L54.1295 126.891L54.4849 130.291L53.2056 130.377L52.3482 127.26L52.6345 127.189Z" fill="#D0D1D3"/>
<path d="M53.4795 127.002L52.7866 127.139L52.817 127.251L53.4975 127.064L53.4795 127.002Z" fill="#31467A"/>
<path d="M53.3702 132.139C53.3702 132.139 53.4145 132.342 53.4795 132.627C53.7243 132.587 54.0257 132.558 54.3424 132.582C54.2761 131.471 53.2845 131.099 53.2845 131.099C53.2845 131.099 54.0617 130.868 53.987 130.448C53.9109 130.027 52.4146 130.56 52.3482 130.899C52.2818 131.237 53.3702 132.139 53.3702 132.139Z" fill="#FBC0A4"/>
<path d="M55.3244 132.859C54.319 132.279 52.9263 132.757 52.9263 132.757L52.7853 137.764C52.7853 137.764 49.0056 133.051 48.5202 132.792C48.1952 132.62 47.8135 132.404 46.8468 132.578L47.2894 136.478C47.2894 136.478 52.6968 142.454 53.9594 142.18C54.8196 141.993 55.4295 141.425 55.5609 140.15C55.7573 138.233 55.323 132.857 55.323 132.857L55.3244 132.859Z" fill="#E5E5E5"/>
<path d="M188.972 165.782L191.114 162.966C191.243 162.798 191.212 162.545 191.048 162.401L190.922 162.292C190.757 162.148 190.519 162.167 190.391 162.336L188.248 165.152C188.12 165.32 188.15 165.573 188.315 165.717L188.441 165.826C188.605 165.97 188.843 165.951 188.972 165.782Z" fill="#888888"/>
<path d="M189.803 162.879L191.991 162.985C192.146 162.992 192.285 162.876 192.303 162.723L192.324 162.543C192.342 162.391 192.23 162.261 192.075 162.254L189.887 162.149C189.732 162.142 189.593 162.258 189.575 162.411L189.554 162.591C189.536 162.743 189.648 162.873 189.803 162.88V162.879Z" fill="#2B2B2B"/>
<path d="M189.384 168.432C190.318 167.498 190.318 165.983 189.384 165.048C188.449 164.114 186.934 164.114 186 165.048C185.066 165.983 185.066 167.498 186 168.432C186.934 169.366 188.449 169.366 189.384 168.432Z" fill="#2F2B33"/>
<path d="M187.554 169.183C187.417 169.183 187.279 169.172 187.142 169.15L174.127 167.035C173.322 166.911 172.737 166.245 172.737 165.454C172.737 164.663 173.406 164.008 174.228 164.008L187.857 164.237C189.124 164.258 190.14 165.306 190.124 166.573V166.648C190.113 167.396 189.779 168.101 189.206 168.583C188.739 168.974 188.154 169.184 187.554 169.184V169.183ZM174.227 164.153C173.485 164.153 172.881 164.737 172.881 165.456C172.881 166.175 173.413 166.781 174.148 166.894L187.163 169.009C187.86 169.122 188.569 168.926 189.11 168.472C189.651 168.018 189.966 167.353 189.976 166.647V166.572C189.992 165.385 189.04 164.403 187.853 164.384L174.225 164.154L174.227 164.153Z" fill="#2F2B33"/>
<path d="M201.84 151.282L200.713 151.625L200.801 151.916L201.928 151.573L201.84 151.282Z" fill="#2C3C4B"/>
<path d="M202.085 152.325L200.957 152.668L201.046 152.959L202.173 152.616L202.085 152.325Z" fill="#2C3C4B"/>
<path d="M186.311 161.973L186.074 161.091C186.117 161.08 190.389 159.911 192.547 157.445C193.204 156.694 193.771 155.852 194.32 155.037C195.723 152.953 197.174 150.799 200.102 150.4L200.225 151.305C197.704 151.648 196.487 153.455 195.078 155.546C194.513 156.384 193.93 157.25 193.234 158.045C190.893 160.723 186.496 161.922 186.311 161.972V161.973Z" fill="#BBBCBD"/>
<path d="M200.102 150.4C200.069 150.405 200.036 150.411 200.004 150.416L200.112 151.207C197.59 151.55 196.373 153.357 194.964 155.448C194.4 156.286 193.816 157.152 193.121 157.947C190.925 160.459 186.921 161.669 186.279 161.851L186.311 161.972C186.496 161.922 190.893 160.723 193.234 158.045C193.93 157.25 194.513 156.384 195.078 155.546C196.487 153.454 197.704 151.648 200.225 151.305L200.102 150.4Z" fill="#888888"/>
<path d="M182.884 148.144L182.151 148.346L183.37 152.769L184.103 152.567L182.884 148.144Z" fill="#282F3A"/>
<path d="M174.301 155.635C168.852 155.635 164.437 160.052 164.437 165.499C164.437 170.947 168.854 175.364 174.301 175.364C179.749 175.364 184.166 170.947 184.166 165.499C184.166 160.052 179.749 155.635 174.301 155.635ZM174.301 174.191C169.501 174.191 165.609 170.3 165.609 165.499C165.609 160.699 169.501 156.808 174.301 156.808C179.102 156.808 182.993 160.699 182.993 165.499C182.993 170.3 179.102 174.191 174.301 174.191Z" fill="#2F2B33"/>
<path d="M174.301 156.809C169.501 156.809 165.609 160.7 165.609 165.501C165.609 170.301 169.501 174.193 174.301 174.193C179.102 174.193 182.993 170.301 182.993 165.501C182.993 160.7 179.102 156.809 174.301 156.809ZM174.301 173.31C169.988 173.31 166.49 169.813 166.49 165.499C166.49 161.186 169.988 157.688 174.301 157.688C178.615 157.688 182.112 161.186 182.112 165.499C182.112 169.813 178.615 173.31 174.301 173.31Z" fill="#888888"/>
<path d="M195.271 165.727C195.145 165.727 195.043 165.624 195.043 165.499C195.043 159.546 199.886 154.703 205.838 154.703C205.964 154.703 206.067 154.805 206.067 154.931C206.067 155.057 205.964 155.159 205.838 155.159C200.138 155.159 195.501 159.797 195.501 165.497C195.501 165.623 195.398 165.725 195.273 165.725L195.271 165.727Z" fill="#888888"/>
<path d="M184.958 165.727C185.084 165.727 185.187 165.624 185.187 165.499C185.187 159.546 180.343 154.703 174.391 154.703C174.265 154.703 174.163 154.805 174.163 154.931C174.163 155.057 174.265 155.159 174.391 155.159C180.092 155.159 184.729 159.797 184.729 165.497C184.729 165.623 184.831 165.725 184.957 165.725L184.958 165.727Z" fill="#888888"/>
<path d="M205.837 155.635C200.388 155.635 195.972 160.052 195.972 165.499C195.972 170.947 200.39 175.364 205.837 175.364C211.285 175.364 215.702 170.947 215.702 165.499C215.702 160.052 211.285 155.635 205.837 155.635ZM205.837 174.191C201.037 174.191 197.145 170.3 197.145 165.499C197.145 160.699 201.037 156.808 205.837 156.808C210.637 156.808 214.529 160.699 214.529 165.499C214.529 170.3 210.637 174.191 205.837 174.191Z" fill="#2F2B33"/>
<path d="M205.837 156.809C201.037 156.809 197.145 160.7 197.145 165.501C197.145 170.301 201.037 174.193 205.837 174.193C210.637 174.193 214.529 170.301 214.529 165.501C214.529 160.7 210.637 156.809 205.837 156.809ZM205.837 173.31C201.524 173.31 198.026 169.813 198.026 165.499C198.026 161.186 201.524 157.688 205.837 157.688C210.151 157.688 213.648 161.186 213.648 165.499C213.648 169.813 210.151 173.31 205.837 173.31Z" fill="#888888"/>
<path d="M171.569 153.464L170.836 153.664L174.065 165.485L174.799 165.285L171.569 153.464Z" fill="#BBBCBD"/>
<path d="M171.562 153.48L171.425 153.518L174.644 165.302L174.047 165.465L174.056 165.503L174.791 165.302L171.562 153.48Z" fill="#888888"/>
<path d="M180.803 155.448C180.74 155.448 180.678 155.433 180.62 155.401L178.529 154.26C178.169 154.064 177.763 153.96 177.352 153.96H168.161C167.951 153.96 167.781 153.79 167.781 153.58C167.781 153.369 167.951 153.199 168.161 153.199H177.352C177.889 153.199 178.421 153.335 178.893 153.592L180.984 154.733C181.168 154.834 181.235 155.065 181.136 155.249C181.067 155.376 180.937 155.447 180.801 155.447L180.803 155.448Z" fill="#BBBCBD"/>
<path d="M181.136 155.15C181.067 155.277 180.937 155.347 180.801 155.347C180.739 155.347 180.677 155.332 180.619 155.3L178.528 154.159C178.168 153.963 177.761 153.859 177.351 153.859H168.16C167.966 153.859 167.808 153.714 167.783 153.527C167.781 153.544 167.778 153.559 167.778 153.576C167.778 153.786 167.948 153.956 168.158 153.956H177.349C177.759 153.956 178.165 154.06 178.526 154.256L180.617 155.397C180.675 155.429 180.738 155.444 180.8 155.444C180.934 155.444 181.065 155.372 181.135 155.246C181.175 155.173 181.187 155.093 181.177 155.015C181.172 155.061 181.158 155.105 181.135 155.148L181.136 155.15Z" fill="#34599B"/>
<path d="M187.825 167.198L174.108 165.828C173.897 165.807 173.781 165.573 173.892 165.392L182.737 151.061C182.779 150.993 182.791 150.911 182.769 150.834L182.588 150.175C182.547 150.023 182.635 149.866 182.787 149.823L183.115 149.733C183.267 149.691 183.425 149.78 183.466 149.932L188.127 166.835C188.181 167.028 188.023 167.215 187.823 167.196L187.825 167.198ZM175.651 165.064L186.59 166.157C186.791 166.176 186.949 165.99 186.895 165.796L183.309 152.789C183.242 152.549 182.92 152.503 182.789 152.715L175.435 164.629C175.325 164.809 175.439 165.042 175.651 165.064Z" fill="#BBBCBD"/>
<path d="M186.895 165.668L183.309 152.661C183.242 152.42 182.92 152.375 182.789 152.586L175.435 164.501C175.392 164.57 175.384 164.647 175.401 164.718C175.408 164.689 175.417 164.658 175.435 164.631L182.789 152.716C182.92 152.503 183.242 152.549 183.309 152.791L186.895 165.798C186.895 165.798 186.895 165.808 186.896 165.812C186.907 165.766 186.907 165.718 186.895 165.668Z" fill="#888888"/>
<path d="M187.825 167.07L174.108 165.7C173.979 165.687 173.886 165.593 173.859 165.482C173.821 165.643 173.931 165.813 174.108 165.831L187.825 167.201C188.02 167.221 188.174 167.042 188.131 166.854C188.099 166.986 187.973 167.085 187.825 167.071V167.07Z" fill="#888888"/>
<path d="M174.844 166.809C175.568 166.509 175.912 165.679 175.612 164.955C175.312 164.231 174.482 163.888 173.758 164.187C173.034 164.487 172.69 165.317 172.99 166.041C173.29 166.765 174.12 167.109 174.844 166.809Z" fill="#2F2B33"/>
<path d="M188.319 167.13L187.918 166.31C187.964 166.288 192.566 164.012 194.403 161.278C194.917 160.512 195.361 159.7 195.79 158.917C197.052 156.607 198.246 154.427 200.991 153.746L201.211 154.633C198.854 155.218 197.806 157.136 196.591 159.355C196.152 160.158 195.699 160.987 195.161 161.788C193.186 164.727 188.517 167.035 188.319 167.132V167.13Z" fill="#BBBCBD"/>
<path d="M196.591 159.097C196.152 159.9 195.699 160.729 195.161 161.53C193.186 164.469 188.517 166.777 188.319 166.874L188.019 166.26C187.958 166.29 187.922 166.308 187.918 166.311L188.319 167.131C188.517 167.034 193.186 164.726 195.161 161.787C195.699 160.987 196.152 160.157 196.591 159.355C197.805 157.134 198.854 155.215 201.211 154.632L201.152 154.393C198.838 154.996 197.795 156.897 196.591 159.099V159.097Z" fill="#888888"/>
<path d="M188.481 167.617C188.966 167.133 188.966 166.348 188.481 165.863C187.997 165.379 187.211 165.379 186.727 165.863C186.242 166.348 186.242 167.133 186.727 167.617C187.211 168.102 187.997 168.102 188.481 167.617Z" fill="#BBBCBD"/>
<path d="M188.672 166.739C188.672 167.329 188.193 167.808 187.603 167.808C187.012 167.808 186.534 167.329 186.534 166.739C186.534 166.148 187.012 165.67 187.603 165.67C188.193 165.67 188.672 166.148 188.672 166.739Z" fill="#888888"/>
<path d="M205.837 165.945C205.738 165.945 205.637 165.906 205.562 165.827C205.432 165.692 205.303 165.551 205.176 165.408C203.841 163.898 203.14 162.674 202.59 160.89L199.109 148.512C199.052 148.31 199.17 148.1 199.372 148.044C199.575 147.987 199.784 148.104 199.841 148.306L203.319 160.674C203.837 162.356 204.474 163.465 205.746 164.903C205.865 165.039 205.988 165.172 206.111 165.3C206.256 165.452 206.251 165.693 206.1 165.838C206.027 165.909 205.931 165.943 205.837 165.943V165.945Z" fill="#2F2B33"/>
<path d="M200.161 149.696L199.562 149.865C199.485 149.887 199.44 149.967 199.462 150.044L200.997 155.504C201.019 155.581 201.099 155.626 201.177 155.604L201.776 155.436C201.853 155.414 201.898 155.334 201.876 155.257L200.34 149.797C200.319 149.72 200.239 149.675 200.161 149.696Z" fill="#BBBCBD"/>
<path d="M201.322 155.558C201.244 155.58 201.164 155.534 201.142 155.457L199.607 149.998C199.587 149.932 199.621 149.864 199.68 149.832L199.561 149.865C199.484 149.887 199.438 149.968 199.46 150.045L200.995 155.504C201.017 155.581 201.098 155.627 201.175 155.605L201.774 155.436C201.784 155.433 201.792 155.426 201.802 155.422L201.322 155.558Z" fill="#888888"/>
<path d="M181.865 148.595C181.865 148.595 178.89 148.422 178.742 147.675C178.594 146.928 178.306 146.105 180.81 146.277C183.313 146.448 187.261 146.204 186.216 147.237C185.17 148.27 183.042 148.512 183.042 148.512L181.866 148.593L181.865 148.595Z" fill="#BBBCBD"/>
<path d="M199.391 149.731C199.391 149.731 198.579 147.361 198.762 147.112C198.943 146.863 199.077 145.823 198.581 145.791L198.81 145.452C198.81 145.452 199.557 145.661 199.518 146.01C199.48 146.357 199.54 146.513 199.702 146.437C199.864 146.361 200.944 145.646 200.868 145.462C200.792 145.277 199.83 144.761 199.83 144.761L200.258 144.541C200.258 144.541 201.778 145.246 201.719 145.606C201.661 145.964 199.991 146.784 199.726 147.091C199.46 147.398 200.211 149.482 200.211 149.482L199.39 149.733L199.391 149.731Z" fill="#2F2B33"/>
<path d="M197.701 145.401C197.643 145.772 197.922 146.124 198.326 146.188C198.73 146.252 199.105 146.001 199.163 145.631C199.221 145.26 198.942 144.907 198.538 144.844C198.134 144.78 197.759 145.031 197.701 145.401Z" fill="#2F2B33"/>
<path d="M198.033 145.452C198.001 145.654 198.153 145.846 198.375 145.881C198.595 145.915 198.799 145.78 198.831 145.577C198.863 145.375 198.711 145.182 198.489 145.148C198.27 145.113 198.065 145.25 198.033 145.452Z" fill="#C7C7C7"/>
<path d="M198.866 144.091C198.807 144.461 199.087 144.814 199.491 144.878C199.894 144.941 200.269 144.691 200.327 144.32C200.385 143.95 200.106 143.597 199.702 143.533C199.298 143.47 198.924 143.72 198.866 144.091Z" fill="#2F2B33"/>
<path d="M199.198 144.144C199.166 144.346 199.318 144.538 199.539 144.572C199.759 144.607 199.964 144.47 199.995 144.268C200.027 144.066 199.875 143.874 199.654 143.839C199.434 143.805 199.229 143.942 199.198 144.144Z" fill="#C7C7C7"/>
<path d="M207.134 165.663C207.134 166.447 206.5 167.082 205.715 167.082C204.931 167.082 204.297 166.447 204.297 165.663C204.297 164.879 204.931 164.244 205.715 164.244C206.5 164.244 207.134 164.879 207.134 165.663Z" fill="#2F2B33"/>
<path d="M204.161 153.315L202.742 153.716C202.316 153.836 201.874 153.589 201.753 153.163L201.143 151.004C201.023 150.578 201.271 150.136 201.697 150.015L204.793 149.14C204.974 149.089 205.161 149.194 205.212 149.375L205.599 150.744C205.912 151.851 205.269 153.003 204.161 153.315Z" fill="#888888"/>
<path d="M204.876 149.129L205.251 150.457C205.563 151.563 204.92 152.715 203.812 153.028L202.394 153.429C202.21 153.481 202.023 153.463 201.86 153.394C202.048 153.673 202.4 153.813 202.742 153.718L204.161 153.317C205.267 153.004 205.912 151.852 205.599 150.746L205.212 149.376C205.169 149.224 205.028 149.126 204.876 149.13V149.129Z" fill="#2F2B33"/>
<path d="M187.612 167.736L185.376 170.686C185.242 170.863 184.985 170.909 184.802 170.788L184.662 170.697C184.48 170.577 184.44 170.337 184.574 170.16L186.81 167.211C186.944 167.034 187.202 166.988 187.384 167.108L187.524 167.199C187.706 167.32 187.746 167.559 187.612 167.736Z" fill="#888888"/>
<path d="M185.77 171.168L183.577 171.031C183.422 171.022 183.295 170.89 183.292 170.737L183.289 170.555C183.288 170.402 183.412 170.286 183.567 170.295L185.761 170.432C185.915 170.442 186.043 170.573 186.045 170.727L186.048 170.908C186.05 171.062 185.925 171.176 185.77 171.168Z" fill="#2B2B2B"/>
<defs>
<linearGradient id="paint0_linear_181_3708" x1="137.397" y1="152.161" x2="159.538" y2="122.742" gradientUnits="userSpaceOnUse">
<stop stop-color="#93E3FC"/>
<stop offset="1" stop-color="#D0E3A7"/>
</linearGradient>
<linearGradient id="paint1_linear_181_3708" x1="174.152" y1="152.161" x2="196.293" y2="122.742" gradientUnits="userSpaceOnUse">
<stop stop-color="#93E3FC"/>
<stop offset="1" stop-color="#D0E3A7"/>
</linearGradient>
</defs>
</svg>
