<svg width="260" height="190" viewBox="0 0 260 190" fill="none" xmlns="http://www.w3.org/2000/svg">
<g opacity="0.5">
<path d="M258.265 0.1875H251.039V189.555H258.265V0.1875Z" fill="#F5F5F5"/>
<path d="M242.204 0.1875H234.978V189.555H242.204V0.1875Z" fill="#F5F5F5"/>
<path d="M226.143 0.1875H218.917V189.555H226.143V0.1875Z" fill="#F5F5F5"/>
<path d="M210.083 0.1875H202.856V189.555H210.083V0.1875Z" fill="#F5F5F5"/>
<path d="M194.021 0.1875H186.794V189.555H194.021V0.1875Z" fill="#F5F5F5"/>
<path d="M177.961 0.1875H170.734V189.555H177.961V0.1875Z" fill="#F5F5F5"/>
<path d="M161.899 0.1875H154.673V189.555H161.899V0.1875Z" fill="#F5F5F5"/>
<path d="M145.838 0.1875H138.612V189.555H145.838V0.1875Z" fill="#F5F5F5"/>
<path d="M129.777 0.1875H122.551V189.555H129.777V0.1875Z" fill="#F5F5F5"/>
<path d="M113.717 0.1875H106.491V189.555H113.717V0.1875Z" fill="#F5F5F5"/>
</g>
<path d="M178.142 186.059C182.356 186.059 185.772 185.523 185.772 184.863C185.772 184.202 182.356 183.666 178.142 183.666C173.928 183.666 170.512 184.202 170.512 184.863C170.512 185.523 173.928 186.059 178.142 186.059Z" fill="#F5F5F5"/>
<path d="M176.816 171.7L172.402 168.562C172.402 168.562 173.735 167.361 173.045 166.974C172.355 166.588 171.299 167.667 171.299 167.667C171.299 167.667 167.579 166.104 166.369 163.764C166.369 163.764 168.656 163.677 168.544 163.028C168.433 162.378 165.749 162.317 165.749 162.317L164.967 160.27C164.967 160.27 167.801 159.109 170.74 160.957C173.679 162.806 173.869 163.464 173.869 163.464C173.869 163.464 174.011 165.635 174.641 165.93C175.271 166.226 175.032 164.486 175.456 164.721C175.881 164.954 177.879 168.72 176.816 171.7V171.7Z" fill="#67DB8A"/>
<path d="M181.326 157.006C181.527 155.427 181.348 151.937 181.348 151.937C181.178 152.392 179.699 153.446 179.043 152.395C178.388 151.344 180.221 151.132 180.489 150.302C180.757 149.469 178.38 147.904 177.835 147.459C177.289 147.014 176.198 148.584 175.764 150.642C175.33 152.701 177.043 153.868 176.775 154.963C176.506 156.06 175.663 155.081 175.282 154.237C174.901 153.393 173.979 152.581 174.232 156.493C174.484 160.408 177.992 163.42 177.992 163.42C180.146 161.797 181.075 158.675 181.075 158.675C181.075 158.675 179.883 158.396 179.838 157.61C179.794 156.824 181.325 157.006 181.325 157.006H181.326ZM177.011 159.198C176.701 159.4 176.174 159.135 175.837 158.611C175.501 158.087 175.48 157.499 175.79 157.298C176.1 157.1 176.623 157.365 176.96 157.889C177.3 158.414 177.321 159 177.011 159.198ZM179.026 154.87C178.969 154.556 179.352 154.22 179.886 154.12C180.42 154.019 180.899 154.192 180.96 154.507C181.018 154.823 180.634 155.16 180.1 155.26C179.566 155.361 179.087 155.188 179.026 154.87L179.026 154.87Z" fill="#67DB8A"/>
<path d="M186.113 162.065C186.105 161.409 188.882 160.85 188.903 160.844L189.143 158.664C188.542 158.585 185.77 158.369 183.556 160.462C181.034 162.848 180.976 163.531 180.976 163.531C180.976 163.531 181.26 165.687 180.699 166.101C180.14 166.514 180.035 164.761 179.664 165.073C179.294 165.385 178.068 169.468 179.692 172.184L183.409 168.246C183.409 168.246 181.869 167.328 182.47 166.814C183.071 166.3 184.317 167.153 184.317 167.153C184.317 167.153 188.012 164.849 188.743 162.317C188.743 162.317 186.127 163.235 186.114 162.065H186.113Z" fill="#67DB8A"/>
<path d="M172.85 183.98L172.278 175.197H184.02L183.447 183.98C183.421 184.383 183.087 184.695 182.684 184.695H173.614C173.211 184.695 172.877 184.383 172.851 183.98H172.85Z" fill="white"/>
<path d="M171.321 173.29V174.711C171.321 174.979 171.537 175.198 171.808 175.198H184.49C184.758 175.198 184.977 174.979 184.977 174.711V173.29C184.977 173.021 184.758 172.803 184.49 172.803H171.808C171.538 172.803 171.321 173.021 171.321 173.29Z" fill="white"/>
<path d="M153.406 187.812C153.406 188.778 143.901 189.554 132.168 189.554C120.435 189.554 110.936 188.778 110.936 187.812C110.936 186.846 120.441 186.076 132.168 186.076C143.895 186.076 153.406 186.852 153.406 187.812Z" fill="#F5F5F5"/>
<path d="M169.798 173.13C169.798 175.306 141.345 177.066 106.256 177.066C71.1673 177.066 48.0171 176.883 48.0171 174.707C48.0171 172.53 71.1571 169.193 106.256 169.193C141.355 169.193 169.798 170.953 169.798 173.13Z" fill="#F5F5F5"/>
<path d="M138.79 170.041H135.845V174.441H138.79V170.041Z" fill="#E1E5E2"/>
<path d="M141.75 170.041H138.79V174.441H141.75V170.041Z" fill="white"/>
<path d="M155.837 170.041H152.892V174.441H155.837V170.041Z" fill="#E1E5E2"/>
<path d="M158.797 170.041H155.837V174.441H158.797V170.041Z" fill="white"/>
<path d="M59.7653 102.503L65.8666 153.225L57.2958 154.256L51.1945 103.534C50.9095 101.165 52.5982 99.015 54.9618 98.7307C56.148 98.5879 57.2765 98.9391 58.1434 99.6235C59.014 100.303 59.6231 101.321 59.7653 102.503Z" fill="#E1E5E2"/>
<path d="M128.039 153.225L125.317 153.552H63.1464L65.8684 153.225L59.7653 102.505C59.6237 101.32 59.014 100.304 58.1434 99.6232C57.5247 99.137 56.7734 98.8189 55.9648 98.7303H117.137C118.321 98.5887 119.453 98.9382 120.319 99.6232C121.189 100.304 121.795 101.32 121.94 102.505L128.039 153.225H128.039Z" fill="white"/>
<path d="M152.724 126.891V168.366C152.724 169.316 153.493 170.041 154.399 170.041H126.461C125.554 170.041 124.786 169.316 124.786 168.366V126.891C124.878 121.998 128.86 118.109 133.752 118.109H161.687C156.799 118.109 152.813 121.998 152.724 126.891Z" fill="#F5F5F5"/>
<path d="M152.724 126.891V168.367C152.724 169.317 153.493 170.04 154.4 170.04H160.014C160.92 170.04 161.69 169.317 161.69 168.367V135.947C166.58 135.947 170.61 131.963 170.61 127.026C170.61 122.089 166.58 118.107 161.69 118.107C156.799 118.107 152.815 122.001 152.725 126.891H152.724Z" fill="white"/>
<path d="M152.723 147.709V166.806C152.723 168.591 151.276 170.038 149.491 170.038H90.3538C88.5686 170.038 87.1221 168.591 87.1221 166.806V147.709H152.724H152.723Z" fill="white"/>
<path d="M121.336 141.744H151.31C152.09 141.744 152.724 142.377 152.724 143.158V149.677C152.724 150.457 152.09 151.091 151.31 151.091H121.336C120.556 151.091 119.922 150.458 119.922 149.677V143.158C119.922 142.378 120.556 141.745 121.336 141.745L121.336 141.744Z" fill="#F5F5F5"/>
<path d="M119.923 147.107V149.676C119.923 150.458 120.555 151.09 121.336 151.09H151.31C152.091 151.09 152.723 150.458 152.723 149.676V147.107H119.922H119.923Z" fill="#E1E5E2"/>
<path d="M88.6834 141.744H118.657C119.437 141.744 120.071 142.377 120.071 143.158V149.678C120.071 150.458 119.438 151.091 118.657 151.091H88.684C87.9038 151.091 87.27 150.458 87.27 149.677V143.158C87.27 142.378 87.9032 141.745 88.6834 141.745V141.744Z" fill="#F5F5F5"/>
<path d="M87.2696 147.107V149.676C87.2696 150.458 87.9016 151.09 88.6831 151.09H118.656C119.438 151.09 120.07 150.458 120.07 149.676V147.107H87.269H87.2696Z" fill="#E1E5E2"/>
<path d="M57.5548 170.041H54.6099V174.441H57.5548V170.041Z" fill="#E1E5E2"/>
<path d="M60.5147 170.041H57.5547V174.441H60.5147V170.041Z" fill="white"/>
<path d="M74.6021 170.041H71.6572V174.441H74.6021V170.041Z" fill="#E1E5E2"/>
<path d="M77.5625 170.041H74.6025V174.441H77.5625V170.041Z" fill="white"/>
<path d="M132.287 180.123C131.955 180.123 131.672 180.356 131.611 180.681C131.422 181.701 131.153 183.389 131.133 184.539C131.115 185.402 131.241 186.276 131.641 186.976H147.364C147.364 186.976 147.556 184.539 144.948 184.5C144.61 184.493 144.262 184.413 143.91 184.277C142.086 183.567 140.206 181.348 139.451 180.385C139.321 180.218 139.124 180.123 138.912 180.123H132.287Z" fill="white"/>
<path d="M143.729 185.274C143.729 185.914 143.941 186.503 144.292 186.976H147.364C147.364 186.976 147.555 184.539 144.947 184.5C144.609 184.493 144.261 184.413 143.91 184.277C143.791 184.587 143.729 184.921 143.729 185.273V185.274Z" fill="white"/>
<path d="M138.572 180.121H132.59L132.171 177.367C132.597 177.528 133.066 177.612 133.54 177.612H137.789C137.894 177.612 137.991 177.598 138.082 177.57L138.572 180.121H138.572Z" fill="white"/>
<path d="M137.788 177.611H133.537C131.758 177.611 130.187 176.447 129.667 174.745L119.381 142.005C119.381 142.005 107.024 141.825 95.2485 141.722C83.805 141.611 87.8687 124.837 88.1043 123.917C88.1043 123.889 88.1115 123.875 88.1115 123.875L106.277 125.474L124.234 126.99C127.571 127.274 130.278 129.814 130.769 133.124L138.523 173.983L138.876 176.351C138.973 177.015 138.461 177.611 137.789 177.611H137.788Z" fill="#67DB8A"/>
<path d="M137.788 177.612H133.537C131.758 177.612 130.187 176.449 129.667 174.746L119.381 142.007C119.381 142.007 107.024 141.827 95.2485 141.723C83.805 141.612 87.8687 124.839 88.1043 123.918C88.5405 124.319 88.8936 124.804 89.1291 125.358C89.6346 126.562 89.6135 127.94 90.1124 129.144C90.8118 130.806 92.5494 131.983 94.3562 131.989C95.8443 132.003 97.5475 131.353 98.6971 132.308C99.126 132.668 99.3755 133.187 99.7147 133.623C101.113 135.416 103.771 135.575 106 135.133C107.253 134.883 108.61 134.502 109.753 135.084C110.195 135.305 110.556 135.651 110.971 135.921C113.283 137.438 116.571 136.226 119.008 137.534C121.41 138.821 122.033 141.951 123.778 144.048C124.546 144.969 125.536 145.702 126.187 146.706C127.668 149.005 127.038 152.224 128.569 154.494C129.011 155.152 129.621 155.692 130.016 156.384C131.109 158.295 133.366 169.491 135.131 170.799C135.381 172.308 136.931 173.457 138.385 173.942C138.433 173.956 138.475 173.97 138.523 173.984L138.876 176.352C138.973 177.016 138.461 177.611 137.789 177.611L137.788 177.612Z" fill="#34B75C"/>
<path d="M123.333 177.611H119.083C117.304 177.611 115.732 176.447 115.213 174.745L104.926 142.005C104.926 142.005 92.5695 141.825 80.7934 141.722C70.6242 141.625 72.6937 128.388 73.4486 124.775C73.5733 124.208 73.6565 123.875 73.6565 123.875L91.8218 125.474L109.773 126.99C113.109 127.274 115.816 129.814 116.314 133.124L124.275 175.437L124.414 176.351C124.518 177.015 123.999 177.611 123.334 177.611H123.333Z" fill="#67DB8A"/>
<path d="M123.333 177.611H119.083C117.304 177.611 115.732 176.448 115.213 174.745L104.926 142.006C104.926 142.006 92.5695 141.826 80.7934 141.722C70.6242 141.625 72.6937 128.388 73.4486 124.775C73.4968 124.803 73.5456 124.837 73.5938 124.872C74.6464 125.669 75.4699 126.762 75.9405 127.988C76.7086 129.995 76.702 132.557 78.4884 133.769C81.2369 135.631 85.3072 132.308 88.1666 133.99C89.1082 134.544 89.7035 135.548 90.5686 136.206C92.0297 137.313 94.0233 137.306 95.8578 137.251C97.7755 137.195 99.6932 137.14 101.611 137.085C103.563 137.029 105.737 137.05 107.17 138.379C108.098 139.238 108.534 140.498 108.935 141.702C109.669 143.903 110.396 146.112 111.129 148.313C111.517 149.476 111.953 150.708 112.916 151.47C113.546 151.968 114.356 152.218 114.986 152.723C116.343 153.817 119.417 164.147 119.306 165.892C119.195 167.63 118.897 169.471 119.631 171.049C120.531 172.995 122.719 173.978 124.276 175.438L124.415 176.352C124.518 177.017 124 177.612 123.334 177.612L123.333 177.611Z" fill="#34B75C"/>
<path d="M72.7528 124.349C88.7148 130.194 88.2581 123.031 101.76 125.105C100.955 109.687 100.145 94.2493 99.0033 86.9835C98.7467 86.6521 98.2195 86.3551 97.6652 86.0171C95.462 84.6995 92.9617 83.9355 90.4006 83.6993L84.1089 83.1113C84.1089 83.1113 75.3585 84.447 73.195 86.8075C68.4643 91.9696 72.7522 124.349 72.7522 124.349H72.7528Z" fill="white"/>
<path d="M90.7693 73.8086V83.7314L90.5422 99.9712L84.4771 83.1139V73.8086H90.7693Z" fill="white"/>
<path d="M71.7362 90.332L68.8901 105.854C68.6274 107.832 69.5594 109.778 71.2699 110.807C75.9168 113.603 85.3185 117.923 90.6799 120.884C90.1051 120.252 89.8762 119.061 90.6257 117.92C91.7204 116.255 93.5067 114.906 94.6183 114.906C94.681 114.906 94.743 114.91 94.7972 114.923L78.4647 105.593L80.8794 95.338" fill="white"/>
<path d="M117.83 180.121C117.499 180.121 117.215 180.354 117.155 180.679C116.965 181.699 116.697 183.387 116.676 184.537C116.659 185.4 116.784 186.274 117.185 186.974H132.908C132.908 186.974 133.099 184.537 130.491 184.498C130.153 184.491 129.805 184.411 129.454 184.275C127.629 183.565 125.749 181.347 124.995 180.383C124.864 180.216 124.667 180.121 124.455 180.121H117.83Z" fill="white"/>
<path d="M116.676 184.536C116.659 185.399 116.784 186.273 117.185 186.973H119.859C119.824 185.58 118.682 184.463 117.282 184.463C117.073 184.463 116.872 184.488 116.676 184.536Z" fill="white"/>
<path d="M129.272 185.272C129.272 185.912 129.485 186.501 129.836 186.974H132.908C132.908 186.974 133.099 184.537 130.491 184.498C130.153 184.491 129.805 184.411 129.454 184.275C129.335 184.585 129.272 184.919 129.272 185.271V185.272Z" fill="white"/>
<path d="M124.116 180.119H118.134L117.714 177.365C118.141 177.526 118.609 177.61 119.084 177.61H123.332C123.437 177.61 123.535 177.596 123.626 177.568L124.115 180.119H124.116Z" fill="white"/>
<path d="M143.552 103.31L134.756 124.358H97.9038L106.887 102.519C107.387 101.32 108.565 100.546 109.864 100.559L141.935 100.855C143.193 100.868 144.037 102.15 143.552 103.311V103.31Z" fill="white"/>
<path d="M101.912 113.043C104.058 112.823 103.842 114.557 101.327 115.042C107.048 115.194 107.808 117.211 104.203 117.211C104.203 117.211 106.946 118.873 104.171 119.173C104.171 119.173 106.337 120.993 103.737 120.792C106.363 123.165 99.3715 123.318 95.1427 120.308L90.2837 118.912C90.8982 117.222 92.1225 115.859 94.1293 114.854L101.912 113.043Z" fill="white"/>
<path d="M96.4506 71.8659C96.4506 76.479 93.7051 80.2168 90.318 80.2168C87.6827 80.2168 85.4361 77.9533 84.5679 74.777C84.392 74.8084 84.2095 74.8216 84.0203 74.8216C82.546 74.8216 81.3501 73.8878 81.3501 72.734C81.3501 71.8761 82.008 71.1387 82.9521 70.8188C89.6047 70.2434 92.743 67.3768 94.1485 65.3477C95.5505 66.8773 96.45 69.2306 96.45 71.8659H96.4506Z" fill="white"/>
<path d="M93.4723 71.9453C93.6043 72.505 93.7621 73.0587 93.9453 73.6039C94.0423 73.8925 94.1345 74.2468 93.9296 74.4715C93.7772 74.6384 93.5223 74.6553 93.2976 74.6318C93.0729 74.6083 92.8409 74.5559 92.6265 74.6263" fill="white"/>
<path d="M90.8989 76.2812C91.4134 76.8295 92.1605 77.1518 92.9124 77.1488L90.8989 76.2812Z" fill="white"/>
<path d="M89.4165 70.1573C89.4165 70.1573 90.325 69.2319 91.3023 69.9573L89.4165 70.1573Z" fill="white"/>
<path d="M94.8169 69.7992C94.8169 69.7992 95.5826 69.019 96.4062 69.6305L94.8169 69.7992Z" fill="white"/>
<path d="M97.4829 85.909L105.542 89.8203L119.61 80.8633L123.508 85.374C123.508 85.374 112.784 97.429 107.697 98.4153C106.307 98.6846 99.0144 94.9022 99.0144 94.9022" fill="white"/>
<path d="M129.047 80.0381C128.75 80.3707 128.427 80.6768 128.072 80.9509C127.146 81.6564 125.119 83.1536 124.049 83.5404C123.864 83.7157 123.689 83.8862 123.523 84.0573C123.446 84.129 123.375 84.2055 123.302 84.2778C122.893 84.6911 122.52 85.105 122.183 85.5183C122.165 85.5141 122.151 85.5093 122.138 85.5002C121.63 85.2393 121.288 84.7899 121.288 84.7899C120.474 83.9404 119.926 83.0186 119.58 82.0342C119.58 82.0342 119.561 81.9757 119.539 81.8902C119.53 81.8498 119.517 81.8046 119.508 81.751C119.656 81.5311 119.831 81.2564 120.011 80.9599C120.061 80.8792 120.106 80.7979 120.151 80.7171C120.591 79.9665 121.005 79.1031 121.068 78.4693C121.207 77.0758 121.288 73.9959 122.191 74.2254C123.09 74.4592 123.823 76.3293 123.594 77.7048C123.594 77.7048 126.252 75.5635 126.724 73.644C126.724 73.644 126.996 72.4674 127.705 73.0627C127.921 73.2446 127.708 75.3671 127.325 75.9293C127.555 75.6413 128.499 74.4905 128.669 74.1399C128.881 73.7308 129.739 73.8748 129.343 75.3268L129.347 75.3226C129.41 75.2954 129.869 75.0617 130.125 75.3226C130.44 75.6509 129.95 76.6353 129.905 76.7209C129.95 76.6896 130.264 76.442 130.624 76.7884C131.222 77.377 129.833 79.135 129.046 80.0388L129.047 80.0381Z" fill="white"/>
<path d="M123.592 77.7051C123.592 77.7051 123.402 79.0878 122.861 79.7433L123.592 77.7051Z" fill="white"/>
<path d="M129.348 75.3223C129.348 75.3223 128.64 76.3374 127.792 77.0562L129.348 75.3223Z" fill="white"/>
<path d="M129.903 76.7266C129.903 76.7266 128.946 77.8122 128.276 78.3316L129.903 76.7266Z" fill="white"/>
<path d="M101.145 126.247C101.145 127.29 100.299 128.136 99.2554 128.136H82.6638C81.6203 128.136 80.7744 127.29 80.7744 126.247C80.7744 125.203 81.6203 124.357 82.6638 124.357H99.2554C100.299 124.357 101.145 125.203 101.145 126.247Z" fill="white"/>
<path d="M87.1231 126.891V168.367C87.1231 169.317 86.3537 170.04 85.4476 170.04H79.8331C78.9276 170.04 78.1576 169.317 78.1576 168.367V135.947C73.2673 135.947 69.2373 131.963 69.2373 127.026C69.2373 122.089 73.2673 118.107 78.1576 118.107C83.0479 118.107 87.0321 122.001 87.1225 126.891H87.1231Z" fill="white"/>
<path d="M79.8329 170.04H51.3525C50.447 170.04 49.677 169.317 49.677 168.367V135.947C44.7873 135.947 40.7573 131.963 40.7573 127.026C40.7573 122.089 44.7873 118.107 49.677 118.107H78.1574C73.2671 118.107 69.2371 122.092 69.2371 127.026C69.2371 131.96 73.2671 135.947 78.1574 135.947V168.367C78.1574 169.317 78.9267 170.04 79.8329 170.04Z" fill="#F5F5F5"/>
<path d="M32.0904 19.5039H9.80713V49.4784H32.0904V19.5039Z" fill="white"/>
<path d="M28.5423 23.1328H13.355V45.8517H28.5423V23.1328Z" fill="#46C671"/>
<path d="M62.1944 14.2441H32.0903V54.7385H62.1944V14.2441Z" fill="white"/>
<path d="M57.4002 19.1465H36.8828V49.8397H57.4002V19.1465Z" fill="#46C671"/>
<path d="M84.4766 19.5039H62.1934V49.4784H84.4766V19.5039Z" fill="white"/>
<path d="M80.9285 23.1328H65.7412V45.8517H80.9285V23.1328Z" fill="#46C671"/>
<path d="M26.6348 23.1328H13.355V43.1568H26.6348V23.1328Z" fill="#46C671"/>
<path d="M79.021 23.1328H65.7412V43.1568H79.021V23.1328Z" fill="#46C671"/>
<path d="M52.1359 26.7305H42.1475V42.2545H52.1359V26.7305Z" fill="white"/>
<path d="M23.2775 29.8379H18.6191V39.1498H23.2775V29.8379Z" fill="white"/>
<path d="M75.6637 29.8379H71.0054V39.1498H75.6637V29.8379Z" fill="white"/>
<path d="M175.199 51.8233V72.5961C175.199 73.2407 174.676 73.7631 174.032 73.7631H150.256L142.773 79.8867C142.348 80.2343 141.711 79.9319 141.711 79.3836V73.7631H137.645C137 73.7631 136.478 73.2407 136.478 72.5961V51.8233C136.478 51.1786 137 50.6562 137.645 50.6562H174.032C174.676 50.6562 175.199 51.1786 175.199 51.8233Z" fill="white"/>
<path d="M172.56 54.3676V69.8362C172.56 70.3176 172.166 70.7026 171.684 70.7026H139.989C139.507 70.7026 139.113 70.3176 139.113 69.8362V54.3676C139.113 53.8862 139.507 53.4922 139.989 53.4922H171.684C172.166 53.4922 172.56 53.8862 172.56 54.3676Z" fill="#46C671"/>
<path d="M169.621 56.5874H158.095C157.998 56.5874 157.919 56.5085 157.919 56.4109C157.919 56.3133 157.998 56.2344 158.095 56.2344H169.621C169.718 56.2344 169.797 56.3133 169.797 56.4109C169.797 56.5085 169.718 56.5874 169.621 56.5874Z" fill="white"/>
<path d="M156.483 56.5874H147.697C147.599 56.5874 147.52 56.5085 147.52 56.4109C147.52 56.3133 147.599 56.2344 147.697 56.2344H156.483C156.581 56.2344 156.66 56.3133 156.66 56.4109C156.66 56.5085 156.581 56.5874 156.483 56.5874Z" fill="white"/>
<path d="M146.095 56.5874H141.157C141.06 56.5874 140.981 56.5085 140.981 56.4109C140.981 56.3133 141.06 56.2344 141.157 56.2344H146.095C146.192 56.2344 146.271 56.3133 146.271 56.4109C146.271 56.5085 146.192 56.5874 146.095 56.5874Z" fill="white"/>
<path d="M169.621 60.3804H164.328C164.231 60.3804 164.152 60.3015 164.152 60.2039C164.152 60.1063 164.231 60.0273 164.328 60.0273H169.621C169.719 60.0273 169.798 60.1063 169.798 60.2039C169.798 60.3015 169.719 60.3804 169.621 60.3804Z" fill="white"/>
<path d="M162.707 60.3804H153.145C153.048 60.3804 152.969 60.3015 152.969 60.2039C152.969 60.1063 153.048 60.0273 153.145 60.0273H162.707C162.805 60.0273 162.884 60.1063 162.884 60.2039C162.884 60.3015 162.805 60.3804 162.707 60.3804Z" fill="white"/>
<path d="M151.365 60.3804H141.157C141.06 60.3804 140.981 60.3015 140.981 60.2039C140.981 60.1063 141.06 60.0273 141.157 60.0273H151.365C151.463 60.0273 151.542 60.1063 151.542 60.2039C151.542 60.3015 151.463 60.3804 151.365 60.3804Z" fill="white"/>
<path d="M169.621 64.1734H158.292C158.194 64.1734 158.115 64.0944 158.115 63.9968C158.115 63.8992 158.194 63.8203 158.292 63.8203H169.621C169.718 63.8203 169.797 63.8992 169.797 63.9968C169.797 64.0944 169.718 64.1734 169.621 64.1734Z" fill="white"/>
<path d="M156.813 64.1734H145.943C145.845 64.1734 145.766 64.0944 145.766 63.9968C145.766 63.8992 145.845 63.8203 145.943 63.8203H156.813C156.911 63.8203 156.99 63.8992 156.99 63.9968C156.99 64.0944 156.911 64.1734 156.813 64.1734Z" fill="white"/>
<path d="M144.599 64.1734H141.157C141.06 64.1734 140.981 64.0944 140.981 63.9968C140.981 63.8992 141.06 63.8203 141.157 63.8203H144.599C144.696 63.8203 144.775 63.8992 144.775 63.9968C144.775 64.0944 144.696 64.1734 144.599 64.1734Z" fill="white"/>
<path d="M169.621 67.9644H163.687C163.59 67.9644 163.511 67.8855 163.511 67.7879C163.511 67.6903 163.59 67.6113 163.687 67.6113H169.621C169.719 67.6113 169.798 67.6903 169.798 67.7879C169.798 67.8855 169.719 67.9644 169.621 67.9644Z" fill="white"/>
<path d="M162.476 67.9644H152.682C152.585 67.9644 152.506 67.8855 152.506 67.7879C152.506 67.6903 152.585 67.6113 152.682 67.6113H162.476C162.573 67.6113 162.652 67.6903 162.652 67.7879C162.652 67.8855 162.573 67.9644 162.476 67.9644Z" fill="white"/>
<path d="M151.25 67.9644H141.157C141.06 67.9644 140.981 67.8855 140.981 67.7879C140.981 67.6903 141.06 67.6113 141.157 67.6113H151.25C151.347 67.6113 151.426 67.6903 151.426 67.7879C151.426 67.8855 151.347 67.9644 151.25 67.9644Z" fill="white"/>
<path d="M259.236 176.746C259.236 177.575 243.343 178.243 223.748 178.243C204.153 178.243 191.225 178.175 191.225 177.346C191.225 176.517 204.148 175.25 223.748 175.25C243.347 175.25 259.236 175.918 259.236 176.747V176.746Z" fill="#F5F5F5"/>
<path d="M258.418 52.3691H247.237V172.473H258.418V52.3691Z" fill="#E1E5E2"/>
<path d="M247.238 52.3691H193.979V172.473H247.238V52.3691Z" fill="white"/>
<path d="M243.783 113.582H197.434V137.923H243.783V113.582Z" fill="white"/>
<path d="M243.783 85.1465H197.434V109.488H243.783V85.1465Z" fill="white"/>
<path d="M243.783 56.7109H197.434V81.0523H243.783V56.7109Z" fill="white"/>
<path d="M247.238 48.1719H191.646V52.6139H247.238V48.1719Z" fill="#4A4748"/>
<path d="M247.237 50.084H191.646V52.6144H247.237V50.084Z" fill="#231F20"/>
<path d="M259.821 48.1719H247.238V52.6139H259.821V48.1719Z" fill="white"/>
<path d="M254.195 172.473H250.368V176.745H254.195V172.473Z" fill="white"/>
<path d="M256.558 172.473H254.195V176.745H256.558V172.473Z" fill="#E1E5E2"/>
<path d="M240.741 172.473H236.914V176.745H240.741V172.473Z" fill="white"/>
<path d="M243.104 172.473H240.741V176.745H243.104V172.473Z" fill="#E1E5E2"/>
<path d="M214.018 172.473H210.191V176.745H214.018V172.473Z" fill="white"/>
<path d="M216.382 172.473H214.02V176.745H216.382V172.473Z" fill="#E1E5E2"/>
<path d="M200.033 172.473H196.207V176.745H200.033V172.473Z" fill="white"/>
<path d="M202.398 172.473H200.035V176.745H202.398V172.473Z" fill="#E1E5E2"/>
<path d="M208.614 56.7109H197.434V81.0523H208.614V56.7109Z" fill="#E1E5E2"/>
<path d="M208.614 85.1465H197.434V109.488H208.614V85.1465Z" fill="#E1E5E2"/>
<path d="M208.614 113.582H197.434V137.923H208.614V113.582Z" fill="#E1E5E2"/>
<path d="M243.781 113.582H208.613V137.923H243.781V113.582Z" fill="#F5F5F5"/>
<path d="M208.614 142.018H197.434V166.359H208.614V142.018Z" fill="#E1E5E2"/>
<path d="M243.781 142.02H208.613V166.36H243.781V142.02Z" fill="#F5F5F5"/>
<path d="M243.781 56.7109H208.613V81.0517H243.781V56.7109Z" fill="#F5F5F5"/>
<path d="M243.781 85.1445H208.613V109.485H243.781V85.1445Z" fill="#F5F5F5"/>
<path d="M239.166 73.4453H231.809V81.0504H239.166V73.4453Z" fill="#E1E5E2"/>
<path d="M231.809 73.4453H213.227V81.0504H231.809V73.4453Z" fill="white"/>
<path d="M239.166 129.457H231.81V137.922H239.166V129.457Z" fill="#E1E5E2"/>
<path d="M231.81 129.457H213.228V137.922H231.81V129.457Z" fill="white"/>
<path d="M239.167 151.092H231.81V166.359H239.167V151.092Z" fill="#E1E5E2"/>
<path d="M231.81 151.092H213.228V166.359H231.81V151.092Z" fill="white"/>
<path d="M239.924 127.059H232.138V129.458H239.924V127.059Z" fill="#E1E5E2"/>
<path d="M232.138 127.059H212.47V129.458H232.138V127.059Z" fill="#231F20"/>
<path d="M229.819 65.8398H222.748V73.4449H229.819V65.8398Z" fill="#E1E5E2"/>
<path d="M222.747 65.8398H213.227V73.4449H222.747V65.8398Z" fill="white"/>
<path d="M231.809 151.092H213.227V166.359H231.809V151.092Z" fill="white"/>
<path d="M224.687 151.092H220.352V155.886H224.687V151.092Z" fill="#231F20"/>
<path d="M24.5677 91.1191H20.7378V168.622H24.5677V91.1191Z" fill="white"/>
<path d="M35.8651 110.395C36.3768 110.395 36.7917 109.797 36.7917 109.06C36.7917 108.322 36.3768 107.725 35.8651 107.725C35.3533 107.725 34.9385 108.322 34.9385 109.06C34.9385 109.797 35.3533 110.395 35.8651 110.395Z" fill="#46C671"/>
<path d="M40.757 94.6832C40.757 99.8374 7.74422 99.9844 5.82955 95.1303C5.7693 94.9887 5.74219 94.8357 5.74219 94.6832L11.3163 74.1797H35.1829L35.2594 74.4303L40.757 94.6832Z" fill="white"/>
<path d="M40.7566 94.6812C40.7566 99.8354 7.74378 99.9824 5.8291 95.1283C7.59075 95.1283 9.41264 95.2156 11.0484 94.7192C11.5882 94.5499 12.1334 94.3155 12.6955 94.3481C13.3119 94.3752 13.8571 94.7084 14.4301 94.9319C15.6953 95.4283 17.1623 95.3958 18.4058 94.8337C19.2294 94.4625 19.9548 93.8793 20.8164 93.5902C23.3359 92.7611 26.4778 94.6535 28.5829 93.0449C30.7807 91.376 29.777 87.3726 31.9863 85.72C32.4936 85.3434 33.1208 85.1416 33.6064 84.7379C34.6589 83.871 34.8119 80.2362 34.73 78.8728C34.648 77.5094 34.43 76.0641 35.0138 74.826C35.0794 74.6844 35.1608 74.553 35.259 74.4277L40.7566 94.6806" fill="#F5F5F5"/>
<path d="M23.2364 76.5015C29.821 76.5015 35.1588 75.4606 35.1588 74.1765C35.1588 72.8925 29.821 71.8516 23.2364 71.8516C16.6518 71.8516 11.314 72.8925 11.314 74.1765C11.314 75.4606 16.6518 76.5015 23.2364 76.5015Z" fill="#231F20"/>
<path d="M44.1944 173.285H1.11182V176.226H44.1944V173.285Z" fill="white"/>
<path d="M5.75438 176.227H3.64209V179.475H5.75438V176.227Z" fill="#E1E5E2"/>
<path d="M7.87802 176.227H5.75488V179.475H7.87802V176.227Z" fill="white"/>
<path d="M15.9946 176.227H13.8823V179.475H15.9946V176.227Z" fill="#E1E5E2"/>
<path d="M18.1187 176.227H15.9956V179.475H18.1187V176.227Z" fill="white"/>
<path d="M30.0268 176.227H27.9146V179.475H30.0268V176.227Z" fill="#E1E5E2"/>
<path d="M32.15 176.227H30.0269V179.475H32.15V176.227Z" fill="white"/>
<path d="M40.2656 176.227H38.1533V179.475H40.2656V176.227Z" fill="#E1E5E2"/>
<path d="M42.3892 176.225H40.2661V179.473H42.3892V176.225Z" fill="white"/>
<path d="M175.696 157.146C175.298 157.408 175.293 158.089 175.692 158.704C175.934 159.083 176.277 159.35 176.604 159.421C176.66 159.436 176.721 159.441 176.771 159.441C176.896 159.441 177.007 159.411 177.109 159.345C177.25 159.254 177.345 159.109 177.386 158.922C177.456 158.594 177.356 158.17 177.109 157.792C176.715 157.177 176.095 156.894 175.696 157.147V157.146ZM177.043 158.845C177.018 158.941 176.977 159.007 176.917 159.047C176.857 159.087 176.776 159.098 176.68 159.077C176.443 159.027 176.176 158.81 175.989 158.513C175.687 158.043 175.692 157.569 175.889 157.443C175.924 157.418 175.974 157.408 176.03 157.408C176.246 157.408 176.569 157.605 176.812 157.983C177.003 158.281 177.094 158.608 177.043 158.845H177.043Z" fill="#3C4150"/>
<path d="M179.802 155.46C179.908 155.46 180.018 155.45 180.135 155.43C180.77 155.309 181.209 154.89 181.134 154.472C181.053 154.053 180.488 153.821 179.853 153.942C179.263 154.053 178.844 154.421 178.844 154.804C178.844 154.84 178.849 154.87 178.854 154.9C178.92 155.243 179.314 155.46 179.803 155.46H179.802ZM179.918 154.29C180.387 154.204 180.75 154.351 180.79 154.532C180.82 154.724 180.533 154.996 180.069 155.082C179.6 155.173 179.237 155.022 179.202 154.835C179.166 154.648 179.469 154.376 179.918 154.29V154.29Z" fill="#3C4150"/>
<path d="M189.167 158.486C188.613 158.41 185.733 158.158 183.438 160.332C180.936 162.692 180.805 163.433 180.8 163.549C180.911 164.402 180.921 165.713 180.594 165.955C180.568 165.975 180.543 165.985 180.533 165.985C180.438 165.955 180.306 165.632 180.236 165.456C180.115 165.153 180.019 164.911 179.817 164.86C179.766 164.85 179.661 164.84 179.55 164.936C179.08 165.33 177.88 169.445 179.524 172.239C179.526 172.243 179.528 172.247 179.53 172.25C179.526 172.374 179.526 172.499 179.526 172.623H178.28L178.17 163.5C178.17 163.5 178.172 163.499 178.172 163.499C180.295 161.85 181.208 158.849 181.243 158.722C181.258 158.677 181.253 158.627 181.228 158.581C181.203 158.541 181.162 158.511 181.117 158.501C181.107 158.496 180.053 158.233 180.018 157.598C180.013 157.502 180.038 157.426 180.103 157.366C180.356 157.124 181.056 157.149 181.303 157.179C181.399 157.19 181.49 157.119 181.5 157.023C181.702 155.449 181.53 152.065 181.525 151.924C181.52 151.838 181.459 151.773 181.374 151.758C181.288 151.743 181.212 151.793 181.182 151.874C181.097 152.101 180.497 152.605 179.932 152.661C179.609 152.696 179.367 152.575 179.195 152.297C178.918 151.859 179.145 151.647 179.775 151.238C180.144 150.996 180.532 150.744 180.658 150.35C180.9 149.599 179.589 148.545 178.338 147.617C178.172 147.491 178.036 147.39 177.945 147.319C177.804 147.198 177.617 147.173 177.425 147.238C176.744 147.481 175.938 148.959 175.589 150.603C175.332 151.844 175.811 152.781 176.2 153.533C176.467 154.058 176.704 154.512 176.603 154.915C176.553 155.132 176.472 155.263 176.387 155.268C176.195 155.289 175.741 154.819 175.444 154.159C175.348 153.946 175.005 153.256 174.556 153.367C174.259 153.443 173.886 153.846 174.057 156.499C174.294 160.209 177.326 163.057 177.818 163.498L177.928 172.623H177.199C177.14 172.323 177.07 172.027 176.99 171.734C176.99 171.731 176.991 171.729 176.993 171.726C178.062 168.664 176.08 164.862 175.545 164.564C175.419 164.493 175.313 164.524 175.268 164.543C175.081 164.634 175.036 164.886 174.976 165.209C174.94 165.396 174.875 165.739 174.784 165.784C174.774 165.789 174.748 165.784 174.718 165.769C174.35 165.592 174.103 164.306 174.037 163.414C174.017 163.338 173.745 162.637 170.835 160.806C167.854 158.93 165.02 160.055 164.903 160.105C164.812 160.141 164.767 160.241 164.803 160.332L165.585 162.38C165.61 162.446 165.676 162.491 165.746 162.491C166.972 162.521 168.318 162.753 168.374 163.056C168.374 163.076 168.374 163.096 168.348 163.131C168.116 163.414 167.007 163.56 166.361 163.585C166.306 163.585 166.25 163.62 166.22 163.671C166.19 163.726 166.185 163.787 166.215 163.843C167.441 166.213 171.077 167.762 171.234 167.827C171.299 167.852 171.375 167.842 171.425 167.787C171.693 167.514 172.489 166.864 172.958 167.126C173.044 167.177 173.059 167.227 173.064 167.267C173.1 167.57 172.605 168.14 172.288 168.427C172.247 168.463 172.228 168.518 172.228 168.568C172.232 168.623 172.258 168.674 172.304 168.704L176.643 171.788C176.719 172.063 176.787 172.341 176.843 172.623H171.809C171.446 172.623 171.149 172.92 171.149 173.284V174.706C171.149 175.074 171.446 175.372 171.809 175.372H172.112L172.631 183.326V183.341L172.676 183.987C172.707 184.481 173.12 184.869 173.615 184.869H182.683C182.809 184.869 182.925 184.844 183.036 184.799C183.147 184.758 183.243 184.693 183.328 184.612C183.5 184.455 183.611 184.234 183.626 183.987L183.666 183.341V183.326L184.186 175.372H184.493C184.857 175.372 185.154 175.074 185.154 174.706V173.284C185.154 172.92 184.857 172.623 184.493 172.623H179.88C179.88 172.493 179.88 172.364 179.883 172.235L183.54 168.361C183.576 168.326 183.591 168.27 183.586 168.22C183.575 168.165 183.545 168.119 183.5 168.089C183.132 167.872 182.537 167.408 182.511 167.106C182.507 167.061 182.511 167.01 182.587 166.944C182.995 166.596 183.903 167.08 184.221 167.297C184.276 167.333 184.352 167.338 184.412 167.297C184.563 167.202 188.175 164.932 188.911 162.365C188.931 162.299 188.911 162.229 188.866 162.184C188.815 162.138 188.745 162.123 188.684 162.148C188.029 162.375 186.838 162.637 186.435 162.355C186.339 162.289 186.294 162.193 186.294 162.062C186.294 161.785 187.479 161.316 188.942 161.014C189.017 160.998 189.073 160.938 189.083 160.862L189.319 158.678C189.33 158.583 189.264 158.497 189.168 158.487L189.167 158.486ZM174.41 156.478C174.238 153.84 174.637 153.714 174.642 153.709H174.652C174.728 153.709 174.939 153.901 175.121 154.304C175.338 154.783 175.888 155.676 176.423 155.621C176.675 155.595 176.852 155.389 176.947 155C177.079 154.471 176.816 153.961 176.514 153.371C176.135 152.629 175.702 151.793 175.939 150.673C176.287 149.033 177.049 147.748 177.543 147.571C177.643 147.535 177.689 147.561 177.724 147.591C177.815 147.667 177.956 147.767 178.128 147.899C178.778 148.383 180.508 149.669 180.321 150.244C180.236 150.517 179.903 150.733 179.58 150.94C179.06 151.283 178.41 151.706 178.894 152.483C179.136 152.876 179.515 153.058 179.968 153.013C180.427 152.962 180.891 152.695 181.194 152.417C181.234 153.381 181.3 155.57 181.174 156.81C180.846 156.795 180.191 156.8 179.862 157.108C179.721 157.239 179.65 157.416 179.666 157.617C179.706 158.323 180.488 158.666 180.851 158.787C180.639 159.418 179.787 161.652 178.178 163.034C178.178 163.034 178.176 163.035 178.176 163.035C178.195 161.732 178.247 157.385 178.17 154.461C178.167 154.364 178.096 154.287 177.989 154.289C177.892 154.292 177.815 154.373 177.817 154.471C177.894 157.376 177.843 161.694 177.824 163.018C177.001 162.21 174.618 159.624 174.41 156.477L174.41 156.478ZM172.68 168.537C172.952 168.26 173.467 167.68 173.416 167.231C173.396 167.055 173.3 166.913 173.129 166.817C172.453 166.434 171.55 167.19 171.263 167.453C170.678 167.191 167.824 165.834 166.663 163.922C167.218 163.882 168.297 163.751 168.62 163.352C168.706 163.246 168.741 163.12 168.721 162.994C168.599 162.299 166.643 162.167 165.871 162.142L165.195 160.372C165.83 160.17 168.216 159.575 170.647 161.103C173.209 162.717 173.637 163.393 173.693 163.504C173.728 163.943 173.895 165.769 174.565 166.086C174.737 166.167 174.868 166.137 174.944 166.097C175.186 165.976 175.256 165.618 175.317 165.274C175.342 165.153 175.372 164.987 175.407 164.901C175.821 165.28 177.425 168.411 176.805 171.1V171.104C176.805 171.104 176.803 171.109 176.803 171.11C176.275 169.529 175.429 168.082 174.312 166.9C173.277 165.803 172.031 164.782 170.609 163.866C170.528 163.813 170.418 163.836 170.365 163.918C170.313 164 170.336 164.11 170.418 164.162C171.815 165.063 173.039 166.066 174.054 167.142C175.139 168.29 175.964 169.696 176.476 171.235L172.678 168.537H172.68ZM183.327 183.148H172.973L172.469 175.371H183.832L183.328 183.148H183.327ZM184.8 173.283V174.705C184.8 174.877 184.663 175.018 184.492 175.018H171.807C171.635 175.018 171.499 174.877 171.499 174.705V173.283C171.499 173.117 171.635 172.975 171.807 172.975H184.492C184.663 172.975 184.8 173.116 184.8 173.283ZM188.743 160.694C187.644 160.931 185.939 161.395 185.939 162.056V162.061C185.939 162.308 186.04 162.509 186.227 162.641C186.756 163.009 187.886 162.752 188.461 162.585C187.644 164.678 184.865 166.58 184.316 166.938C183.988 166.736 182.949 166.166 182.354 166.676C182.208 166.802 182.142 166.958 182.158 167.135C182.193 167.589 182.813 168.058 183.136 168.275L179.914 171.688C180.039 170.051 180.498 168.468 181.289 167.078C182.022 165.792 182.973 164.528 184.117 163.32C184.184 163.25 184.181 163.138 184.11 163.071C184.039 163.004 183.927 163.007 183.861 163.078C182.697 164.305 181.729 165.593 180.983 166.903C180.184 168.308 179.712 169.904 179.571 171.554C179.569 171.55 179.567 171.547 179.566 171.543C178.477 169.042 179.415 165.708 179.753 165.239C179.798 165.319 179.863 165.476 179.909 165.587C180.04 165.915 180.176 166.247 180.438 166.323C180.519 166.348 180.655 166.353 180.806 166.238C181.402 165.799 181.215 163.973 181.155 163.534C181.19 163.413 181.477 162.667 183.681 160.589C185.683 158.692 188.15 158.743 188.952 158.813L188.745 160.695L188.743 160.694Z" fill="#231F20"/>
<path d="M170.784 127.023C170.784 122.01 166.704 117.93 161.691 117.93H137.633L143.716 103.374C143.963 102.774 143.902 102.093 143.544 101.548C143.186 101.009 142.585 100.681 141.935 100.671L121.358 100.484C120.44 99.1271 118.816 98.3505 117.136 98.5523H107.897C112.385 97.5082 120.647 88.7934 123.642 85.4894C123.642 85.4846 123.642 85.4792 123.647 85.4792C123.909 85.0857 123.854 84.5712 123.718 84.1073C123.854 83.9711 123.995 83.8302 124.147 83.6886C125.211 83.2904 127.127 81.8932 128.181 81.0859C128.534 80.8136 128.867 80.5009 129.18 80.1526V80.1478C130.749 78.3524 131.273 77.177 130.749 76.6577C130.587 76.501 130.411 76.4257 130.234 76.4257C130.38 76.0425 130.526 75.4822 130.254 75.1949C130.133 75.0738 129.931 74.9677 129.588 75.0484C129.754 74.105 129.331 73.8531 129.184 73.7977C128.932 73.6965 128.64 73.8079 128.514 74.0598C128.423 74.2363 128.11 74.655 127.803 75.043C127.984 74.1857 128.045 73.1163 127.818 72.9247C127.535 72.6825 127.304 72.6928 127.157 72.7434C126.728 72.8843 126.567 73.5254 126.552 73.5959C126.199 75.0382 124.524 76.6474 123.808 77.2824C123.848 75.951 123.187 74.2966 122.234 74.0495C122.078 74.0092 121.922 74.0393 121.79 74.1351C121.25 74.5237 121.089 75.9913 120.953 77.7259C120.882 78.588 120.917 79.032 120.045 80.54C119.515 80.5756 120.64 80.0406 105.529 89.6134L97.5556 85.7448H97.5508C95.5891 84.6098 93.319 83.8687 90.944 83.5813V80.3436C93.2436 80.0358 95.1854 78.044 96.0831 75.3003C96.3356 75.4063 96.5976 75.4666 96.87 75.4666C98.3882 75.4666 99.6239 73.676 99.6239 71.4721C99.6239 69.5153 98.6557 67.891 97.3742 67.5434C97.7628 63.317 94.9836 58.7478 86.2682 59.6401C77.1346 60.5781 79.036 74.0038 79.9939 78.735C80.1855 79.693 81.0278 80.3744 82.0014 80.3744H84.3011V82.9518L84.0793 82.9313C83.7215 82.9867 75.2434 84.3031 73.0642 86.6835C72.1665 87.6619 71.5918 89.5784 71.2387 92.045L70.0434 98.5511H54.9381C52.4818 98.8487 50.7219 101.088 51.019 103.549L52.7487 117.929H49.6772C44.6592 117.929 40.5786 122.009 40.5786 127.022C40.5786 132.035 44.5628 136.025 49.5007 136.12V168.364C49.5007 169.383 50.3279 170.215 51.3515 170.215H54.4332V174.436C54.4332 174.537 54.5091 174.613 54.6097 174.613H60.5104C60.611 174.613 60.6869 174.537 60.6869 174.436V170.215H71.4803V174.436C71.4803 174.537 71.5611 174.613 71.6569 174.613H77.5629C77.6587 174.613 77.7395 174.537 77.7395 174.436V170.215H85.4458C86.4646 170.215 87.2966 169.383 87.2966 168.364V168.303C87.8515 169.433 89.0112 170.209 90.353 170.209C94.166 170.209 103.94 170.209 113.604 170.214L115.041 174.789C115.43 176.065 116.373 177.033 117.553 177.487L117.926 179.939H117.83C117.411 179.939 117.054 180.236 116.978 180.64C116.872 181.215 116.519 183.197 116.499 184.528C116.478 185.462 116.635 186.243 116.943 186.874C116.681 187 116.494 187.267 116.494 187.58V188.326C116.494 188.533 116.666 188.699 116.872 188.699H119.788C119.838 188.699 119.894 188.695 119.944 188.679L121.659 188.149C121.704 188.134 121.744 188.139 121.785 188.154L123.177 188.784C123.247 188.814 123.323 188.829 123.398 188.829C133.435 188.774 133.072 188.946 133.293 188.698H134.242C134.292 188.698 134.348 188.693 134.398 188.678L136.118 188.148C136.158 188.133 136.203 188.138 136.244 188.153L137.635 188.783C137.706 188.813 137.776 188.828 137.852 188.828H147.47C147.677 188.828 147.849 188.657 147.849 188.45V187.371C147.849 187.149 147.723 186.967 147.541 186.867C147.556 185.45 146.673 184.34 144.948 184.315C144.646 184.31 144.318 184.239 143.97 184.102C143.077 183.754 142.159 183.028 141.377 182.272C140.595 181.515 139.95 180.729 139.587 180.269C139.421 180.057 139.174 179.937 138.906 179.937H138.714L138.281 177.672C138.845 177.435 139.128 176.865 139.047 176.315L138.79 174.61H141.745C141.846 174.61 141.921 174.535 141.921 174.434V170.212H152.714V174.434C152.714 174.534 152.79 174.61 152.891 174.61H158.791C158.892 174.61 158.968 174.535 158.968 174.434V170.212H160.012C161.031 170.212 161.863 169.38 161.863 168.361V136.118C166.795 136.022 170.78 131.977 170.78 127.019L170.784 127.023ZM159.128 118.283C159.083 118.298 159.032 118.308 158.987 118.328C155.437 119.306 152.628 122.726 152.547 126.887V142.159C152.259 141.796 151.811 141.564 151.311 141.564H132.549L130.941 133.091C130.653 131.129 129.614 129.444 128.131 128.309H134.32C135.46 128.309 136.388 127.382 136.388 126.242C136.388 125.334 135.792 124.567 134.971 124.295L137.482 118.283H159.129H159.128ZM152.547 143.157V149.674C152.547 150.359 151.992 150.914 151.311 150.914H134.325L132.615 141.917H151.311C151.992 141.917 152.547 142.472 152.547 143.158V143.157ZM141.935 101.024C142.475 101.035 142.954 101.297 143.251 101.745C143.544 102.194 143.599 102.739 143.387 103.238L134.637 124.179H98.1671L98.9588 122.257C100.109 122.576 101.233 122.736 102.156 122.736C103.215 122.736 104.017 122.535 104.33 122.151C104.521 121.915 104.623 121.526 104.168 120.977C104.718 120.966 105.046 120.83 105.157 120.563C105.323 120.149 104.885 119.615 104.562 119.292C105.172 119.176 105.505 118.964 105.576 118.641C105.676 118.182 105.162 117.683 104.749 117.365C105.893 117.29 106.564 116.977 106.569 116.488C106.58 115.711 104.895 115.101 102.363 114.914C103.22 114.546 103.613 114.006 103.548 113.557C103.507 113.28 103.28 113.017 102.801 112.902L107.048 102.582C107.518 101.453 108.607 100.731 109.827 100.731H109.863L141.935 101.024ZM101.319 115.211C104.789 115.307 106.217 116.079 106.217 116.483C106.217 116.695 105.672 117.027 104.22 117.027L101.799 116.477C101.703 116.452 101.612 116.513 101.587 116.609C101.567 116.704 101.627 116.795 101.723 116.821L104.133 117.371C104.638 117.683 105.303 118.249 105.228 118.566C105.158 118.904 104.194 118.98 104.144 118.995C104.083 118.96 104.275 119.02 101.657 118.415C101.557 118.394 101.466 118.455 101.445 118.551C101.42 118.647 101.481 118.738 101.577 118.763C102.978 119.076 103.977 119.328 104.073 119.318C104.441 119.631 104.926 120.19 104.83 120.428C104.805 120.488 104.653 120.68 103.761 120.614L101.365 120.04C101.269 120.019 101.178 120.075 101.153 120.171C101.132 120.267 101.189 120.363 101.284 120.383L103.65 120.948C103.967 121.246 104.285 121.644 104.053 121.932C103.332 122.829 98.4852 122.466 95.2475 120.161C95.2071 120.136 95.5349 120.237 90.5168 118.794C91.1573 117.17 92.3676 115.93 94.1685 115.022L101.94 113.216C102.757 113.13 103.161 113.352 103.201 113.609C103.252 113.958 102.682 114.598 101.295 114.865C101.204 114.88 101.144 114.961 101.154 115.052C101.159 115.143 101.235 115.213 101.32 115.213L101.319 115.211ZM90.5717 121.022C90.8693 121.339 91.2476 121.526 91.6308 121.526C92.3568 121.526 92.937 120.896 93.5274 120.023L95.0655 120.461C96.1446 121.228 97.3905 121.783 98.6159 122.161L97.7839 124.179H86.8495C85.6241 120.442 82.1743 117.93 78.1594 117.93H72.2081C72.0117 115.963 71.8045 113.668 71.6231 111.217C76.3086 113.956 85.4271 118.187 90.5717 121.022ZM117.156 98.9054C118.674 98.7186 120.066 99.3747 120.923 100.479L109.863 100.378H109.827C108.466 100.378 107.25 101.185 106.72 102.446L102.443 112.851C102.277 112.841 102.101 112.841 101.894 112.861C101.884 112.861 101.879 112.866 101.869 112.866L101.289 113.002C101.011 107.968 100.714 103.157 100.396 98.9054H117.155H117.156ZM100.371 98.5529C100.295 97.554 100.22 96.5961 100.139 95.6683C102.005 96.6015 105.445 98.2402 107.084 98.5529H100.371ZM121.307 77.753C121.393 76.6281 121.544 74.7472 121.998 74.4243C122.043 74.3887 122.089 74.3791 122.149 74.3942C122.946 74.6008 123.632 76.3709 123.42 77.6674C123.42 77.6722 123.415 77.6722 123.415 77.6777C123.415 77.6927 123.228 79.0194 122.724 79.6297C122.664 79.7056 122.674 79.8165 122.749 79.8767C122.825 79.9376 122.936 79.9273 122.996 79.8514C123.501 79.2459 123.707 78.0964 123.758 77.7988C124.136 77.4813 126.446 75.5142 126.895 73.6832C126.935 73.5115 127.076 73.1434 127.268 73.0777C127.359 73.0476 127.464 73.088 127.576 73.1735C127.702 73.4109 127.535 75.3021 127.182 75.8269C127.127 75.9076 127.147 76.0136 127.223 76.069C127.299 76.1245 127.404 76.1094 127.465 76.0389L127.581 75.8925C128.121 75.222 128.691 74.5008 128.827 74.2182C128.968 73.9459 129.472 74.1526 129.18 75.2521C129.074 75.4033 128.429 76.2811 127.677 76.9216C127.607 76.9818 127.596 77.0933 127.657 77.1686C127.722 77.2439 127.833 77.2493 127.909 77.1891C128.686 76.5281 129.326 75.6509 129.462 75.4642C129.715 75.3533 129.906 75.3479 129.997 75.4437C130.158 75.6051 129.956 76.2408 129.754 76.6239C129.684 76.7047 128.791 77.7036 128.166 78.1874C128.09 78.2476 128.075 78.3591 128.136 78.4344C128.196 78.5151 128.307 78.5302 128.383 78.4693C129.043 77.9548 129.941 76.9463 130.022 76.8505C130.188 76.7396 130.345 76.7595 130.501 76.9113C130.844 77.2493 130.239 78.3994 128.917 79.9171C128.619 80.2502 128.296 80.5473 127.964 80.8099C126.915 81.607 125.003 83.0042 123.989 83.3723C123.964 83.3825 123.944 83.3928 123.929 83.4072C123.339 83.9669 122.653 84.6682 122.134 85.2936C121.447 84.9002 120.081 83.256 119.698 81.783C121.306 79.367 121.241 78.5705 121.306 77.753H121.307ZM97.3351 67.8982C98.4394 68.226 99.272 69.7039 99.272 71.4739C99.272 73.4814 98.1978 75.1153 96.8712 75.1153C96.6344 75.1153 96.4073 75.0599 96.1904 74.9641C96.4675 74.0007 96.629 72.9566 96.629 71.8625C96.629 71.4137 96.5934 70.9751 96.5434 70.5461C96.9368 69.7292 97.214 68.8261 97.3351 67.8982ZM96.2759 71.8625C96.2759 72.8916 96.1295 73.8748 95.8723 74.7828C95.0451 74.208 94.4703 72.9416 94.4703 71.4739C94.4703 70.9191 94.5558 70.3949 94.7022 69.9208C94.7324 69.9509 94.7727 69.9714 94.8185 69.9714C94.8643 69.9714 94.9095 69.9509 94.9444 69.9208C94.9643 69.8955 95.459 69.4111 96.0391 69.6231C96.1904 70.3443 96.2759 71.0908 96.2759 71.8625ZM95.6807 68.3115C95.7867 68.614 95.8825 68.9218 95.9578 69.2393C95.509 69.1538 95.0957 69.3454 94.8384 69.5418C95.0505 69.0321 95.3379 68.6086 95.6807 68.3109V68.3115ZM94.1624 65.6287C94.7372 66.2944 95.1963 67.0915 95.5445 67.9687C94.8233 68.5435 94.304 69.5773 94.1576 70.798L92.3725 70.7323C92.3423 69.7286 92.0598 68.8206 91.6109 68.1398C92.746 67.3277 93.5678 66.4451 94.163 65.6281L94.1624 65.6287ZM87.2683 70.2027C88.9227 69.7087 90.2487 69.0526 91.3236 68.3314C91.7573 68.9923 92.0248 69.9003 92.0248 70.9034C92.0248 72.9109 90.9458 74.5448 89.624 74.5448C88.3021 74.5448 87.2231 72.9109 87.2231 70.9034C87.2231 70.6612 87.2381 70.4292 87.2683 70.2021V70.2027ZM84.0203 74.6412C82.6436 74.6412 81.5291 73.7838 81.5291 72.7295C81.5291 71.9728 82.1092 71.2872 82.9666 70.9896C83.6426 70.9287 84.6662 70.798 85.5289 70.6263C85.9826 70.5353 86.4519 70.4244 86.9056 70.3033C86.8851 70.4949 86.87 70.6968 86.87 70.9034C86.87 73.1024 88.1057 74.8978 89.624 74.8978C91.1422 74.8978 92.3074 73.2031 92.3725 71.0847L94.1275 71.1504C94.1227 71.2565 94.1172 71.3625 94.1172 71.4733C94.1172 73.1073 94.798 74.5147 95.7716 75.1352C94.8487 78.0151 92.7556 80.0321 90.3198 80.0321C87.884 80.0321 85.609 77.8988 84.7367 74.7261C84.7168 74.6454 84.6457 74.5948 84.5704 74.5948C84.5704 74.5948 84.3179 74.64 84.0209 74.64L84.0203 74.6412ZM90.5921 80.3707V83.7247L90.5415 87.4619H86.2296L84.6559 83.0789V75.6196C85.7048 78.5043 87.9039 80.3906 90.3198 80.3906C90.4108 80.3906 90.5012 80.3756 90.5921 80.3701V80.3707ZM71.9105 90.3622C71.9153 90.3369 71.9105 90.3171 71.9105 90.2918C72.2437 88.7789 72.7022 87.6035 73.3275 86.9227C75.4205 84.6327 84.0498 83.2916 84.0902 83.2813L84.3577 83.3066L85.9464 87.715C86.1428 88.2698 85.9416 87.6999 90.2891 100.026C90.3144 100.096 90.3801 100.142 90.4554 100.142H90.4855C90.4903 100.142 90.4957 100.132 90.5006 100.132C90.5156 100.137 90.5259 100.142 90.5409 100.142H90.571C90.6566 100.127 90.7175 100.057 90.7175 99.9706C90.8789 88.2747 90.9241 84.9508 90.9343 84.1543C90.9392 84.1139 90.9392 84.0483 90.9392 83.9374C93.3147 84.235 95.5843 84.9815 97.5261 86.1365H97.5514L105.465 89.9797C105.52 90.005 105.586 90.0002 105.637 89.9694L119.279 81.2847C119.274 81.4715 119.315 81.7185 119.36 81.8902L119.37 81.9354C119.834 83.7055 121.746 85.6725 122.104 85.6725C122.22 85.7129 122.467 85.8539 122.835 85.8539C120.601 88.2849 111.992 97.4034 107.664 98.2409C106.56 98.4529 101.107 95.7894 99.0949 94.7459C99.0094 94.7007 98.9033 94.7308 98.8581 94.8218C98.813 94.9073 98.8479 95.0134 98.9341 95.0586C99.06 95.1242 99.3576 95.2755 99.7715 95.4821C100.241 101.206 100.569 106.412 100.942 113.084L94.5516 114.577L78.6643 105.504C78.9974 104.087 80.7169 96.7985 81.0501 95.3761C81.0754 95.2803 81.0145 95.1845 80.9188 95.164C80.823 95.1387 80.7272 95.1995 80.7067 95.2953C80.2934 97.0401 78.7601 103.561 78.3462 105.307L77.0551 104.49C76.9743 104.439 76.8635 104.464 76.808 104.545C76.7574 104.626 76.7827 104.737 76.8635 104.787L78.3715 105.741H78.3763L94.0468 114.693C92.1604 115.641 89.6637 117.789 90.0071 119.832V119.837C90.0577 120.114 90.1481 120.347 90.1686 120.402C85.0295 117.614 75.6935 113.261 71.361 110.653C69.712 109.66 68.8089 107.784 69.0614 105.882L69.0662 105.842V105.837C69.0694 105.833 69.071 105.83 69.071 105.827V105.816C69.0758 105.806 69.0758 105.796 69.0813 105.776V105.761C69.0861 105.746 69.0915 105.731 69.0915 105.71V105.7C69.0963 105.695 69.0963 105.69 69.0963 105.685V105.68C69.1011 105.675 69.1011 105.67 69.1011 105.67V105.66C69.2475 104.878 69.8374 101.645 71.9105 90.3628V90.3622ZM69.9838 98.9054L68.7125 105.825C68.4402 107.878 69.4084 109.89 71.1791 110.955C71.1941 110.965 71.2146 110.975 71.2345 110.985C71.4213 113.522 71.6328 115.898 71.84 117.93H61.7985L59.9423 102.482C59.7404 100.963 58.8831 99.6525 57.2992 98.906H69.9838V98.9054ZM51.3684 103.511C51.0961 101.241 52.7198 99.1783 54.9845 98.906C57.2287 98.6337 59.3121 100.222 59.5892 102.522L61.44 117.93H53.1029L51.3678 103.51L51.3684 103.511ZM40.9335 127.023C40.9335 122.201 44.8574 118.283 49.6791 118.283H75.6428C71.8099 119.387 69.0608 122.938 69.0608 127.023C69.0608 131.108 71.8701 134.684 75.6832 135.769H49.6791C44.8574 135.769 40.9335 131.845 40.9335 127.023ZM57.3805 174.261H54.7881V170.216H57.3805V174.261ZM60.3411 174.261H57.7336V170.216H60.3411V174.261ZM74.4277 174.261H71.8352V170.216H74.4277V174.261ZM77.3882 174.261H74.7807V170.216H77.3882V174.261ZM51.3533 169.863C50.5261 169.863 49.8556 169.192 49.8556 168.365V136.122H77.9835V168.365C77.9835 168.965 78.316 169.55 78.745 169.863H51.3533ZM86.9453 168.365C86.9453 169.192 86.2748 169.863 85.4476 169.863H79.8343C79.0071 169.863 78.3365 169.192 78.3365 168.365V135.945C78.3365 135.849 78.2558 135.769 78.16 135.769C73.3384 135.769 69.4144 131.845 69.4144 127.023C69.4144 122.201 73.3384 118.283 78.16 118.283C82.9816 118.283 86.855 122.065 86.9459 126.892V168.365H86.9453ZM87.1574 125.419C87.102 125.117 87.0363 124.819 86.9556 124.532H99.257C100.2 124.532 100.967 125.298 100.967 126.242C100.967 127.185 100.2 127.956 99.257 127.956H87.299V127.063H88.2172C88.6708 127.063 89.0396 126.695 89.0396 126.242C89.0396 125.788 88.6714 125.419 88.2172 125.419H87.158H87.1574ZM87.2984 142.376V141.957C87.4147 141.957 87.5303 141.957 87.6412 141.962H87.6563C87.5153 142.083 87.3888 142.219 87.2984 142.376ZM88.3527 141.968C96.6091 142.058 103.761 142.159 104.794 142.174L107.543 150.915H88.6853C87.9997 150.915 87.4448 150.36 87.4448 149.674V143.158C87.4448 142.588 87.828 142.114 88.3527 141.968ZM90.3548 169.858C88.6702 169.858 87.2984 168.491 87.2984 166.806V150.455C87.5755 150.94 88.09 151.267 88.6853 151.267H107.654L113.494 169.858H90.3542H90.3548ZM115.381 174.684L105.092 141.947C105.072 141.877 105.006 141.826 104.926 141.826C104.825 141.821 96.6242 141.7 87.2984 141.604V128.309H113.066C114.685 129.384 115.835 131.108 116.137 133.151L124.101 175.456L124.237 176.374C124.322 176.929 123.889 177.423 123.339 177.429H119.083C117.449 177.429 115.9 176.385 115.381 174.685V174.684ZM121.337 151.267H122.109L127.949 169.858H123.375C121.716 160.987 120.58 154.909 119.804 150.769C119.874 150.693 119.945 150.612 120.001 150.526C120.278 150.97 120.773 151.268 121.337 151.268V151.267ZM120.187 150.118C120.227 149.977 120.248 149.826 120.248 149.674V145.352L121.998 150.915H121.337C120.812 150.915 120.364 150.582 120.187 150.118ZM123.828 177.676C124.388 177.439 124.671 176.869 124.585 176.319C124.181 174.15 123.798 172.123 123.44 170.217H128.06L129.498 174.791C129.886 176.067 130.829 177.035 132.014 177.49L132.387 179.941H132.287C131.868 179.941 131.515 180.239 131.44 180.642C131.334 181.197 131.011 183.038 130.961 184.36C130.809 184.339 130.658 184.319 130.497 184.319C130.194 184.315 129.861 184.244 129.518 184.107C128.625 183.759 127.708 183.033 126.926 182.276C126.144 181.52 125.499 180.733 125.135 180.274C124.969 180.062 124.722 179.942 124.454 179.942H124.263L123.829 177.677L123.828 177.676ZM123.9 179.94H118.286L117.933 177.62C118.266 177.716 118.71 177.781 119.083 177.781H123.335C123.386 177.781 123.436 177.781 123.486 177.771L123.9 179.94H123.9ZM119.895 149.674C119.895 149.911 119.829 150.123 119.718 150.304C118.791 145.356 118.407 143.309 118.266 142.552V142.531C118.261 142.521 118.261 142.516 118.261 142.506C118.256 142.501 118.256 142.491 118.256 142.481C118.251 142.471 118.251 142.46 118.246 142.451V142.43C118.241 142.41 118.241 142.39 118.236 142.375C118.231 142.365 118.231 142.36 118.231 142.349C118.221 142.309 118.216 142.264 118.201 142.203C118.201 142.193 118.201 142.188 118.196 142.183V142.157C118.706 142.168 119.074 142.172 119.25 142.172L119.895 144.225V149.672L119.895 149.674ZM117.287 186.794C116.964 186.174 116.854 185.372 116.858 184.676C116.995 184.651 117.136 184.636 117.282 184.636C118.513 184.636 119.547 185.589 119.673 186.794H117.287H117.287ZM120.016 186.794C119.89 185.397 118.704 184.283 117.283 184.283C117.142 184.283 117 184.298 116.859 184.318C116.914 183.027 117.227 181.247 117.328 180.707C117.373 180.47 117.586 180.294 117.833 180.294H124.454C124.611 180.294 124.757 180.364 124.858 180.491C124.984 180.652 125.145 180.854 125.337 181.076L124.717 181.797C124.651 181.872 124.661 181.984 124.737 182.049C124.807 182.11 124.918 182.105 124.984 182.029L125.569 181.348C125.72 181.524 125.887 181.706 126.063 181.897L125.433 182.634C125.367 182.704 125.377 182.815 125.453 182.881C125.524 182.941 125.635 182.936 125.7 182.861L126.306 182.155C126.467 182.316 126.634 182.482 126.805 182.644L126.18 183.375C126.119 183.446 126.129 183.557 126.2 183.622C126.276 183.683 126.387 183.678 126.452 183.602L127.067 182.885C127.234 183.032 127.4 183.178 127.572 183.319L126.966 184.025C126.906 184.101 126.911 184.212 126.986 184.272C127.057 184.338 127.173 184.328 127.233 184.257L127.854 183.536C128.302 183.879 128.772 184.172 129.241 184.374C129.15 184.661 129.094 184.959 129.094 185.266C129.094 185.811 129.245 186.33 129.518 186.795H120.016V186.794ZM129.926 186.794C129.613 186.34 129.447 185.816 129.447 185.266C129.447 185.004 129.488 184.746 129.563 184.499C129.831 184.59 130.199 184.666 130.486 184.671C131.954 184.692 132.696 185.549 132.731 186.794H129.927H129.926ZM144.018 184.499C144.286 184.59 144.654 184.666 144.946 184.671C146.409 184.692 147.15 185.549 147.19 186.794H144.381C144.068 186.345 143.907 185.816 143.907 185.266C143.907 185.004 143.942 184.742 144.017 184.499H144.018ZM138.909 180.293C139.071 180.293 139.217 180.363 139.313 180.49C139.439 180.651 139.6 180.853 139.792 181.075L139.171 181.796C139.11 181.871 139.116 181.983 139.191 182.049C139.267 182.109 139.378 182.104 139.438 182.028L140.023 181.347C140.174 181.524 140.341 181.705 140.517 181.897L139.887 182.633C139.827 182.703 139.831 182.814 139.907 182.88C139.978 182.941 140.094 182.935 140.154 182.86L140.765 182.154C140.921 182.315 141.088 182.482 141.264 182.643L140.639 183.375C140.573 183.445 140.583 183.556 140.659 183.622C140.73 183.682 140.841 183.677 140.906 183.601L141.521 182.885C141.688 183.031 141.859 183.177 142.031 183.319L141.426 184.025C141.36 184.101 141.37 184.211 141.441 184.272C141.516 184.337 141.627 184.327 141.693 184.257L142.308 183.536C142.762 183.878 143.231 184.171 143.7 184.373C143.609 184.66 143.554 184.958 143.554 185.266C143.554 185.81 143.7 186.33 143.972 186.794H133.089C133.063 185.68 132.499 184.742 131.313 184.434C131.349 183.132 131.681 181.261 131.782 180.707C131.827 180.47 132.039 180.294 132.286 180.294H138.908L138.909 180.293ZM138.359 179.94H132.74L132.387 177.62C132.72 177.716 133.154 177.781 133.532 177.781H137.788C137.844 177.781 137.895 177.781 137.945 177.771L138.358 179.94H138.359ZM137.804 177.428H133.537C131.878 177.428 130.345 176.359 129.836 174.684L119.547 141.947C119.527 141.877 119.456 141.826 119.38 141.826C119.36 141.821 118.906 141.816 118.125 141.805L116.485 133.09C116.193 131.128 115.149 129.444 113.666 128.309H127.525C129.144 129.383 130.289 131.108 130.592 133.151L138.349 174.004L138.697 176.369C138.783 176.934 138.349 177.418 137.804 177.428ZM137.986 170.216H138.616V173.545L137.986 170.216ZM141.572 174.261H138.965V170.216H141.572V174.261ZM137.915 169.858L134.389 151.267C138.399 151.267 133.143 151.267 151.31 151.267C151.81 151.267 152.259 151.035 152.546 150.672V166.806C152.546 168.491 151.174 169.858 149.49 169.858H137.915ZM150.983 169.863C151.664 169.535 152.214 168.985 152.546 168.31V168.365C152.546 168.763 152.687 169.142 152.864 169.399C152.864 169.399 152.864 169.404 152.869 169.404C153.005 169.591 153.126 169.722 153.313 169.863H150.982H150.983ZM155.663 174.261H153.071V170.216H155.663V174.261ZM158.624 174.261H156.016V170.216H158.624V174.261ZM161.691 135.769C161.59 135.769 161.514 135.849 161.514 135.945V168.365C161.514 169.192 160.844 169.863 160.016 169.863H154.398C153.575 169.863 152.9 169.192 152.9 168.365V126.892C152.985 122.076 156.854 118.283 161.691 118.283C166.527 118.283 170.436 122.202 170.436 127.023C170.436 131.844 166.512 135.769 161.691 135.769Z" fill="#231F20"/>
<path d="M161.685 122.143C159.032 122.143 156.868 124.306 156.868 126.959C156.868 129.613 159.032 131.781 161.685 131.781C164.338 131.781 166.507 129.618 166.507 126.959C166.507 124.301 164.343 122.143 161.685 122.143Z" fill="#231F20"/>
<path d="M92.6799 74.79C92.8172 74.7454 92.9781 74.7659 93.1486 74.7875L93.2781 74.8032C93.3384 74.8092 93.3956 74.8128 93.4492 74.8128C93.7173 74.8128 93.9216 74.7375 94.0589 74.5869C94.3535 74.2628 94.1897 73.7772 94.1113 73.544C93.9306 73.0084 93.7728 72.4553 93.6432 71.9017C93.6209 71.8071 93.5282 71.748 93.4312 71.7703C93.336 71.7926 93.2775 71.8878 93.2998 71.9824C93.433 72.5475 93.5932 73.1108 93.777 73.6573C93.8643 73.9158 93.9348 74.2001 93.7981 74.3495C93.692 74.4658 93.4769 74.4706 93.3155 74.4532L93.1932 74.4387C93.001 74.414 92.7823 74.3863 92.5702 74.4556C92.4774 74.4857 92.4268 74.5851 92.4569 74.6785C92.4877 74.7713 92.5877 74.8225 92.6799 74.7912V74.79Z" fill="#3C4150"/>
<path d="M92.902 77.3223C93.0086 77.3235 93.0887 77.2458 93.0881 77.1452C93.0881 77.0482 93.0086 76.9693 92.9116 76.9693C92.1965 76.9681 91.5066 76.6687 91.0271 76.1578C90.9608 76.0861 90.8493 76.0824 90.7776 76.1499C90.7059 76.2168 90.7029 76.3283 90.7698 76.3994C91.312 76.9783 92.1085 77.3229 92.902 77.3229V77.3223Z" fill="#3C4150"/>
<path d="M90.8773 71.4395C90.6405 71.4395 90.4478 71.7437 90.4478 72.1154C90.4478 72.4872 90.6405 72.7914 90.8773 72.7914C91.1141 72.7914 91.3021 72.4872 91.3021 72.1154C91.3021 71.7437 91.1093 71.4395 90.8773 71.4395Z" fill="#3C4150"/>
<path d="M95.3558 71.6758C95.1191 71.6758 94.9263 71.98 94.9263 72.3518C94.9263 72.7235 95.1197 73.0277 95.3558 73.0277C95.592 73.0277 95.7806 72.7235 95.7806 72.3518C95.7806 71.98 95.5878 71.6758 95.3558 71.6758Z" fill="#3C4150"/>
<path d="M89.4161 70.3316C89.4619 70.3316 89.5077 70.3141 89.542 70.2786C89.5745 70.2455 90.3523 69.4701 91.1958 70.0966C91.2741 70.1545 91.3838 70.1394 91.4428 70.0605C91.5007 69.9822 91.4844 69.8719 91.4067 69.8135C90.5349 69.1658 89.6414 69.6731 89.2896 70.031C89.2215 70.1003 89.2227 70.2123 89.292 70.2804C89.3263 70.3141 89.3709 70.331 89.4155 70.331L89.4161 70.3316Z" fill="#3C4150"/>
<path d="M121.772 115.481C123.11 115.481 124.488 114.384 124.844 113.035C125.221 111.602 124.33 110.5 122.992 110.5C121.653 110.5 120.278 111.597 119.923 112.945C119.546 114.376 120.433 115.48 121.772 115.48V115.481Z" fill="#231F20"/>
<path d="M78.6484 122.143C75.9956 122.143 73.8315 124.306 73.8315 126.959C73.8315 129.613 75.995 131.781 78.6484 131.781C81.3017 131.781 83.4652 129.618 83.4652 126.959C83.4652 124.301 81.3065 122.143 78.6484 122.143Z" fill="#231F20"/>
<path d="M9.80446 49.6516H31.9154V54.7353C31.9154 54.836 31.9913 54.9119 32.0919 54.9119H62.1917C62.2924 54.9119 62.3683 54.8366 62.3683 54.7353V49.6516H84.4792C84.575 49.6516 84.6557 49.5763 84.6557 49.4751V19.5012C84.6557 19.4054 84.575 19.3247 84.4792 19.3247H62.3683V14.241C62.3683 14.1452 62.2924 14.0645 62.1917 14.0645H32.0919C31.9913 14.0645 31.9154 14.1452 31.9154 14.241V19.3247H9.80446C9.70866 19.3247 9.62793 19.4054 9.62793 19.5012V49.4751C9.62793 49.5757 9.70866 49.6516 9.80446 49.6516ZM84.3027 19.6783V49.2992H62.3683V19.6783H84.3027ZM32.2685 14.4175H62.0152V54.5588H32.2685V14.4175ZM9.98098 19.6783H31.9154V49.2992H9.98098V19.6783Z" fill="#231F20"/>
<path d="M42.1482 42.4298H52.1343C52.2349 42.4298 52.3108 42.3491 52.3108 42.2533V26.7293C52.3108 26.6335 52.2349 26.5527 52.1343 26.5527H42.1482C42.0476 26.5527 41.9717 26.6335 41.9717 26.7293V42.2533C41.9717 42.3491 42.0476 42.4298 42.1482 42.4298ZM42.3247 26.9058H51.9578V42.0768H42.3247V26.9058Z" fill="#3C4150"/>
<path d="M23.2757 29.6602H18.6204C18.5198 29.6602 18.4438 29.7409 18.4438 29.8367V39.1474C18.4438 39.248 18.5198 39.3239 18.6204 39.3239H23.2757C23.3763 39.3239 23.4522 39.2486 23.4522 39.1474V29.8367C23.4522 29.7409 23.3763 29.6602 23.2757 29.6602ZM23.104 38.9703H18.7969V30.0132H23.104V38.9703Z" fill="#3C4150"/>
<path d="M71.0076 39.3239H75.6629C75.7635 39.3239 75.8395 39.2486 75.8395 39.1474V29.8367C75.8395 29.7409 75.7635 29.6602 75.6629 29.6602H71.0076C70.907 29.6602 70.8311 29.7409 70.8311 29.8367V39.1474C70.8311 39.248 70.907 39.3239 71.0076 39.3239ZM71.1841 30.0138H75.4864V38.9709H71.1841V30.0138Z" fill="#3C4150"/>
<path d="M137.642 73.936H141.536V79.383C141.536 79.7059 141.712 79.9885 142.005 80.1295C142.121 80.1849 142.241 80.2102 142.363 80.2102C142.549 80.2102 142.731 80.1445 142.882 80.0234L150.316 73.936H174.031C174.772 73.936 175.372 73.3359 175.372 72.5943V51.8202C175.372 51.0786 174.772 50.4785 174.031 50.4785H137.642C136.9 50.4785 136.3 51.0786 136.3 51.8202V72.5943C136.3 73.3359 136.9 73.936 137.642 73.936H137.642ZM136.654 51.8202C136.654 51.2756 137.098 50.8316 137.643 50.8316H174.032C174.576 50.8316 175.02 51.2756 175.02 51.8202V72.5943C175.02 73.1389 174.576 73.583 174.032 73.583H150.257C150.216 73.583 150.176 73.598 150.146 73.6233L142.661 79.7463C142.515 79.8674 142.328 79.8927 142.157 79.812C141.991 79.7312 141.885 79.5698 141.885 79.383V73.7595C141.885 73.6637 141.809 73.583 141.708 73.583H137.643C137.099 73.583 136.655 73.1389 136.655 72.5943V51.8202H136.654Z" fill="#3C4150"/>
<path d="M259.822 47.9922H191.644C191.548 47.9922 191.467 48.0729 191.467 48.1687V52.612C191.467 52.7078 191.548 52.7885 191.644 52.7885H193.802V172.471C193.802 172.567 193.883 172.648 193.979 172.648H196.032V176.743C196.032 176.839 196.107 176.92 196.208 176.92H202.397C202.493 176.92 202.573 176.839 202.573 176.743V172.648H210.018V176.743C210.018 176.839 210.093 176.92 210.194 176.92H216.383C216.479 176.92 216.559 176.839 216.559 176.743V172.648H236.739V176.743C236.739 176.839 236.814 176.92 236.915 176.92H243.103C243.199 176.92 243.28 176.839 243.28 176.743V172.648H250.19V176.743C250.19 176.839 250.27 176.92 250.366 176.92H256.56C256.655 176.92 256.736 176.839 256.736 176.743V172.648H258.421C258.516 172.648 258.597 172.567 258.597 172.471V52.7885H259.823C259.918 52.7885 259.999 52.7078 259.999 52.612V48.1687C259.999 48.0681 259.918 47.9922 259.823 47.9922H259.822ZM191.82 52.4355V48.3452H247.062V52.365C246.987 52.365 200.526 52.4246 191.82 52.4355ZM194.156 52.7885H247.062V172.295H194.156V52.7885ZM196.385 172.648H199.86V176.566H196.385V172.648ZM202.22 176.567H200.207V172.649H202.22V176.567ZM210.365 172.648H213.84V176.566H210.365V172.648ZM216.206 176.567H214.193V172.649H216.206V176.567ZM237.091 172.648H240.566V176.566H237.091V172.648ZM242.926 176.567H240.919V172.649H242.926V176.567ZM250.542 172.648H254.017V176.566H250.542V172.648ZM256.383 176.567H254.37V172.649H256.383V176.567ZM258.244 172.295H247.415V52.7885H258.244V172.295ZM259.646 52.4355C242.885 52.3385 248.665 52.3722 247.415 52.365V48.3452H259.646V52.4355Z" fill="#3C4150"/>
<path d="M197.434 81.2244H243.779C243.829 81.2244 243.875 81.2039 243.905 81.1738C243.94 81.1437 243.96 81.0985 243.96 81.0479V56.7078C243.96 56.6572 243.94 56.612 243.905 56.5819C243.875 56.5517 243.829 56.5312 243.779 56.5312H197.434C197.338 56.5312 197.257 56.612 197.257 56.7078V81.0479C197.257 81.1485 197.338 81.2244 197.434 81.2244ZM222.924 66.0131H229.642V73.2657H222.924V66.0131ZM222.571 73.2657H213.402V66.0131H222.571V73.2657ZM213.402 73.6187H231.634V80.8714H213.402V73.6187ZM231.987 80.8714V73.6187H238.993V80.8714H231.987ZM243.607 80.8714H239.345V73.4422C239.345 73.3464 239.265 73.2657 239.169 73.2657H229.995V65.8365C229.995 65.7407 229.919 65.66 229.818 65.66H213.225C213.129 65.66 213.054 65.7407 213.054 65.8365V80.8714H208.792V56.8843H243.607V80.8714ZM197.61 56.8843H208.439V80.8714H197.61V56.8843Z" fill="#3C4150"/>
<path d="M197.434 109.66H243.779C243.829 109.66 243.875 109.639 243.905 109.609C243.94 109.579 243.96 109.533 243.96 109.483V85.1433C243.96 85.118 243.955 85.0927 243.94 85.0728C243.936 85.0523 243.92 85.0325 243.905 85.0174C243.875 84.9873 243.829 84.9668 243.779 84.9668H197.434C197.338 84.9668 197.257 85.0475 197.257 85.1433V109.483C197.257 109.584 197.338 109.66 197.434 109.66ZM243.607 109.307H208.792V85.3198H243.607V109.307ZM197.61 85.3198H208.439V109.307H197.61V85.3198Z" fill="#3C4150"/>
<path d="M197.434 138.096H243.779C243.829 138.096 243.875 138.075 243.905 138.045C243.94 138.015 243.96 137.97 243.96 137.919V113.579C243.96 113.528 243.94 113.483 243.905 113.453C243.875 113.423 243.829 113.402 243.779 113.402H197.434C197.338 113.402 197.257 113.483 197.257 113.579V137.919C197.257 138.02 197.338 138.096 197.434 138.096ZM232.315 127.232H239.749V129.279H232.315V127.232ZM231.962 129.279H212.645V127.232H231.962V129.279ZM213.402 129.633H231.634V137.742H213.402V129.633ZM231.987 137.742V129.632H238.993V137.742H231.987ZM243.607 137.742H239.345V129.632H239.925C240.021 129.632 240.102 129.551 240.102 129.455V127.055C240.102 126.959 240.021 126.878 239.925 126.878H212.469C212.373 126.878 212.292 126.959 212.292 127.055V129.455C212.292 129.551 212.373 129.632 212.469 129.632H213.054V137.742H208.792V113.755H243.607V137.742ZM197.61 113.755H208.439V137.742H197.61V113.755Z" fill="#3C4150"/>
<path d="M197.434 166.536H243.779C243.879 166.536 243.955 166.455 243.955 166.359V142.019C243.955 141.919 243.879 141.843 243.779 141.843C238.652 141.843 208.513 141.839 197.434 141.838C197.338 141.838 197.257 141.919 197.257 142.014V166.359C197.257 166.455 197.338 166.536 197.434 166.536ZM220.528 151.269H224.507V155.708H220.528V151.269ZM220.352 156.061H224.684C224.785 156.061 224.86 155.985 224.86 155.884V151.269H231.634V166.183H213.402V151.269H220.176V155.884C220.176 155.985 220.256 156.061 220.352 156.061H220.352ZM231.987 166.183V151.269H238.993V166.183H231.987ZM243.607 166.183H239.345V151.093C239.345 150.991 239.265 150.916 239.169 150.916H213.225C213.129 150.916 213.054 150.991 213.054 151.093V166.183H208.792V142.196H243.607V166.183ZM197.61 142.191H208.439V166.183H197.61V142.191Z" fill="#3C4150"/>
<path d="M44.1962 173.108C44.145 173.108 33.2986 173.108 33.242 173.108V170.016C33.242 169.149 32.5407 168.443 31.6737 168.443H24.744V98.8268C28.7686 98.7611 32.7076 98.4231 35.6886 97.7724V107.567C35.1591 107.678 34.7656 108.288 34.7656 109.054C34.7656 109.907 35.25 110.567 35.8652 110.567C36.4803 110.567 36.9695 109.906 36.9695 109.054C36.9695 108.288 36.5761 107.678 36.0417 107.567V97.6965C39.0023 97.0157 40.9338 96.0222 40.9338 94.6805C40.9338 94.6655 40.929 94.6504 40.929 94.6353L35.3561 74.1282C35.3512 74.1029 35.341 74.083 35.3205 74.0673C35.0633 72.5087 28.9758 71.6719 23.236 71.6719C17.4962 71.6719 11.1768 72.5443 11.1364 74.1583V74.1734L5.57316 94.6347C5.57316 94.6498 5.56834 94.6649 5.56834 94.6799C5.56834 98.0315 17.1998 98.696 20.5628 98.8003V168.441H13.6331C12.7655 168.441 12.0649 169.147 12.0649 170.015V173.106C12.0082 173.106 1.16122 173.106 1.11061 173.106C1.01481 173.106 0.934082 173.187 0.934082 173.283V176.223C0.934082 176.319 1.01481 176.399 1.11061 176.399H3.4657V179.471C3.4657 179.572 3.54643 179.647 3.64222 179.647H7.87885C7.97464 179.647 8.05537 179.572 8.05537 179.471V176.399H13.709V179.471C13.709 179.572 13.7849 179.647 13.8807 179.647H18.1174C18.218 179.647 18.2939 179.572 18.2939 179.471V176.399H27.7401V179.471C27.7401 179.572 27.8161 179.647 27.9167 179.647H32.1533C32.2491 179.647 32.3298 179.572 32.3298 179.471V176.399H37.9787V179.471C37.9787 179.572 38.0594 179.647 38.1552 179.647H42.3918C42.4876 179.647 42.5683 179.572 42.5683 179.471V176.399H44.1974C44.2932 176.399 44.374 176.319 44.374 176.223V173.283C44.374 173.187 44.2932 173.106 44.1974 173.106L44.1962 173.108ZM36.6159 109.055C36.6159 109.685 36.273 110.215 35.8646 110.215C35.4561 110.215 35.1133 109.685 35.1133 109.055C35.1133 108.425 35.4615 107.9 35.8646 107.9C36.2676 107.9 36.6159 108.43 36.6159 109.055ZM23.2354 72.0255C29.7615 72.0255 34.4222 73.0341 34.9313 73.9974C34.9988 74.1131 34.9988 74.2348 34.9313 74.3505C34.4222 75.3187 29.7615 76.3224 23.2354 76.3224C16.0689 76.3224 10.9093 75.0765 11.5395 73.9974C12.054 73.0341 16.7142 72.0255 23.2354 72.0255ZM5.92079 94.7058L11.3576 74.6831C12.5023 75.979 18.0149 76.6755 23.2348 76.6755C28.4547 76.6755 34.0378 75.9693 35.1374 74.6578L40.5796 94.7058C40.5543 95.8252 38.7739 96.703 36.0405 97.3284C32.0298 98.2014 27.366 98.4882 23.2499 98.4882C22.4679 98.4882 21.6913 98.4779 20.9147 98.4526C17.9324 98.4526 5.98767 97.6706 5.92019 94.7052L5.92079 94.7058ZM20.9153 98.8111C21.6816 98.8316 22.4636 98.8412 23.2505 98.8412C23.6288 98.8412 24.012 98.8412 24.3904 98.831V168.442H20.9153V98.8111ZM3.81754 176.401H5.57798V179.296H3.81754V176.401ZM7.70112 179.296H5.93104V176.401H7.70112V179.296ZM14.0561 176.401H15.8165V179.296H14.0561V176.401ZM17.9396 179.296H16.1695V176.401H17.9396V179.296ZM28.092 176.401H29.8524V179.296H28.092V176.401ZM31.9756 179.296H30.2055V176.401H31.9756V179.296ZM38.3305 176.401H40.0909V179.296H38.3305V176.401ZM42.2141 179.296H40.444V176.401H42.2141V179.296ZM44.0197 176.048H1.28593V173.461H44.0197V176.048Z" fill="#231F20"/>
</svg>
