<svg width="47" height="38" viewBox="0 0 47 38" fill="none" xmlns="http://www.w3.org/2000/svg">
<path d="M46.3892 23.3489H26.1285C25.7915 23.3489 25.5181 23.0755 25.5181 22.7385V16.5889C25.5181 16.2519 25.7915 15.9785 26.1285 15.9785H26.3828C26.5121 15.9785 26.6392 16.0198 26.7442 16.0961L28.2108 17.1718L28.9017 16.2286C29.0162 16.0718 29.1995 15.9796 29.3945 15.9796H38.2834C38.417 15.9796 38.5463 16.023 38.6522 16.1036L46.758 22.2531C46.9668 22.4121 47.0516 22.6855 46.9678 22.9345C46.8841 23.1814 46.651 23.3489 46.3892 23.3489ZM26.7389 22.1281H44.575L38.0779 17.1993H29.704L28.835 18.3862C28.7396 18.5165 28.5955 18.6045 28.4355 18.6289C28.2755 18.6532 28.1123 18.614 27.9819 18.5176L26.7399 17.6073V22.1281H26.7389Z" fill="#22AB00"/>
<path d="M26.1289 37.1385H4.51274C4.17575 37.1385 3.90234 36.8651 3.90234 36.5281V16.1974C3.90234 16.0024 3.99454 15.8201 4.15138 15.7046L14.8196 7.886C15.0347 7.7281 15.3261 7.7281 15.5412 7.886L26.4892 15.9091C26.646 16.0236 26.7382 16.2069 26.7382 16.4019V36.527C26.7393 36.8651 26.4659 37.1385 26.1289 37.1385ZM5.12314 35.9177H25.5185V16.7124L15.1809 9.13647L5.12314 16.5079V35.9177Z" fill="#22AB00"/>
<path d="M28.3425 18.6352C28.2132 18.6352 28.0871 18.5939 27.9811 18.5176L15.1808 9.13695L2.38044 18.5176C2.2501 18.613 2.0869 18.6532 1.92688 18.6289C1.76687 18.6045 1.62274 18.5165 1.52737 18.3862L0.117943 16.4628C-0.0812846 16.1904 -0.0219404 15.8089 0.249348 15.6097L14.8205 4.93092C15.0356 4.77303 15.327 4.77303 15.5422 4.93092L30.1133 15.6097C30.3856 15.8089 30.4439 16.1904 30.2447 16.4628L28.8353 18.3862C28.7399 18.5165 28.5958 18.6045 28.4358 18.6289C28.404 18.6331 28.3732 18.6352 28.3425 18.6352ZM1.46273 16.2328L2.15048 17.1717L14.8194 7.88754C15.0345 7.72964 15.326 7.72964 15.5411 7.88754L28.21 17.1717L28.8978 16.2328L15.1797 6.17927L1.46273 16.2328Z" fill="#22AB00"/>
<path d="M42.8487 37.1398H26.1285C25.7915 37.1398 25.5181 36.8664 25.5181 36.5294V22.7393C25.5181 22.4023 25.7915 22.1289 26.1285 22.1289H42.8487C43.1857 22.1289 43.4591 22.4023 43.4591 22.7393V36.5294C43.4591 36.8664 43.1857 37.1398 42.8487 37.1398ZM26.7389 35.919H42.2383V23.3497H26.7389V35.919Z" fill="#22AB00"/>
<path d="M20.1882 37.1397H10.4546C10.1176 37.1397 9.84424 36.8663 9.84424 36.5293V23.7608C9.84424 23.4238 10.1176 23.1504 10.4546 23.1504H20.1882C20.5251 23.1504 20.7986 23.4238 20.7986 23.7608V36.5293C20.7986 36.8663 20.5251 37.1397 20.1882 37.1397ZM11.064 35.9189H19.5767V24.3712H11.064V35.9189Z" fill="#22AB00"/>
<path d="M13.2331 31.5318C12.3016 31.5318 11.5439 30.7741 11.5439 29.8415C11.5439 28.909 12.3016 28.1523 13.2331 28.1523C14.1646 28.1523 14.9223 28.91 14.9223 29.8415C14.9223 30.773 14.1657 31.5318 13.2331 31.5318ZM13.2331 29.3731C12.9746 29.3731 12.7637 29.584 12.7637 29.8415C12.7637 30.1001 12.9746 30.311 13.2331 30.311C13.4917 30.311 13.7026 30.1001 13.7026 29.8415C13.7026 29.583 13.4917 29.3731 13.2331 29.3731Z" fill="#22AB00"/>
<path d="M22.955 19.935H7.68657C7.34958 19.935 7.07617 19.6616 7.07617 19.3246V16.1846C7.07617 15.8476 7.34958 15.5742 7.68657 15.5742H22.9539C23.2909 15.5742 23.5643 15.8476 23.5643 16.1846V19.3246C23.5654 19.6616 23.292 19.935 22.955 19.935ZM8.29697 18.7142H22.3435V16.795H8.29697V18.7142Z" fill="#22AB00"/>
<path d="M37.3513 11.4637H33.0383C31.7475 11.4637 30.6963 10.4135 30.6963 9.12173C30.6963 7.88397 31.6617 6.8677 32.8793 6.78505C33.1146 5.74016 34.0492 4.95703 35.1641 4.95703C36.2778 4.95703 37.2125 5.73804 37.4478 6.78187C38.694 6.83273 39.6922 7.86278 39.6922 9.12173C39.6933 10.4135 38.6431 11.4637 37.3513 11.4637ZM33.0383 8.0016C32.4204 8.0016 31.9171 8.50497 31.9171 9.12279C31.9171 9.7406 32.4204 10.244 33.0383 10.244H37.3513C37.9691 10.244 38.4725 9.7406 38.4725 9.12279C38.4725 8.50497 37.9691 8.0016 37.3513 8.0016C37.2496 8.0016 37.1489 8.01538 37.0514 8.04187C36.8596 8.09486 36.6519 8.05035 36.4983 7.92213C36.3446 7.7939 36.263 7.59891 36.281 7.39968C36.2842 7.36683 36.2852 7.33292 36.2852 7.29901C36.2852 6.68119 35.7819 6.17783 35.1641 6.17783C34.5462 6.17783 34.0429 6.68119 34.0429 7.29901C34.0429 7.32868 34.0439 7.35835 34.0461 7.38803C34.062 7.58301 33.9835 7.7727 33.8352 7.89987C33.6868 8.02704 33.4876 8.07578 33.2968 8.03022C33.2131 8.01114 33.1262 8.0016 33.0383 8.0016Z" fill="#22AB00"/>
<path d="M39.6793 37.1381H29.2994C28.9624 37.1381 28.689 36.8646 28.689 36.5277V27.7256C28.689 27.3886 28.9624 27.1152 29.2994 27.1152H39.6793C40.0163 27.1152 40.2897 27.3886 40.2897 27.7256V36.5277C40.2897 36.8646 40.0163 37.1381 39.6793 37.1381ZM29.9087 35.9173H39.0679V28.336H29.9087V35.9173Z" fill="#22AB00"/>
<path d="M40.5725 28.3362H28.4048C28.0678 28.3362 27.7944 28.0628 27.7944 27.7258V25.2471C27.7944 24.9101 28.0678 24.6367 28.4048 24.6367H40.5715C40.9085 24.6367 41.1819 24.9101 41.1819 25.2471V27.7258C41.1829 28.0638 40.9095 28.3362 40.5725 28.3362ZM29.0152 27.1154H39.9611V25.8575H29.0152V27.1154Z" fill="#22AB00"/>
<path d="M37.6286 30.4044H31.3487C31.0117 30.4044 30.7383 30.131 30.7383 29.794C30.7383 29.457 31.0117 29.1836 31.3487 29.1836H37.6286C37.9656 29.1836 38.239 29.457 38.239 29.794C38.239 30.131 37.9656 30.4044 37.6286 30.4044Z" fill="#22AB00"/>
<path d="M37.6286 32.7384H31.3487C31.0117 32.7384 30.7383 32.465 30.7383 32.128C30.7383 31.791 31.0117 31.5176 31.3487 31.5176H37.6286C37.9656 31.5176 38.239 31.791 38.239 32.128C38.239 32.465 37.9656 32.7384 37.6286 32.7384Z" fill="#22AB00"/>
<path d="M37.6286 35.0743H31.3487C31.0117 35.0743 30.7383 34.8009 30.7383 34.4639C30.7383 34.1269 31.0117 33.8535 31.3487 33.8535H37.6286C37.9656 33.8535 38.239 34.1269 38.239 34.4639C38.239 34.8009 37.9656 35.0743 37.6286 35.0743Z" fill="#22AB00"/>
<path d="M27.0188 7.4891H22.7057C21.415 7.4891 20.3638 6.43891 20.3638 5.14712C20.3638 3.90936 21.3292 2.8931 22.5468 2.81044C22.782 1.76555 23.7167 0.982422 24.8315 0.982422C25.9453 0.982422 26.88 1.76343 27.1152 2.80726C28.3615 2.85812 29.3597 3.88817 29.3597 5.14712C29.3608 6.43891 28.3106 7.4891 27.0188 7.4891ZM22.7057 4.02699C22.0879 4.02699 21.5846 4.53036 21.5846 5.14818C21.5846 5.76599 22.0879 6.26936 22.7057 6.26936H27.0188C27.6366 6.26936 28.14 5.76599 28.14 5.14818C28.14 4.53036 27.6366 4.02699 27.0188 4.02699C26.9171 4.02699 26.8164 4.04077 26.7189 4.06726C26.5271 4.12025 26.3194 4.07574 26.1657 3.94751C26.0121 3.81929 25.9305 3.6243 25.9485 3.42507C25.9517 3.39222 25.9527 3.35831 25.9527 3.3244C25.9527 2.70658 25.4494 2.20322 24.8315 2.20322C24.2137 2.20322 23.7104 2.70658 23.7104 3.3244C23.7104 3.35513 23.7114 3.3848 23.7135 3.41448C23.7284 3.6084 23.65 3.79915 23.5027 3.92526C23.3543 4.05243 23.1551 4.10117 22.9654 4.05561C22.8806 4.03653 22.7937 4.02699 22.7057 4.02699Z" fill="#22AB00"/>
<path d="M32.2506 4.16573C31.974 4.16573 31.7324 3.98028 31.6614 3.71323C31.4441 2.90148 30.0114 1.8015 29.1594 1.29919C28.869 1.12751 28.7726 0.753434 28.9432 0.463071C29.1138 0.172708 29.4879 0.0752139 29.7783 0.246888C29.9828 0.366637 31.3964 1.22077 32.2506 2.3038C33.1047 1.21971 34.5184 0.366637 34.7229 0.246888C35.0133 0.0762737 35.3873 0.172708 35.558 0.463071C35.7286 0.753434 35.6321 1.12751 35.3418 1.29919C34.4898 1.8015 33.0581 2.90042 32.8398 3.71323C32.7688 3.98028 32.5272 4.16573 32.2506 4.16573Z" fill="#22AB00"/>
</svg>
