<svg width="31" height="34" viewBox="0 0 31 34" fill="none" xmlns="http://www.w3.org/2000/svg">
<path d="M11.2018 5.92387C10.7414 6.67353 10.4756 7.5555 10.4756 8.49973C10.4756 9.0239 10.5594 9.52812 10.7111 10.0019H20.0999C20.2516 9.52805 20.3355 9.0239 20.3355 8.49973C20.3355 5.777 18.1283 3.56982 15.4056 3.56982C14.4435 3.56982 13.5465 3.84637 12.7878 4.32289" stroke="#22AB00" stroke-miterlimit="10" stroke-linecap="round" stroke-linejoin="round"/>
<path d="M15.4053 1V1.69435" stroke="#22AB00" stroke-miterlimit="10" stroke-linecap="round" stroke-linejoin="round"/>
<path d="M7.90625 8.49902H8.6006" stroke="#22AB00" stroke-miterlimit="10" stroke-linecap="round" stroke-linejoin="round"/>
<path d="M22.21 8.49902H22.9043" stroke="#22AB00" stroke-miterlimit="10" stroke-linecap="round" stroke-linejoin="round"/>
<path d="M11.6562 2.00391L12.0034 2.60521" stroke="#22AB00" stroke-miterlimit="10" stroke-linecap="round" stroke-linejoin="round"/>
<path d="M21.2979 5.09717L21.8992 4.75" stroke="#22AB00" stroke-miterlimit="10" stroke-linecap="round" stroke-linejoin="round"/>
<path d="M8.91113 4.75L9.51251 5.09717" stroke="#22AB00" stroke-miterlimit="10" stroke-linecap="round" stroke-linejoin="round"/>
<path d="M18.8076 2.60521L19.1548 2.00391" stroke="#22AB00" stroke-miterlimit="10" stroke-linecap="round" stroke-linejoin="round"/>
<path d="M16.6397 26.6665H14.1699V30.1532H16.6397V26.6665Z" stroke="#22AB00" stroke-miterlimit="10" stroke-linecap="round" stroke-linejoin="round"/>
<path d="M8.3869 26.6661H29.1663C29.5219 26.6661 29.8101 26.3779 29.8101 26.0223V24.407H1V26.0223C1 26.3779 1.28826 26.6661 1.64387 26.6661H6.13337" stroke="#22AB00" stroke-miterlimit="10" stroke-linecap="round" stroke-linejoin="round"/>
<path d="M29.8101 24.4082H1L4.62388 10.4836C4.69773 10.1999 4.95386 10.002 5.24702 10.002H25.5631C25.8563 10.002 26.1124 10.1999 26.1862 10.4836L29.8101 24.4082Z" stroke="#22AB00" stroke-miterlimit="10" stroke-linecap="round" stroke-linejoin="round"/>
<path d="M19.4293 18.3769C18.807 18.3769 18.3025 17.8724 18.3025 17.2501C18.3025 16.6591 18.7577 16.1753 19.3366 16.128L18.6927 10.002H12.1175L11.4737 16.128C12.0525 16.1753 12.5078 16.6592 12.5078 17.2501C12.5078 17.8724 12.0033 18.3769 11.381 18.3769C11.3326 18.3769 11.2852 18.3728 11.2384 18.3669L10.6035 24.4083H20.2069L19.572 18.3669C19.525 18.3728 19.4777 18.3769 19.4293 18.3769Z" stroke="#22AB00" stroke-miterlimit="10" stroke-linecap="round" stroke-linejoin="round"/>
<path d="M22.391 17.2043H20.5538C20.5543 17.2194 20.556 17.2342 20.556 17.2494C20.556 17.8717 20.0515 18.3761 19.4292 18.3761C18.8069 18.3761 18.3025 17.8717 18.3025 17.2494C18.3025 17.2342 18.3041 17.2194 18.3047 17.2043H12.5053C12.5059 17.2194 12.5076 17.2342 12.5076 17.2494C12.5076 17.8717 12.0031 18.3761 11.3808 18.3761C10.7585 18.3761 10.2541 17.8717 10.2541 17.2494C10.2541 17.2342 10.2557 17.2194 10.2563 17.2043H2.87462L1 24.4075H29.8101L27.9354 17.2043H24.6446" stroke="#22AB00" stroke-miterlimit="10" stroke-linecap="round" stroke-linejoin="round"/>
<path d="M8.87793 32.9997V32.5552C8.87793 31.2284 9.95351 30.1528 11.2803 30.1528H19.5294C20.8563 30.1528 21.9318 31.2284 21.9318 32.5552V32.9997H8.87793Z" stroke="#22AB00" stroke-miterlimit="10" stroke-linecap="round" stroke-linejoin="round"/>
<path d="M1 33H29.8101" stroke="#22AB00" stroke-miterlimit="10" stroke-linecap="round" stroke-linejoin="round"/>
<path d="M11.3807 18.3763C12.003 18.3763 12.5074 17.8719 12.5074 17.2496C12.5074 16.6273 12.003 16.1228 11.3807 16.1228C10.7584 16.1228 10.2539 16.6273 10.2539 17.2496C10.2539 17.8719 10.7584 18.3763 11.3807 18.3763Z" stroke="#22AB00" stroke-miterlimit="10"/>
<path d="M19.4285 18.3763C20.0508 18.3763 20.5553 17.8719 20.5553 17.2496C20.5553 16.6273 20.0508 16.1228 19.4285 16.1228C18.8062 16.1228 18.3018 16.6273 18.3018 17.2496C18.3018 17.8719 18.8062 18.3763 19.4285 18.3763Z" stroke="#22AB00" stroke-miterlimit="10"/>
<path d="M11.3807 18.3763C12.003 18.3763 12.5074 17.8719 12.5074 17.2496C12.5074 16.6273 12.003 16.1228 11.3807 16.1228C10.7584 16.1228 10.2539 16.6273 10.2539 17.2496C10.2539 17.8719 10.7584 18.3763 11.3807 18.3763Z" stroke="#22AB00" stroke-miterlimit="10" stroke-linecap="round" stroke-linejoin="round"/>
<path d="M19.4285 18.3763C20.0508 18.3763 20.5553 17.8719 20.5553 17.2496C20.5553 16.6273 20.0508 16.1228 19.4285 16.1228C18.8062 16.1228 18.3018 16.6273 18.3018 17.2496C18.3018 17.8719 18.8062 18.3763 19.4285 18.3763Z" stroke="#22AB00" stroke-miterlimit="10" stroke-linecap="round" stroke-linejoin="round"/>
</svg>
