<svg width="249" height="193" viewBox="0 0 249 193" fill="none" xmlns="http://www.w3.org/2000/svg">
<g opacity="0.2">
<path d="M55.794 47.5653C52.6883 46.1045 47.5518 48.4796 45.9136 51.9548C42.7871 58.5885 52.8989 68.196 56.5757 67.1649C60.685 66.0125 61.496 50.247 55.7934 47.5653H55.794Z" stroke="#0F31AC" stroke-width="2" stroke-miterlimit="10" stroke-linecap="round" stroke-dasharray="4 4"/>
<path d="M40.2588 62.5899C39.1502 61.9486 27.4092 55.157 20.7642 60.5322C16.0983 64.3062 16.054 72.3743 19.5601 76.9082C26.5044 85.8883 48.0376 81.8621 50.2717 75.4362C51.7763 71.109 44.7123 65.166 40.2588 62.5899Z" stroke="#0F31AC" stroke-width="2" stroke-miterlimit="10" stroke-linecap="round" stroke-dasharray="4 4"/>
<path d="M55.3666 173.48C83.9463 166.386 116.42 159.165 166.846 160.395C195.047 161.083 201.438 152.331 222.811 141.45C241.861 131.752 251.218 112.467 245.471 101.538C239.67 90.504 221.999 94.8969 207.528 78.4721C200.937 70.9915 202.097 65.7483 198.292 57.4527C186.243 31.1857 141.082 10.655 118.813 21.5204C89.3917 35.8746 114.544 97.897 81.6566 114.84C60.8541 125.557 45.1307 104.983 24.5904 120.689C14.4129 128.471 1.96541 139.388 1.00281 151.24C1.00281 151.24 -0.345054 180.219 55.3666 173.48Z" stroke="#0F31AC" stroke-width="2" stroke-miterlimit="10" stroke-linecap="round" stroke-dasharray="4 4"/>
<path d="M213.266 141.205C213.266 141.205 208.09 148.069 202.911 157.487C198.243 165.98 194.693 177.423 193.909 186.977C191.711 186.873 189.296 186.775 186.685 186.683C171.222 186.134 148.898 185.79 124.075 185.79C95.8553 185.79 70.8654 186.235 55.5138 186.919C54.9853 186.943 54.4681 186.966 53.9626 186.991C34.7966 163.235 -3.79777 121.848 31.7195 104.823C31.7195 104.823 34.3215 104.03 38.2224 102.328C50.5688 96.9394 75.9401 82.4392 73.118 55.0995C73.118 55.0995 72.1565 49.9978 72.1565 42.8991C72.1565 26.3001 77.4115 -1.21423 112.494 0.0415306C133.739 0.803073 153.305 11.6141 165.134 28.9184C176.737 45.8907 195.289 66.7731 210.398 54.8512C213.885 52.0982 218.497 51.0783 222.802 52.2886C233.677 55.3432 246.031 71.1564 213.266 141.205Z" fill="#F4F4F4"/>
</g>
<path opacity="0.15" d="M241.478 187.901C241.478 189.024 188.915 189.935 124.075 189.935C87.4902 189.935 54.8135 189.645 33.282 189.19C28.3224 189.085 23.9553 188.972 20.2673 188.852C17.8383 188.772 15.7042 188.689 13.8896 188.604C9.22152 188.385 6.67181 188.148 6.67181 187.901C6.67181 187.586 10.8098 187.287 18.1955 187.021C21.2203 186.912 24.7888 186.808 28.8413 186.712C50.1651 186.2 84.8765 185.867 124.075 185.867C158.554 185.867 189.562 186.124 211.041 186.535C229.953 186.896 241.478 187.376 241.478 187.901L241.478 187.901Z" fill="#040C2B"/>
<path d="M166.164 35.5062H154.945C153.699 35.5062 152.689 34.4959 152.689 33.2502V23.4591C152.689 22.2129 153.699 21.2031 154.945 21.2031H166.164C167.411 21.2031 168.42 22.2135 168.42 23.4591V33.2502C168.42 34.4964 167.41 35.5062 166.164 35.5062Z" fill="#DEE4FC"/>
<path d="M160.174 32.8414V31.7378C159.526 31.7272 158.855 31.5301 158.463 31.2571L158.732 30.5248C159.134 30.787 159.716 30.9948 160.342 30.9948C161.136 30.9948 161.673 30.5467 161.673 29.9239C161.673 29.301 161.237 28.9511 160.409 28.6232C159.268 28.1862 158.564 27.683 158.564 26.7322C158.564 25.7814 159.223 25.1367 160.253 24.9727V23.8691H160.947V24.9295C161.618 24.9514 162.076 25.126 162.401 25.3119L162.121 26.033C161.886 25.9016 161.427 25.6612 160.711 25.6612C159.85 25.6612 159.526 26.1639 159.526 26.6014C159.526 27.1697 159.94 27.4539 160.913 27.847C162.065 28.3059 162.647 28.8742 162.647 29.8469C162.647 30.7101 162.032 31.5188 160.879 31.7047V32.8414H160.174Z" fill="white"/>
<path d="M236.565 86.0801H225.346C224.1 86.0801 223.09 87.0901 223.09 88.3361V98.1277C223.09 99.3737 224.1 100.384 225.346 100.384H236.565C237.811 100.384 238.821 99.3737 238.821 98.1277V88.3361C238.821 87.0901 237.811 86.0801 236.565 86.0801Z" fill="#DEE4FC"/>
<path d="M228.729 93.7559H225.617V97.1721H228.729V93.7559Z" fill="white"/>
<path d="M232.499 91.8633H229.387V97.1727H232.499V91.8633Z" fill="white"/>
<path d="M236.294 89.2891H233.182V97.1724H236.294V89.2891Z" fill="white"/>
<path d="M24.0525 119.16H12.8327C11.5868 119.16 10.5767 120.17 10.5767 121.416V131.208C10.5767 132.454 11.5868 133.464 12.8327 133.464H24.0525C25.2985 133.464 26.3085 132.454 26.3085 131.208V121.416C26.3085 120.17 25.2985 119.16 24.0525 119.16Z" fill="#DEE4FC"/>
<path d="M17.8742 126.616L21.8948 122.596C22.407 123.121 22.8113 123.729 23.0966 124.404C23.3937 125.106 23.5487 125.85 23.5577 126.616H17.8742Z" fill="#EEF2FA"/>
<path d="M17.7681 121.572C18.4319 121.582 19.0761 121.717 19.6843 121.974C20.2712 122.222 20.8008 122.574 21.2585 123.019L17.7681 126.509V121.572Z" fill="#D6DAE1"/>
<path d="M17.6928 131.051C16.5269 131.051 15.4307 130.598 14.6062 129.773C13.7818 128.949 13.328 127.852 13.328 126.687C13.328 125.521 13.7818 124.424 14.6062 123.6C15.4127 122.793 16.4798 122.341 17.6176 122.322V126.765H22.0565C22.0363 127.902 21.5842 128.968 20.7778 129.774C19.9533 130.598 18.8576 131.051 17.6923 131.051H17.6928Z" fill="white"/>
<path d="M72.5755 71.8711H61.3557C60.1098 71.8711 59.0997 72.8811 59.0997 74.1271V83.9187C59.0997 85.1647 60.1098 86.1747 61.3557 86.1747H72.5755C73.8215 86.1747 74.8315 85.1647 74.8315 83.9187V74.1271C74.8315 72.8811 73.8215 71.8711 72.5755 71.8711Z" fill="#DEE4FC"/>
<path d="M71.7314 75.1839C72.6368 76.2825 72.4795 77.9072 71.381 78.8125C70.5852 79.4685 69.5131 79.5667 68.6387 79.1534L65.9424 81.3746C65.8615 81.4414 65.7458 81.4347 65.684 81.36L65.5515 81.1988C65.4976 81.1336 65.397 81.128 65.3263 81.1859L64.9837 81.4678C64.9129 81.5262 64.8995 81.6262 64.9534 81.6913L65.1483 81.9277C65.1752 81.9609 65.1685 82.0114 65.1331 82.0406L65.0006 82.1496C64.9646 82.1788 64.9141 82.176 64.8865 82.1429L64.8057 82.0446C64.7518 81.9794 64.6512 81.9732 64.5805 82.0317L64.2379 82.3136C64.1671 82.372 64.1536 82.472 64.2076 82.5371L64.2907 82.6382C64.3165 82.6696 64.3103 82.7185 64.2761 82.7466L64.1385 82.86C64.1042 82.8881 64.0554 82.8853 64.029 82.8538L63.8318 82.6146C63.7779 82.5495 63.6774 82.5438 63.6066 82.6017L63.2641 82.8836C63.1933 82.942 63.1798 83.042 63.2337 83.1071L63.3668 83.2683C63.428 83.343 63.4129 83.4576 63.332 83.5238C62.8749 83.9007 62.2138 83.8934 61.8505 83.484C61.4708 83.0555 61.5545 82.3776 62.0291 81.9873L67.2998 77.6455C66.9684 76.6615 67.2549 75.5321 68.104 74.8324C69.2025 73.9271 70.8272 74.0843 71.7326 75.1828L71.7314 75.1839ZM69.9938 76.6155C70.2555 76.9328 70.725 76.9783 71.0423 76.7166C71.3597 76.4549 71.4051 75.9854 71.1434 75.6681C70.8817 75.3507 70.4128 75.3053 70.0949 75.567C69.777 75.8287 69.7321 76.2982 69.9938 76.6155Z" fill="white"/>
<path d="M89.1325 126.529H46.3305C45.7217 126.529 45.2281 127.023 45.2281 127.632V185.855C45.2281 186.464 45.7217 186.957 46.3305 186.957H89.1325C89.7413 186.957 90.2349 186.464 90.2349 185.855V127.632C90.2349 127.023 89.7413 126.529 89.1325 126.529Z" fill="#231F20"/>
<path d="M88.1411 128.361L47.0991 128.525L47.3244 184.662L88.3665 184.498L88.1411 128.361Z" fill="white"/>
<path d="M54.6631 144.553L83.1204 144.439" stroke="#22AB00" stroke-miterlimit="10" stroke-linecap="round"/>
<path d="M52.3015 146.852L83.1294 146.729" stroke="#22AB00" stroke-miterlimit="10" stroke-linecap="round"/>
<path d="M52.3105 149.141L77.5166 149.018" stroke="#22AB00" stroke-miterlimit="10" stroke-linecap="round"/>
<path d="M54.6699 152.769L83.1479 152.656" stroke="#22AB00" stroke-miterlimit="10" stroke-linecap="round"/>
<path d="M52.329 155.068L83.1569 154.945" stroke="#22AB00" stroke-miterlimit="10" stroke-linecap="round"/>
<path d="M52.324 157.203L70.897 157.074" stroke="#22AB00" stroke-miterlimit="10" stroke-linecap="round"/>
<path d="M54.6373 160.835L83.1434 160.713" stroke="#22AB00" stroke-miterlimit="10" stroke-linecap="round"/>
<path d="M52.3245 163.126L83.1524 163.002" stroke="#22AB00" stroke-miterlimit="10" stroke-linecap="round"/>
<path d="M52.3335 165.415L83.1614 165.291" stroke="#22AB00" stroke-miterlimit="10" stroke-linecap="round"/>
<path d="M52.3425 167.704L80.7621 167.59" stroke="#22AB00" stroke-miterlimit="10" stroke-linecap="round"/>
<path d="M52.3094 179.536L64.8052 179.486" stroke="#E3E9F7" stroke-width="15.73" stroke-miterlimit="10" stroke-linecap="round"/>
<path d="M55.0327 178.022C54.8956 177.902 54.862 177.705 54.8462 177.524C54.7485 176.404 55.0046 175.255 55.5701 174.283C55.8436 173.812 56.1969 173.374 56.6619 173.09C56.7428 173.04 56.8321 172.994 56.9264 172.998C57.0444 173.003 57.1449 173.082 57.2319 173.161C58.0126 173.868 58.4911 174.899 58.5276 175.951C58.5641 177.004 58.1586 178.065 57.4291 178.825C57.3454 178.912 57.2471 179.001 57.1264 179.01C56.9612 179.022 56.8214 178.877 56.7636 178.722C56.5928 178.266 56.918 177.78 57.2578 177.431C57.7059 176.968 58.2136 176.565 58.764 176.231C58.8758 176.351 58.9718 176.486 59.0476 176.631C59.0229 176.387 59.0987 176.134 59.2537 175.945C59.2784 176.103 59.5227 176.113 59.6418 176.006C59.7609 175.898 59.812 175.733 59.9209 175.616C60.1416 175.378 60.5213 175.403 60.838 175.471C61.1553 175.54 61.5035 175.631 61.7894 175.477C61.8562 175.689 62.0461 175.858 62.2645 175.901" stroke="#E3E9F7" stroke-width="6.47" stroke-miterlimit="10" stroke-linecap="round"/>
<path d="M79.1521 171.557C81.371 171.566 83.1625 173.372 83.1535 175.591C83.1445 177.81 81.3384 179.601 79.1195 179.592C76.9006 179.583 75.109 177.777 75.118 175.558C75.127 173.339 76.9331 171.548 79.1521 171.557ZM79.1217 179.145C81.0935 179.152 82.6981 177.56 82.7059 175.589C82.7138 173.618 81.1216 172.013 79.1504 172.005C77.1786 171.997 75.574 173.589 75.5662 175.56C75.5583 177.532 77.1505 179.137 79.1217 179.145Z" fill="#D6DAE1"/>
<path d="M79.1358 178.537C80.7716 178.537 82.0977 177.211 82.0977 175.575C82.0977 173.939 80.7716 172.613 79.1358 172.613C77.4999 172.613 76.1738 173.939 76.1738 175.575C76.1738 177.211 77.4999 178.537 79.1358 178.537Z" fill="#D6DAE1"/>
<path d="M75.5213 129.965L73.9482 126.99L73.2187 125.611L73.2091 125.593H70.9801V124.168C70.9801 122.518 69.5261 121.182 67.7318 121.182C65.9374 121.182 64.4834 122.518 64.4834 124.168V125.593H62.2544L62.2449 125.611L61.5153 126.99L59.9423 129.965C59.6367 130.543 60.0327 131.253 60.66 131.253H74.8041C75.4314 131.253 75.8268 130.543 75.5219 129.965H75.5213ZM67.7318 122.587C68.5405 122.587 69.1965 123.19 69.1965 123.934C69.1965 124.677 68.5405 125.28 67.7318 125.28C66.9231 125.28 66.2671 124.677 66.2671 123.934C66.2671 123.19 66.9231 122.587 67.7318 122.587Z" fill="#D6DAE1"/>
<path opacity="0.1" d="M73.9482 126.991H61.5153L62.2448 125.611H73.2187L73.9482 126.991Z" fill="black"/>
<path d="M55.8672 139.75L55.0388 137.05H55.0175C55.0473 137.599 55.0624 137.965 55.0624 138.149V139.75H54.4104V136.309H55.4033L56.2177 138.94H56.2317L57.0955 136.309H58.0884V139.75H57.4083V138.121C57.4083 138.044 57.4094 137.955 57.4116 137.855C57.4139 137.754 57.4246 137.487 57.4437 137.054H57.4223L56.535 139.749H55.8667L55.8672 139.75Z" fill="#231F20"/>
<path d="M62.078 138.024C62.078 138.594 61.937 139.032 61.6545 139.337C61.372 139.643 60.9671 139.796 60.4403 139.796C59.9135 139.796 59.5081 139.643 59.2261 139.337C58.9442 139.031 58.8027 138.592 58.8027 138.019C58.8027 137.446 58.9442 137.009 59.2273 136.707C59.5103 136.405 59.9163 136.254 60.4454 136.254C60.9744 136.254 61.3788 136.406 61.6585 136.711C61.9387 137.015 62.0785 137.452 62.0785 138.024L62.078 138.024ZM59.567 138.024C59.567 138.408 59.64 138.698 59.7861 138.892C59.9321 139.087 60.15 139.184 60.4403 139.184C61.0227 139.184 61.3136 138.797 61.3136 138.024C61.3136 137.251 61.0244 136.862 60.4454 136.862C60.155 136.862 59.936 136.959 59.7889 137.155C59.6412 137.35 59.5676 137.64 59.5676 138.025L59.567 138.024Z" fill="#231F20"/>
<path d="M63.5208 138.429V139.75H62.7913V136.309H63.7937C64.2616 136.309 64.6075 136.394 64.8316 136.564C65.0562 136.734 65.168 136.993 65.168 137.34C65.168 137.542 65.1124 137.722 65.0006 137.88C64.8894 138.038 64.7316 138.161 64.5278 138.251C65.0456 139.024 65.3831 139.524 65.5398 139.75H64.7299L63.9083 138.429H63.5202H63.5208ZM63.5208 137.836H63.7561C63.9869 137.836 64.1571 137.798 64.2666 137.721C64.3767 137.644 64.4312 137.523 64.4312 137.359C64.4312 137.194 64.375 137.08 64.2627 137.011C64.1504 136.942 63.9768 136.907 63.7415 136.907H63.5202V137.837L63.5208 137.836Z" fill="#231F20"/>
<path d="M67.301 139.75H66.5715V136.916H65.637V136.309H68.2355V136.916H67.301V139.75Z" fill="#231F20"/>
<path d="M70.0709 137.816H71.4362V139.601C71.2149 139.673 71.0065 139.724 70.8111 139.752C70.6156 139.781 70.4163 139.795 70.2118 139.795C69.6924 139.795 69.2959 139.643 69.0223 139.338C68.7483 139.033 68.6118 138.594 68.6118 138.023C68.6118 137.452 68.7708 137.035 69.0886 136.724C69.4065 136.413 69.8468 136.258 70.4101 136.258C70.7633 136.258 71.1037 136.329 71.4317 136.47L71.189 137.053C70.938 136.927 70.6768 136.865 70.405 136.865C70.0894 136.865 69.8372 136.971 69.6474 137.183C69.4576 137.395 69.3627 137.679 69.3627 138.037C69.3627 138.395 69.4391 138.696 69.5924 138.892C69.7451 139.089 69.9675 139.188 70.2596 139.188C70.4118 139.188 70.5662 139.172 70.7235 139.141V138.423H70.0714V137.816L70.0709 137.816Z" fill="#231F20"/>
<path d="M74.3616 139.75L74.1122 138.931H72.8576L72.6082 139.75H71.822L73.0362 136.295H73.928L75.1472 139.75H74.361H74.3616ZM73.9381 138.319C73.7073 137.577 73.5776 137.157 73.5483 137.06C73.5191 136.963 73.4984 136.886 73.486 136.829C73.4343 137.03 73.2861 137.527 73.0412 138.319H73.9381Z" fill="#231F20"/>
<path d="M76.8871 137.816H78.2524V139.601C78.0311 139.673 77.8227 139.724 77.6273 139.752C77.4319 139.781 77.2325 139.795 77.0281 139.795C76.5086 139.795 76.1121 139.643 75.8386 139.338C75.5645 139.033 75.428 138.594 75.428 138.023C75.428 137.452 75.587 137.035 75.9048 136.724C76.2227 136.413 76.663 136.258 77.2263 136.258C77.5796 136.258 77.9199 136.329 78.2479 136.47L78.0053 137.053C77.7542 136.927 77.4931 136.865 77.2213 136.865C76.9056 136.865 76.6535 136.971 76.4636 137.183C76.2738 137.395 76.1789 137.679 76.1789 138.037C76.1789 138.395 76.2553 138.696 76.4086 138.892C76.5614 139.089 76.7838 139.188 77.0758 139.188C77.228 139.188 77.3824 139.172 77.5397 139.141V138.423H76.8877V137.816L76.8871 137.816Z" fill="#231F20"/>
<path d="M81.0525 139.75H79.0706V136.309H81.0525V136.906H79.8007V137.662H80.9655V138.259H79.8007V139.146H81.0525V139.749V139.75Z" fill="#231F20"/>
<path d="M172.954 78.3887H161.796V107.424H172.954V78.3887Z" fill="#EEF2FA"/>
<path opacity="0.1" d="M172.954 78.3887H161.796V86.4292H172.954V78.3887Z" fill="black"/>
<path d="M173.727 76.1543H161.023V83.1525H173.727V76.1543Z" fill="#231F20"/>
<path d="M181.121 110.848H101.099V186.96H181.121V110.848Z" fill="white"/>
<path opacity="0.1" d="M127.113 121.567H123.549V180.009H101.099V106.975H98.1238L111.237 97.0957L117.646 106.975L127.113 121.567Z" fill="black"/>
<path d="M177.061 127.092H146.131V164.326H177.061V127.092Z" fill="#231F20"/>
<path d="M144.502 132.139H124.826V175.766H144.502V132.139Z" fill="#231F20"/>
<path d="M143.384 174.278V133.629H125.944V174.278H143.384Z" fill="white"/>
<path opacity="0.1" d="M141.595 133.629H125.944V136.16H141.595V174.278H143.384V136.16V133.629H141.595Z" fill="black"/>
<path d="M142.505 153.879H141.226C141.041 153.879 140.891 154.029 140.891 154.214V155.331C140.891 155.516 141.041 155.666 141.226 155.666H142.505C142.69 155.666 142.84 155.516 142.84 155.331V154.214C142.84 154.029 142.69 153.879 142.505 153.879Z" fill="#040C2B"/>
<path d="M176.484 163.178V128.242H162.088V163.178H176.484Z" fill="#829CF8"/>
<path d="M176.483 163.178V128.242H146.709V163.178H176.483Z" fill="#EEF2FA"/>
<path d="M184.096 110.849H98.1238L111.237 100.969L141.11 78.4629L184.096 110.849Z" fill="#231F20"/>
<path opacity="0.1" d="M181.121 111.263V113.453H98.057L101.099 111.162L101.515 110.848H180.57L181.121 111.263Z" fill="black"/>
<path opacity="0.1" d="M176.483 128.242H147.749H146.709V131.115V163.179H147.749V131.115H176.483V128.242Z" fill="black"/>
<path opacity="0.1" d="M161.886 164.219H162.406V127.092H161.886V164.219Z" fill="black"/>
<path d="M161.885 127.143H161.307V164.269H161.885V127.143Z" fill="#231F20"/>
<path d="M165.09 175.768H101.099V186.935H165.09V175.768Z" fill="#231F20"/>
<path d="M167.51 181.35H101.099V186.933H167.51V181.35Z" fill="#231F20"/>
<path d="M165.09 161.127H101.099V163.872H165.09V161.127Z" fill="#231F20"/>
<path d="M105.736 161.125H103.586V175.764H105.736V161.125Z" fill="#0F31AC"/>
<path d="M110.778 161.125H108.627V175.764H110.778V161.125Z" fill="#0F31AC"/>
<path d="M115.819 161.125H113.668V175.764H115.819V161.125Z" fill="#0F31AC"/>
<path d="M120.861 161.125H118.71V175.764H120.861V161.125Z" fill="#0F31AC"/>
<path d="M125.902 161.125H123.751V175.764H125.902V161.125Z" fill="#231F20"/>
<path d="M130.943 161.125H128.792V175.764H130.943V161.125Z" fill="#231F20"/>
<path d="M135.984 161.125H133.833V175.764H135.984V161.125Z" fill="#231F20"/>
<path d="M141.026 161.125H138.875V175.764H141.026V161.125Z" fill="#231F20"/>
<path d="M146.067 161.125H143.916V175.764H146.067V161.125Z" fill="#231F20"/>
<path d="M151.108 161.125H148.957V175.764H151.108V161.125Z" fill="#231F20"/>
<path d="M156.15 161.125H153.999V175.764H156.15V161.125Z" fill="#231F20"/>
<path d="M161.191 161.125H159.04V175.764H161.191V161.125Z" fill="#231F20"/>
<path d="M104.661 161.238C104.067 161.238 103.585 160.757 103.585 160.163V159.054C103.585 158.46 104.067 157.979 104.661 157.979C105.255 157.979 105.736 158.46 105.736 159.054V160.163C105.736 160.757 105.255 161.238 104.661 161.238Z" fill="#0F31AC"/>
<path d="M109.702 161.238C109.108 161.238 108.627 160.757 108.627 160.163V159.054C108.627 158.46 109.108 157.979 109.702 157.979C110.297 157.979 110.778 158.46 110.778 159.054V160.163C110.778 160.757 110.297 161.238 109.702 161.238Z" fill="#0F31AC"/>
<path d="M115.819 159.054C115.819 158.46 115.337 157.979 114.744 157.979C114.15 157.979 113.668 158.46 113.668 159.054V160.163C113.668 160.757 114.15 161.238 114.744 161.238C115.337 161.238 115.819 160.757 115.819 160.163V159.054Z" fill="#0F31AC"/>
<path d="M119.785 161.238C119.191 161.238 118.71 160.757 118.71 160.163V159.054C118.71 158.46 119.191 157.979 119.785 157.979C120.379 157.979 120.861 158.46 120.861 159.054V160.163C120.861 160.757 120.379 161.238 119.785 161.238Z" fill="#0F31AC"/>
<path d="M124.826 161.238C124.232 161.238 123.751 160.757 123.751 160.163V159.054C123.751 158.46 124.232 157.979 124.826 157.979C125.42 157.979 125.902 158.46 125.902 159.054V160.163C125.902 160.757 125.42 161.238 124.826 161.238Z" fill="#231F20"/>
<path d="M130.943 159.054C130.943 158.46 130.462 157.979 129.868 157.979C129.274 157.979 128.792 158.46 128.792 159.054V160.163C128.792 160.757 129.274 161.238 129.868 161.238C130.462 161.238 130.943 160.757 130.943 160.163V159.054Z" fill="#231F20"/>
<path d="M134.909 161.238C134.314 161.238 133.833 160.757 133.833 160.163V159.054C133.833 158.46 134.314 157.979 134.909 157.979C135.503 157.979 135.984 158.46 135.984 159.054V160.163C135.984 160.757 135.503 161.238 134.909 161.238Z" fill="#231F20"/>
<path d="M139.95 161.238C139.356 161.238 138.875 160.757 138.875 160.163V159.054C138.875 158.46 139.356 157.979 139.95 157.979C140.544 157.979 141.026 158.46 141.026 159.054V160.163C141.026 160.757 140.544 161.238 139.95 161.238Z" fill="#231F20"/>
<path d="M146.067 159.054C146.067 158.46 145.586 157.979 144.992 157.979C144.398 157.979 143.916 158.46 143.916 159.054V160.163C143.916 160.757 144.398 161.238 144.992 161.238C145.586 161.238 146.067 160.757 146.067 160.163V159.054Z" fill="#231F20"/>
<path d="M150.033 161.238C149.439 161.238 148.957 160.757 148.957 160.163V159.054C148.957 158.46 149.439 157.979 150.033 157.979C150.627 157.979 151.108 158.46 151.108 159.054V160.163C151.108 160.757 150.627 161.238 150.033 161.238Z" fill="#231F20"/>
<path d="M155.074 161.238C154.48 161.238 153.999 160.757 153.999 160.163V159.054C153.999 158.46 154.48 157.979 155.074 157.979C155.668 157.979 156.15 158.46 156.15 159.054V160.163C156.15 160.757 155.668 161.238 155.074 161.238Z" fill="#231F20"/>
<path d="M161.191 159.054C161.191 158.46 160.709 157.979 160.115 157.979C159.521 157.979 159.04 158.46 159.04 159.054V160.163C159.04 160.757 159.521 161.238 160.115 161.238C160.709 161.238 161.191 160.757 161.191 160.163V159.054Z" fill="#231F20"/>
<path d="M126.508 121.569H79.4532L102.981 85.3047L126.508 121.569Z" fill="#231F20"/>
<path d="M102.981 90.7461L82.9834 121.568H82.9497V180.978H122.944V121.568H122.978L102.981 90.7461Z" fill="white"/>
<path opacity="0.1" d="M102.981 90.7461L82.9835 121.568H84.5296L102.981 93.1284L121.432 121.568H122.978L102.981 90.7461Z" fill="black"/>
<path d="M122.944 180.979H82.9497V186.934H122.944V180.979Z" fill="#231F20"/>
<path d="M115.685 127.078H90.2766V164.303H115.685V127.078Z" fill="#231F20"/>
<path d="M115.013 162.813V128.566H103.316V162.813H115.013Z" fill="#EEF2FA"/>
<path opacity="0.1" d="M103.653 164.303H104.258V127.078H103.653V164.303Z" fill="black"/>
<path d="M103.014 162.813V128.566H90.9488V162.813H103.014Z" fill="#EEF2FA"/>
<path opacity="0.1" d="M115.013 128.566H92.0242H90.9487V130.651V162.813H92.0242V130.651H115.013V128.566Z" fill="black"/>
<path d="M103.653 127.078H102.981V164.303H103.653V127.078Z" fill="#231F20"/>
<path d="M175.648 181.732H206.891C207.282 181.732 207.599 182.05 207.599 182.44V186.549C207.599 186.94 207.282 187.256 206.891 187.256H175.648C175.257 187.256 174.94 186.939 174.94 186.549V182.44C174.94 182.049 175.258 181.732 175.648 181.732Z" fill="#D6DAE1"/>
<path d="M192.059 181.732H190.481V187.256H192.059V181.732Z" fill="#D6DAE1"/>
<path d="M189.934 181.732H188.356V187.256H189.934V181.732Z" fill="#D6DAE1"/>
<path d="M194.183 181.732H192.605V187.256H194.183V181.732Z" fill="#D6DAE1"/>
<path d="M205.678 176.209H174.434C174.043 176.209 173.726 176.526 173.726 176.917V181.025C173.726 181.416 174.043 181.733 174.434 181.733H205.678C206.068 181.733 206.385 181.416 206.385 181.025V176.917C206.385 176.526 206.068 176.209 205.678 176.209Z" fill="#EEF2FA"/>
<path d="M184.046 176.209H182.467V181.733H184.046V176.209Z" fill="#22AB00"/>
<path d="M181.921 176.209H180.343V181.733H181.921V176.209Z" fill="#22AB00"/>
<path d="M186.17 176.209H184.592V181.733H186.17V176.209Z" fill="#22AB00"/>
<path d="M176.983 170.684H208.227C208.618 170.684 208.934 171.001 208.934 171.391V175.5C208.934 175.891 208.617 176.208 208.227 176.208H176.983C176.593 176.208 176.276 175.89 176.276 175.5V171.391C176.276 171 176.593 170.684 176.983 170.684Z" fill="#D6DAE1"/>
<path d="M193.394 170.684H191.816V176.208H193.394V170.684Z" fill="#22AB00"/>
<path d="M191.27 170.684H189.691V176.208H191.27V170.684Z" fill="#22AB00"/>
<path d="M195.519 170.684H193.941V176.208H195.519V170.684Z" fill="#22AB00"/>
<path d="M206.224 165.16H174.98C174.589 165.16 174.272 165.477 174.272 165.868V169.977C174.272 170.367 174.589 170.684 174.98 170.684H206.224C206.615 170.684 206.932 170.367 206.932 169.977V165.868C206.932 165.477 206.615 165.16 206.224 165.16Z" fill="#EEF2FA"/>
<path d="M184.592 165.16H183.014V170.684H184.592V165.16Z" fill="#22AB00"/>
<path d="M182.467 165.16H180.889V170.684H182.467V165.16Z" fill="#FEE29B"/>
<path d="M186.717 165.16H185.138V170.684H186.717V165.16Z" fill="#22AB00"/>
<path d="M67.8974 186.958H40.8677C39.9557 186.958 39.2166 186.219 39.2166 185.307V152.362C39.2166 151.45 39.9557 150.711 40.8677 150.711H67.8974C68.8095 150.711 69.5486 151.45 69.5486 152.362V185.307C69.5486 186.219 68.8095 186.958 67.8974 186.958Z" fill="#231F20"/>
<path d="M66.4968 153.93H42.2684V161.274H66.4968V153.93Z" fill="white"/>
<path d="M60.2607 171.797H55.7493V176.404H60.2607V171.797Z" fill="#D6DAE1"/>
<path d="M53.5203 171.797H49.0089V176.404H53.5203V171.797Z" fill="#D6DAE1"/>
<path d="M46.7798 171.797H42.2684V176.404H46.7798V171.797Z" fill="#D6DAE1"/>
<path d="M60.2607 164.471H55.7493V169.078H60.2607V164.471Z" fill="#D6DAE1"/>
<path d="M53.5203 164.471H49.0089V169.078H53.5203V164.471Z" fill="#D6DAE1"/>
<path d="M46.7798 164.471H42.2684V169.078H46.7798V164.471Z" fill="#D6DAE1"/>
<path d="M60.2607 179.123H55.7493V183.73H60.2607V179.123Z" fill="#D6DAE1"/>
<path d="M53.5203 179.123H49.0089V183.73H53.5203V179.123Z" fill="#D6DAE1"/>
<path d="M46.7798 179.123H42.2684V183.73H46.7798V179.123Z" fill="#D6DAE1"/>
<path d="M66.4968 164.471H62.5959V174.106H66.4968V164.471Z" fill="#D6DAE1"/>
<path d="M66.4968 176.414H62.5959V183.731H66.4968V176.414Z" fill="#D6DAE1"/>
<path d="M64.2475 159.699V159.151C63.9398 159.146 63.6213 159.048 63.4354 158.913L63.5629 158.549C63.7539 158.679 64.0302 158.782 64.3273 158.782C64.7041 158.782 64.9591 158.56 64.9591 158.251C64.9591 157.942 64.7518 157.769 64.3593 157.606C63.8179 157.389 63.4837 157.14 63.4837 156.668C63.4837 156.197 63.7971 155.877 64.2851 155.796V155.248H64.6142V155.774C64.9327 155.784 65.1506 155.871 65.3045 155.964L65.1719 156.321C65.0607 156.256 64.8428 156.137 64.503 156.137C64.0942 156.137 63.9403 156.386 63.9403 156.603C63.9403 156.885 64.1369 157.026 64.5985 157.221C65.145 157.448 65.4213 157.73 65.4213 158.213C65.4213 158.641 65.1292 159.042 64.5828 159.134V159.698H64.2486L64.2475 159.699Z" fill="#231F20"/>
<path d="M65.0524 172.997C65.0524 173.682 64.9372 174.3 64.7075 174.852C64.4773 175.403 64.1706 175.873 63.7859 176.262C63.4018 176.651 62.9542 176.949 62.4448 177.158C61.9349 177.367 61.4042 177.472 60.8527 177.472C60.2512 177.472 59.6952 177.367 59.1858 177.158C58.6759 176.949 58.235 176.651 57.8632 176.262C57.4914 175.873 57.2011 175.403 56.9922 174.852C56.7832 174.3 56.6788 173.682 56.6788 172.997C56.6788 172.312 56.7832 171.66 56.9922 171.092C57.2011 170.523 57.4914 170.043 57.8632 169.65C58.235 169.258 58.6759 168.954 59.1858 168.741C59.6952 168.529 60.2512 168.422 60.8527 168.422C61.4541 168.422 62.0118 168.529 62.5257 168.741C63.0396 168.954 63.4844 169.258 63.8606 169.65C64.2369 170.043 64.5289 170.523 64.7379 171.092C64.9468 171.66 65.0512 172.295 65.0512 172.997H65.0524ZM71.0812 169.099C71.1818 168.973 71.307 168.86 71.4575 168.76C71.608 168.659 71.8169 168.609 72.0843 168.609H74.3279L60.8661 186.27C60.7662 186.404 60.6381 186.515 60.4837 186.603C60.3287 186.69 60.1433 186.734 59.926 186.734H57.6195L71.0812 169.099ZM62.6582 172.997C62.6582 172.512 62.6122 172.107 62.5206 171.781C62.4285 171.455 62.301 171.192 62.1382 170.991C61.9753 170.791 61.7827 170.646 61.5614 170.559C61.3401 170.471 61.1043 170.427 60.8532 170.427C60.6022 170.427 60.3685 170.471 60.1512 170.559C59.9339 170.646 59.7457 170.791 59.5873 170.991C59.4284 171.192 59.3054 171.455 59.2178 171.781C59.1302 172.107 59.0858 172.512 59.0858 172.997C59.0858 173.481 59.1296 173.855 59.2178 174.169C59.3054 174.482 59.429 174.735 59.5873 174.927C59.7457 175.119 59.9339 175.257 60.1512 175.34C60.3685 175.424 60.6027 175.466 60.8532 175.466C61.1037 175.466 61.3401 175.424 61.5614 175.34C61.7827 175.257 61.9753 175.119 62.1382 174.927C62.301 174.735 62.4285 174.482 62.5206 174.169C62.6122 173.855 62.6582 173.465 62.6582 172.997ZM75.2804 182.473C75.2804 183.158 75.1653 183.776 74.9356 184.328C74.7059 184.879 74.3987 185.349 74.0145 185.738C73.6298 186.127 73.1828 186.428 72.6734 186.64C72.1635 186.853 71.6333 186.96 71.0812 186.96C70.4798 186.96 69.9238 186.853 69.4144 186.64C68.9044 186.428 68.4636 186.127 68.0918 185.738C67.72 185.349 67.4297 184.879 67.2207 184.328C67.0118 183.776 66.9074 183.158 66.9074 182.473C66.9074 181.788 67.0118 181.136 67.2207 180.568C67.4297 179.999 67.72 179.519 68.0918 179.126C68.4636 178.734 68.9044 178.43 69.4144 178.217C69.9238 178.005 70.4798 177.898 71.0812 177.898C71.6827 177.898 72.2404 178.005 72.7548 178.217C73.2687 178.43 73.7135 178.734 74.0898 179.126C74.4661 179.519 74.7581 179.999 74.967 180.568C75.1759 181.136 75.2804 181.771 75.2804 182.473ZM72.8992 182.473C72.8992 181.988 72.8509 181.583 72.7548 181.257C72.6588 180.931 72.5291 180.668 72.3662 180.467C72.2033 180.267 72.0107 180.122 71.7894 180.035C71.5682 179.947 71.3317 179.903 71.0812 179.903C70.8308 179.903 70.5966 179.947 70.3792 180.035C70.1619 180.122 69.976 180.267 69.8216 180.467C69.6666 180.668 69.5436 180.931 69.452 181.257C69.3599 181.583 69.3144 181.988 69.3144 182.473C69.3144 182.957 69.3605 183.334 69.452 183.651C69.5441 183.969 69.6671 184.223 69.8216 184.415C69.976 184.607 70.1619 184.746 70.3792 184.829C70.5966 184.912 70.8302 184.954 71.0812 184.954C71.3323 184.954 71.5682 184.912 71.7894 184.829C72.0107 184.746 72.2028 184.607 72.3662 184.415C72.5291 184.223 72.6588 183.968 72.7548 183.651C72.8509 183.334 72.8992 182.941 72.8992 182.473Z" fill="#4CBA31"/>
<path d="M65.6168 172.997C65.6168 173.682 65.5017 174.3 65.272 174.852C65.0417 175.403 64.7351 175.873 64.3504 176.262C63.9662 176.651 63.5186 176.949 63.0093 177.158C62.4993 177.367 61.9686 177.472 61.4171 177.472C60.8156 177.472 60.2596 177.367 59.7502 177.158C59.2403 176.949 58.7994 176.651 58.4277 176.262C58.0559 175.873 57.7655 175.403 57.5566 174.852C57.3477 174.3 57.2432 173.682 57.2432 172.997C57.2432 172.312 57.3477 171.66 57.5566 171.092C57.7655 170.523 58.0559 170.043 58.4277 169.65C58.7994 169.258 59.2403 168.954 59.7502 168.741C60.2596 168.529 60.8156 168.422 61.4171 168.422C62.0186 168.422 62.5763 168.529 63.0901 168.741C63.604 168.954 64.0488 169.258 64.4251 169.65C64.8014 170.043 65.0934 170.523 65.3023 171.092C65.5112 171.66 65.6157 172.295 65.6157 172.997H65.6168ZM71.6457 169.099C71.7457 168.973 71.8715 168.86 72.022 168.76C72.1725 168.659 72.3814 168.609 72.6487 168.609H74.8924L61.4306 186.27C61.3301 186.404 61.2026 186.515 61.0481 186.603C60.8937 186.69 60.7078 186.734 60.4905 186.734H58.1839L71.6457 169.099ZM63.2227 172.997C63.2227 172.512 63.1766 172.107 63.0851 171.781C62.993 171.455 62.8655 171.192 62.7026 170.991C62.5398 170.791 62.3471 170.646 62.1259 170.559C61.9046 170.471 61.6687 170.427 61.4177 170.427C61.1666 170.427 60.933 170.471 60.7157 170.559C60.4983 170.646 60.3102 170.791 60.1518 170.991C59.9929 171.192 59.8699 171.455 59.7823 171.781C59.6947 172.107 59.6503 172.512 59.6503 172.997C59.6503 173.481 59.6941 173.855 59.7823 174.169C59.8699 174.482 59.9934 174.735 60.1518 174.927C60.3102 175.119 60.4983 175.257 60.7157 175.34C60.933 175.424 61.1672 175.466 61.4177 175.466C61.6681 175.466 61.9046 175.424 62.1259 175.34C62.3471 175.257 62.5398 175.119 62.7026 174.927C62.8655 174.735 62.993 174.482 63.0851 174.169C63.1766 173.855 63.2227 173.465 63.2227 172.997ZM75.8448 182.473C75.8448 183.158 75.7297 183.776 75.5 184.328C75.2703 184.879 74.9631 185.349 74.579 185.738C74.1943 186.127 73.7472 186.428 73.2379 186.64C72.7279 186.853 72.1978 186.96 71.6457 186.96C71.0442 186.96 70.4882 186.853 69.9788 186.64C69.4689 186.428 69.028 186.127 68.6562 185.738C68.2845 185.349 67.9941 184.879 67.7852 184.328C67.5763 183.776 67.4718 183.158 67.4718 182.473C67.4718 181.788 67.5763 181.136 67.7852 180.568C67.9941 179.999 68.2845 179.519 68.6562 179.126C69.028 178.734 69.4689 178.43 69.9788 178.217C70.4882 178.005 71.0442 177.898 71.6457 177.898C72.2472 177.898 72.8049 178.005 73.3193 178.217C73.8332 178.43 74.278 178.734 74.6542 179.126C75.0305 179.519 75.3225 179.999 75.5315 180.568C75.7404 181.136 75.8448 181.771 75.8448 182.473ZM73.4631 182.473C73.4631 181.988 73.4148 181.583 73.3187 181.257C73.2227 180.931 73.093 180.668 72.9301 180.467C72.7672 180.267 72.5746 180.122 72.3533 180.035C72.132 179.947 71.8956 179.903 71.6451 179.903C71.3947 179.903 71.1605 179.947 70.9431 180.035C70.7258 180.122 70.5399 180.267 70.3854 180.467C70.231 180.668 70.1074 180.931 70.0159 181.257C69.9238 181.583 69.8783 181.988 69.8783 182.473C69.8783 182.957 69.9244 183.334 70.0159 183.651C70.108 183.969 70.231 184.223 70.3854 184.415C70.5399 184.607 70.7258 184.746 70.9431 184.829C71.1605 184.912 71.3941 184.954 71.6451 184.954C71.8962 184.954 72.132 184.912 72.3533 184.829C72.5746 184.746 72.7667 184.607 72.9301 184.415C73.093 184.223 73.2227 183.968 73.3187 183.651C73.4148 183.334 73.4631 182.941 73.4631 182.473Z" fill="#22AB00"/>
<path d="M175.042 172.489C175.042 172.489 173.2 179.746 170.806 182.421L167.981 185.665L171.88 186.167L176.469 181.635C176.469 181.635 175.579 180.431 177.083 176.518L175.041 172.488L175.042 172.489Z" fill="#DE995F"/>
<path d="M169.255 187.084C171.65 187.486 172.387 186.617 172.387 186.617L174.193 185.207L175.732 184.008L175.579 186.315H176.254L176.468 183.739C176.847 182.937 176.905 182.313 176.823 181.843C176.669 180.979 176.145 180.627 176.145 180.627C175.746 182.667 171.865 184.944 171.865 184.944C169.471 185.647 169.195 184.269 169.195 184.269L166.494 185.545C165.633 187.051 169.256 187.084 169.256 187.084L169.255 187.084Z" fill="#040C2B"/>
<path opacity="0.15" d="M174.193 185.208L175.732 184.009L175.579 186.316H176.254L176.468 183.74C176.847 182.938 176.905 182.314 176.823 181.844L176.402 182.784C176.402 182.784 174.055 183.793 174.193 185.208Z" fill="black"/>
<path d="M173.027 170.761L173.895 171.518C173.92 171.54 173.942 171.563 173.962 171.588C174.048 171.695 174.094 171.834 174.088 171.978C174.063 172.594 174.134 173.101 174.215 173.467C174.306 173.879 174.412 174.11 174.412 174.11C174.449 174.179 174.486 174.248 174.523 174.314C175.533 176.158 176.399 176.95 176.817 177.253C176.987 177.378 177.083 177.42 177.083 177.42L178.355 175.28L180.838 171.103L181.5 169.988L181.933 169.26L182.271 168.691C182.456 168.528 182.638 168.371 182.817 168.221C183.469 167.675 184.085 167.21 184.661 166.817C184.82 166.708 184.976 166.605 185.128 166.506C185.369 166.351 185.602 166.209 185.827 166.078C186.705 165.567 187.457 165.234 188.062 165.017C189.153 164.625 189.761 164.611 189.761 164.611C190.624 164.75 191.428 164.855 192.178 164.933C193.563 165.076 194.76 165.124 195.784 165.113C197.241 165.097 198.348 164.959 199.152 164.799C200.553 164.521 201.685 163.388 202.05 161.89C202.519 159.965 202.223 157.836 201.956 156.572C201.876 156.195 201.8 155.897 201.746 155.701C201.7 155.538 201.672 155.447 201.672 155.447L198.418 155.949L195.875 156.236L195.865 156.237L195.007 156.334L193.193 156.539L192.806 156.583L186.517 157.294L178.005 158.256L175.448 163.334L174.759 164.704L174.731 164.759L174.494 165.229L174.41 165.396L172.676 168.84C172.35 169.488 172.498 170.298 173.028 170.76L173.027 170.761Z" fill="#040C2B"/>
<path d="M176.039 183.909H178.833L181.995 178.659L181.197 176.418L181.685 171.67L181.933 169.262L181.995 168.659L177.083 166.318L177.392 168.406L178.281 174.411C178.317 174.703 178.342 174.993 178.355 175.282C178.564 179.829 176.04 183.909 176.04 183.909H176.039Z" fill="#DE995F"/>
<path d="M181.166 176.954C181.166 176.954 183.283 177.388 182.885 180.131L182.578 180.632L182.516 182.639H181.995L181.749 181.201C181.749 181.201 181.043 181.502 179.631 183.341C179.631 183.341 179.017 185.95 174.566 185.515C174.566 185.515 173.574 184.473 176.572 182.92C176.572 182.92 177.727 183.609 179.017 182.538C179.017 182.538 181.687 178.893 181.166 176.953V176.954Z" fill="#040C2B"/>
<path opacity="0.15" d="M174.758 164.705L174.766 165.598C174.766 165.598 175.908 167.154 177.392 168.405C178.465 169.31 179.716 170.318 180.837 171.104C181.13 171.31 181.415 171.5 181.685 171.669L181.933 169.261L182.271 168.691C182.455 168.528 182.638 168.372 182.817 168.221L175.447 163.334L174.758 164.704V164.705Z" fill="black"/>
<path opacity="0.15" d="M184.661 166.818C185.07 166.538 185.46 166.293 185.826 166.08C187.14 163.191 187.52 158.86 187.52 158.86L195.874 156.238L186.516 157.296L185.739 158.258L184.661 166.818L184.661 166.818Z" fill="black"/>
<path opacity="0.15" d="M193.709 156.916C193.709 156.916 197.066 157.354 198.386 159.495C198.386 159.495 199.921 160.632 201.548 160.966L198.786 159.194C198.786 159.194 196.89 156.546 193.709 156.916Z" fill="black"/>
<path opacity="0.15" d="M187.214 162.07C187.224 162.078 187.395 162.213 187.717 162.438C188.458 162.954 189.992 163.942 192.178 164.934C193.563 165.077 194.76 165.125 195.784 165.114C195.784 165.114 192.056 164.297 188.239 162.559C187.897 162.404 187.555 162.241 187.214 162.07Z" fill="black"/>
<path d="M174.413 165.147C176.685 167.555 182.946 170.766 182.946 170.766C186.722 165.415 186.599 158.292 186.599 158.292L197.543 155.867L194.243 154.011C194.243 154.011 192.588 154.216 190.402 154.366C187.364 154.575 183.298 154.678 181.227 153.978C181.172 153.959 181.116 153.942 181.062 153.926C180.102 153.65 179.367 153.863 178.807 154.313C177.375 155.463 177.083 158.158 177.083 158.158C176.346 161.335 174.413 165.148 174.413 165.148V165.147Z" fill="#040C2B"/>
<path d="M174.396 175.63L174.331 175.434C174.363 175.55 174.389 175.615 174.396 175.63Z" fill="#758CFA"/>
<path opacity="0.15" d="M174.088 171.978C174.064 172.594 174.134 173.101 174.215 173.466C174.302 172.521 174.579 171.26 175.257 169.678L173.963 171.588C174.048 171.694 174.094 171.834 174.089 171.978H174.088Z" fill="black"/>
<path opacity="0.15" d="M178.807 154.311C180.209 154.998 182.793 156.123 184.65 156.1L193.285 156.612L190.402 154.364C187.364 154.573 183.298 154.676 181.227 153.976C181.172 153.957 181.116 153.94 181.062 153.925C180.102 153.648 179.367 153.861 178.807 154.311H178.807Z" fill="black"/>
<path d="M185.955 154.011L179.355 153.342L184.451 155.081L192.124 156.251L185.955 154.011Z" fill="black"/>
<path d="M179.938 147.423L173.921 145.918L178.848 154.061L184.235 154.68L179.938 147.423Z" fill="#231F20"/>
<path d="M192.124 156.251L184.235 155.448L179.355 153.342L184.235 154.68L192.124 156.251Z" fill="#231F20"/>
<path d="M183.238 152.724C183.238 152.724 183.277 153.276 183.758 153.483C183.881 153.536 184.033 153.566 184.22 153.559L185.387 153.058L188.61 153.426L190.981 150.436L191.341 149.981L189.162 149.68L189.017 149.878L187.8 151.55L187.627 151.787C187.627 151.787 186.86 152.355 186.153 151.686C186.153 151.686 185.802 151.14 185.273 151.136C185.085 151.135 184.875 151.202 184.649 151.385C184.649 151.385 183.482 152.054 183.237 152.723L183.238 152.724Z" fill="#DE995F"/>
<path opacity="0.15" d="M183.758 153.483C183.881 153.536 184.033 153.566 184.22 153.56L185.387 153.058L188.61 153.426L190.981 150.436L189.519 150.188L189.018 149.879L187.801 151.55L187.628 151.787C187.628 151.787 186.86 152.356 186.154 151.687C186.154 151.687 185.803 151.141 185.273 151.136C184.747 151.61 183.963 152.462 183.758 153.483V153.483Z" fill="black"/>
<path d="M192.432 139.229L194.335 141.068L198.032 136.915L199.307 135.483L196.484 129.029L194.304 128.26L193.257 134.396L192.432 139.229Z" fill="#D18B4F"/>
<path opacity="0.15" d="M193.257 134.397L194.473 134.999C194.473 134.999 196.008 134.129 197.543 136.47C197.659 136.647 197.825 136.795 198.032 136.916L199.308 135.484L196.484 129.029L194.304 128.26L193.257 134.397Z" fill="black"/>
<path d="M188.906 150.029C188.906 150.029 190.098 150.397 190.466 150.229C190.593 150.172 190.774 148.972 190.956 147.421C191.306 144.452 191.663 140.197 191.663 140.197L191.018 139.695C191.018 139.695 190.776 140.96 190.5 142.582C190.192 144.379 189.842 146.614 189.73 148.056C189.73 148.056 189.064 149.362 188.905 150.03L188.906 150.029Z" fill="white"/>
<path d="M190.145 155.097C190.145 155.097 190.197 155.102 191.624 155.505C191.746 155.539 191.871 155.575 192 155.61C192.032 155.618 192.065 155.628 192.097 155.636C192.965 155.874 193.965 156.123 195.006 156.334C195.08 156.35 195.153 156.364 195.227 156.379C195.266 156.387 195.306 156.394 195.346 156.402C197.63 156.845 200.069 157.089 201.745 156.634C201.816 156.615 201.886 156.594 201.955 156.571C202.069 156.535 202.179 156.494 202.284 156.451L202.271 156.092L202.218 154.647L202.121 152.016L202.12 151.994L202.029 149.491L201.605 137.943L201.548 136.384C201.548 136.384 201.538 136.355 201.517 136.305C201.364 135.929 200.62 134.368 198.895 134.541C198.879 134.542 198.862 134.543 198.846 134.546C198.846 134.546 198.447 134.846 197.857 135.466C197.681 135.65 197.489 135.863 197.285 136.105C196.575 136.946 195.729 138.136 194.979 139.696C194.979 139.696 193.966 140.632 193.72 139.094V135.616H191.172C191.172 135.616 190.94 136.363 190.767 139.147C190.723 139.861 190.683 140.706 190.652 141.708C190.633 142.314 190.617 142.977 190.605 143.7C190.587 144.889 190.58 146.245 190.589 147.788L190.464 149.857L190.441 150.24L190.434 150.341L190.383 151.188L190.252 153.334L190.188 154.378L190.145 155.096V155.097Z" fill="white"/>
<path opacity="0.15" d="M188.906 150.031C188.906 150.031 190.098 150.399 190.466 150.231C190.593 150.174 190.774 148.974 190.956 147.423L190.5 142.584C190.192 144.381 189.842 146.616 189.73 148.058C189.73 148.058 189.064 149.364 188.905 150.032L188.906 150.031Z" fill="black"/>
<path opacity="0.15" d="M191.625 155.505C191.746 155.539 191.871 155.575 192 155.61C192.032 155.619 192.065 155.628 192.097 155.637C192.965 155.874 193.965 156.123 195.007 156.335C195.08 156.35 195.153 156.364 195.227 156.379C195.267 156.387 195.306 156.394 195.346 156.402C197.63 156.846 200.069 157.09 201.745 156.634C201.816 156.615 201.886 156.594 201.955 156.572C201.965 156.568 201.976 156.565 201.986 156.561C202.089 156.528 202.188 156.491 202.284 156.451L202.272 156.092L202.227 154.872L202.218 154.647L202.122 152.016L202.12 151.994L202.029 149.491L201.605 137.943L199.015 137.365C198.978 137.388 197.506 138.333 198.203 144.343L199.001 150.597C199.001 150.597 198.909 151.232 197.62 152.135L196.721 152.64L194.265 154.02L191.765 155.424L191.625 155.503L191.625 155.505Z" fill="black"/>
<path d="M199.533 155.335L190.989 155.683C190.989 155.683 189.076 155.519 188.682 154.464C188.682 154.464 187.657 153.512 186.345 154.464C186.345 154.464 184.174 154.479 184.665 153.107C184.665 153.107 186.63 150.432 188.901 152.372L190.589 153.576L198.724 152.338L199.532 155.335H199.533Z" fill="#DE995F"/>
<path d="M197.619 152.137L197.77 152.482L199.021 155.354L199.062 155.447L199.532 155.333L201.548 154.845C201.614 154.83 201.68 154.814 201.745 154.797C201.913 154.752 202.071 154.702 202.218 154.647C203.463 154.18 203.971 153.352 204.159 152.596C204.288 152.074 204.264 151.585 204.222 151.275C204.193 151.063 204.157 150.933 204.157 150.933L203.563 146.066L202.715 139.127C202.178 136.201 201.548 136.385 201.548 136.385C200.259 135.849 199.483 136.479 199.016 137.366C198.893 137.599 198.792 137.85 198.709 138.103C198.389 139.07 198.323 140.114 198.494 141.123L200.048 150.318L200.125 150.775L200.168 151.032L197.62 152.136L197.619 152.137Z" fill="white"/>
<path d="M188.595 131.57C188.595 131.57 188.959 132.536 189.373 133.509C189.497 133.801 189.536 134.127 189.486 134.445C189.322 135.478 189.135 137.962 190.817 139.186C191.111 139.4 191.461 139.575 191.879 139.697C191.879 139.697 193.665 140.19 194.616 137.585C194.855 136.931 195.041 136.082 195.132 134.982C195.132 134.98 195.132 134.978 195.132 134.976C195.147 134.785 195.096 134.595 194.991 134.441L194.752 134.091L192.673 130.392L189.821 125.316C189.821 125.316 188.837 125.941 188.432 127.614C188.201 128.567 188.159 129.859 188.593 131.57L188.595 131.57Z" fill="#040C2B"/>
<path d="M192.83 134.881C192.83 134.881 194.672 135.984 196.084 131.135H198.448L196.821 126.186L191.326 125.316C191.326 125.316 187.06 131.303 192.83 134.881V134.881Z" fill="#DE995F"/>
<path d="M191.664 123.176C191.664 123.176 196.25 120.857 198.758 127.064C198.821 127.219 198.895 127.369 198.98 127.511L200.206 129.548C200.543 130.107 200.745 130.749 200.794 131.415L200.85 132.159C200.884 132.612 201.103 133.024 201.446 133.282L203.267 134.647L201.947 134.112C201.947 134.112 202.838 136.787 204.188 137.623C204.188 137.623 201.519 135.853 199.481 135.939C199.312 135.946 199.143 135.928 198.977 135.889C198.085 135.682 195.744 134.849 196.545 131.905C196.545 131.905 196.391 130.767 195.286 129.898C195.286 129.898 191.115 128.874 189.931 131.108C189.931 131.108 187.182 124.881 191.664 123.176Z" fill="#040C2B"/>
<path opacity="0.15" d="M200.033 150.287C200.033 150.287 200.489 151.553 202.209 152.021C202.209 152.021 200.13 152.031 200.033 150.287Z" fill="black"/>
</svg>
