<svg width="23" height="33" viewBox="0 0 23 33" fill="none" xmlns="http://www.w3.org/2000/svg">
<path d="M20.2619 0H2.7381C2.01217 0.000869541 1.31623 0.289626 0.80293 0.80293C0.289626 1.31623 0.000869541 2.01217 0 2.73809V24.0952C0.000796525 24.7262 0.219097 25.3376 0.618108 25.8264C1.01712 26.3152 1.57244 26.6515 2.19048 26.7786V27.9286C2.19188 28.2671 2.29786 28.597 2.49391 28.873C2.68995 29.1491 2.9665 29.3578 3.28571 29.4707V31.7619C3.28571 32.0524 3.40111 32.331 3.6065 32.5364C3.8119 32.7417 4.09048 32.8571 4.38095 32.8571H5.47619C5.76667 32.8571 6.04524 32.7417 6.25064 32.5364C6.45604 32.331 6.57143 32.0524 6.57143 31.7619V29.4707C6.89064 29.3578 7.16719 29.1491 7.36324 28.873C7.55929 28.597 7.66526 28.2671 7.66667 27.9286V26.8333H8.7619V27.9286C8.76331 28.2671 8.86928 28.597 9.06533 28.873C9.26138 29.1491 9.53793 29.3578 9.85714 29.4707V31.7619C9.85714 32.0524 9.97253 32.331 10.1779 32.5364C10.3833 32.7417 10.6619 32.8571 10.9524 32.8571H12.0476C12.3381 32.8571 12.6167 32.7417 12.8221 32.5364C13.0275 32.331 13.1429 32.0524 13.1429 31.7619V29.4707C13.4621 29.3578 13.7386 29.1491 13.9347 28.873C14.1307 28.597 14.2367 28.2671 14.2381 27.9286V26.8333H15.3333V27.9286C15.3347 28.2671 15.4407 28.597 15.6368 28.873C15.8328 29.1491 16.1094 29.3578 16.4286 29.4707V31.7619C16.4286 32.0524 16.544 32.331 16.7494 32.5364C16.9548 32.7417 17.2333 32.8571 17.5238 32.8571H18.619C18.9095 32.8571 19.1881 32.7417 19.3935 32.5364C19.5989 32.331 19.7143 32.0524 19.7143 31.7619V29.4707C20.0335 29.3578 20.31 29.1491 20.5061 28.873C20.7021 28.597 20.8081 28.2671 20.8095 27.9286V26.7786C21.4276 26.6515 21.9829 26.3152 22.3819 25.8264C22.7809 25.3376 22.9992 24.7262 23 24.0952V2.73809C22.9991 2.01217 22.7104 1.31623 22.1971 0.80293C21.6838 0.289626 20.9878 0.000869541 20.2619 0ZM2.7381 1.09524H20.2619C20.6976 1.09524 21.1155 1.26832 21.4236 1.57642C21.7317 1.88452 21.9048 2.30238 21.9048 2.73809V6.02381H1.09524V2.73809C1.09524 2.30238 1.26832 1.88452 1.57642 1.57642C1.88452 1.26832 2.30238 1.09524 2.7381 1.09524ZM4.38095 31.7619V29.5714H5.47619V31.7619H4.38095ZM6.57143 27.9286C6.57143 28.0738 6.51373 28.2131 6.41104 28.3158C6.30834 28.4185 6.16905 28.4762 6.02381 28.4762H3.83333C3.6881 28.4762 3.54881 28.4185 3.44611 28.3158C3.34341 28.2131 3.28571 28.0738 3.28571 27.9286V26.8333H6.57143V27.9286ZM10.9524 31.7619V29.5714H12.0476V31.7619H10.9524ZM13.1429 27.9286C13.1429 28.0738 13.0852 28.2131 12.9825 28.3158C12.8798 28.4185 12.7405 28.4762 12.5952 28.4762H10.4048C10.2595 28.4762 10.1202 28.4185 10.0175 28.3158C9.91484 28.2131 9.85714 28.0738 9.85714 27.9286V26.8333H13.1429V27.9286ZM17.5238 31.7619V29.5714H18.619V31.7619H17.5238ZM19.1667 28.4762H16.9762C16.831 28.4762 16.6917 28.4185 16.589 28.3158C16.4863 28.2131 16.4286 28.0738 16.4286 27.9286V26.8333H19.7143V27.9286C19.7143 28.0738 19.6566 28.2131 19.5539 28.3158C19.4512 28.4185 19.3119 28.4762 19.1667 28.4762ZM20.2619 25.7381H2.7381C2.30238 25.7381 1.88452 25.565 1.57642 25.2569C1.26832 24.9488 1.09524 24.5309 1.09524 24.0952V7.11905H21.9048V24.0952C21.9048 24.5309 21.7317 24.9488 21.4236 25.2569C21.1155 25.565 20.6976 25.7381 20.2619 25.7381Z" fill="#22AB00"/>
<path d="M14.666 13.2125C14.5165 13.225 14.3728 13.2763 14.2491 13.3611C14.1253 13.446 14.0257 13.5616 13.9602 13.6966C13.8981 13.8286 13.7957 13.9374 13.6677 14.0075C13.5398 14.0776 13.3929 14.1052 13.2483 14.0865C13.0715 14.0387 12.917 13.9309 12.811 13.7817C12.705 13.6324 12.6542 13.4509 12.6672 13.2683C12.6639 12.3557 12.868 11.4543 13.2641 10.6321C13.3488 10.4638 13.3792 10.2733 13.3512 10.087C13.3231 9.90064 13.238 9.72758 13.1075 9.59163C12.9824 9.45775 12.8187 9.36611 12.6391 9.32941C12.4596 9.29272 12.273 9.31278 12.1054 9.38682C10.416 10.1272 6.44464 12.3598 6.04871 17.0798C5.97739 17.9052 6.07005 18.7366 6.32136 19.5261C6.57268 20.3155 6.97768 21.0475 7.51305 21.6798C7.96187 22.2165 8.51374 22.6578 9.13603 22.9776C9.75832 23.2974 10.4384 23.4892 11.1361 23.5417C11.2599 23.5493 11.3825 23.5537 11.5052 23.5537C12.8701 23.5536 14.1831 23.0305 15.1742 22.0921C15.7493 21.5483 16.2069 20.8925 16.5189 20.1652C16.8309 19.4378 16.9907 18.6543 16.9885 17.8629C16.9371 16.3132 16.4072 14.8174 15.4716 13.581C15.3804 13.4555 15.2583 13.3555 15.1172 13.291C14.9761 13.2264 14.8207 13.1994 14.666 13.2125ZM14.4235 21.2855C13.9975 21.6915 13.4915 22.0041 12.9377 22.2033C12.384 22.4024 11.7948 22.4838 11.2078 22.4421C10.6555 22.3997 10.1173 22.247 9.62499 21.993C9.13268 21.7391 8.69629 21.389 8.3416 20.9635C7.90083 20.4421 7.56749 19.8388 7.36073 19.1882C7.15397 18.5375 7.07788 17.8525 7.13683 17.1723C7.44514 13.5033 10.1794 11.5373 12.0742 10.6075C11.7439 11.4523 11.5727 12.3509 11.5693 13.2579C11.5519 13.7032 11.6937 14.1402 11.9693 14.4904C12.2449 14.8406 12.6361 15.0812 13.073 15.1691C13.3911 15.2201 13.717 15.1824 14.0151 15.0602C14.3131 14.938 14.5717 14.736 14.7624 14.4764C15.4589 15.4703 15.8509 16.6455 15.8905 17.8585C15.8927 18.4996 15.7636 19.1343 15.5113 19.7237C15.259 20.313 14.8888 20.8445 14.4235 21.2855Z" fill="#22AB00"/>
<path d="M12.595 18.0713H11.2906L11.9926 16.6732C12.0575 16.5433 12.0682 16.3928 12.0221 16.255C11.9761 16.1172 11.8773 16.0033 11.7473 15.9383C11.6173 15.8734 11.4668 15.8628 11.329 15.9088C11.1912 15.9548 11.0773 16.0537 11.0124 16.1837L9.91713 18.3742C9.87551 18.4575 9.85581 18.55 9.85991 18.643C9.864 18.7361 9.89176 18.8265 9.94054 18.9058C9.98933 18.9852 10.0575 19.0507 10.1387 19.0964C10.2199 19.142 10.3114 19.1661 10.4045 19.1666H11.7089L11.0096 20.5646C10.9447 20.6946 10.9341 20.8451 10.9801 20.9829C11.0261 21.1207 11.125 21.2346 11.255 21.2995C11.385 21.3645 11.5354 21.3751 11.6732 21.3291C11.8111 21.2831 11.925 21.1842 11.9899 21.0542L13.0851 18.8637C13.1268 18.7802 13.1465 18.6874 13.1423 18.5942C13.1381 18.5009 13.1101 18.4103 13.061 18.3309C13.0119 18.2515 12.9433 18.186 12.8617 18.1405C12.7802 18.0951 12.6883 18.0713 12.595 18.0713Z" fill="#22AB00"/>
</svg>
