<svg width="35" height="34" viewBox="0 0 35 34" fill="none" xmlns="http://www.w3.org/2000/svg">
<path d="M35 26.0569V6.27089L28.8249 0.0957715L23.1624 5.75819L21.0562 3.65204L20.3311 4.37699L22.6497 6.69554V8.14572L17.5 2.99599L12.3502 8.14572V6.69554L17.5 1.54581L19.6062 3.65204L20.3311 2.92695L17.5 0.0957715L11.8375 5.75819L6.17512 0.0957031L0 6.27082V12.8495H1.02539V9.59583L6.17512 4.44603L8.28128 6.55219L9.0063 5.82717L6.17512 2.99599L1.02539 8.14579V6.69554L6.17512 1.54581L11.3248 6.69547V8.14572L9.73132 6.55219L9.0063 7.27721L11.3248 9.59576V17.8537H1.02539V13.8749H0V33.2345H35V27.0821H33.9746V32.2091H32.9492V30.1583H30.8757V25.0313H26.7741V30.1583H24.7005V32.2091H23.6751V20.9299H28.3121V19.9045H23.6751V18.8791H33.9746V19.9045H29.3375V20.9299H33.9746V26.0569H35ZM8.2259 31.1838H9.27413V32.2092H8.2259V31.1838ZM7.20051 32.2092H5.14973V26.0568H7.20051V32.2092ZM4.12433 32.2092H3.07611V31.1838H4.12433V32.2092ZM19.5508 31.1838H20.599V32.2092H19.5508V31.1838ZM18.5254 32.2092H16.4746V26.0568H18.5254V32.2092ZM15.4492 32.2092H14.401V31.1838H15.4492V32.2092ZM31.9238 31.1838V32.2092H30.8757V31.1838H31.9238ZM29.8503 26.0568V32.2092H27.7995V26.0568H29.8503ZM25.7259 31.1838H26.7741V32.2092H25.7259V31.1838ZM22.6497 32.2092H21.6244V30.1584H19.5508V25.0314H15.4492V30.1584H13.3756V32.2092H12.3502V27.0822H11.3248V32.2092H10.2995V30.1584H8.2259V25.0314H4.12433V30.1584H2.05072V32.2092H1.02539V20.9299H5.66242V19.9045H1.02539V18.8791H11.3248V19.9045H6.68782V20.9299H11.3248V26.0569H12.3502V20.9299H22.6497V32.2092ZM23.6751 17.8537V13.875H22.6497V17.8537H18.0127V18.8791H22.6497V19.9045H12.3502V18.8791H16.9873V17.8537H12.3502V9.5959L17.5 4.4461L22.6497 9.5959V12.8496H23.6751V9.59583L28.8249 4.4461L30.931 6.55226L31.6561 5.82724L28.8249 2.99599L23.6751 8.14572V6.69547L28.8249 1.54581L33.9746 6.69554V8.14572L32.3811 6.55219L31.6561 7.27721L33.9746 9.59576V17.8537H23.6751V17.8537Z" fill="#22AB00"/>
<path d="M19.5508 9.3457H15.4492V15.4981H14.4238V16.5235H20.5762V15.4981H19.5508V9.3457ZM18.5254 15.4981H16.4746V13.4473H18.5254V15.4981ZM18.5254 12.4219H16.4746V10.3711H18.5254V12.4219Z" fill="#22AB00"/>
<path d="M4.12403 9.3457V15.4981H3.09863V16.5235H9.25099V15.4981H8.2256V9.3457H4.12403ZM7.2002 15.4981H5.14942V13.4473H7.2002V15.4981ZM7.2002 12.4219H5.14942V10.3711H7.2002V12.4219Z" fill="#22AB00"/>
<path d="M30.876 9.3457H26.7744V15.4981H25.749V16.5235H31.9014V15.4981H30.876V9.3457ZM29.8506 15.4981H27.7998V13.4473H29.8506V15.4981ZM29.8506 12.4219H27.7998V10.3711H29.8506V12.4219Z" fill="#22AB00"/>
<path d="M31.9014 9.85938H32.9268V10.8848H31.9014V9.85938Z" fill="#22AB00"/>
<path d="M9.25098 11.9102H10.2764V12.9355H9.25098V11.9102Z" fill="#22AB00"/>
<path d="M9.25098 9.85938H10.2764V10.8848H9.25098V9.85938Z" fill="#22AB00"/>
<path d="M20.5991 21.9551H21.6245V22.9805H20.5991V21.9551Z" fill="#22AB00"/>
<path d="M9.27441 21.9551H10.2998V22.9805H9.27441V21.9551Z" fill="#22AB00"/>
<path d="M20.5762 11.9102H21.6016V12.9355H20.5762V11.9102Z" fill="#22AB00"/>
<path d="M31.9238 21.9551H32.9492V22.9805H31.9238V21.9551Z" fill="#22AB00"/>
<path d="M20.5762 9.85938H21.6016V10.8848H20.5762V9.85938Z" fill="#22AB00"/>
<path d="M31.9014 11.9102H32.9268V12.9355H31.9014V11.9102Z" fill="#22AB00"/>
<path d="M15.4492 22.9805H16.9873V24.0059H15.4492V22.9805Z" fill="#22AB00"/>
<path d="M26.7744 22.9805H28.3125V24.0059H26.7744V22.9805Z" fill="#22AB00"/>
<path d="M29.3379 22.9805H30.876V24.0059H29.3379V22.9805Z" fill="#22AB00"/>
<path d="M4.12451 22.9805H5.6626V24.0059H4.12451V22.9805Z" fill="#22AB00"/>
<path d="M18.0127 22.9805H19.5508V24.0059H18.0127V22.9805Z" fill="#22AB00"/>
<path d="M6.68799 22.9805H8.22608V24.0059H6.68799V22.9805Z" fill="#22AB00"/>
</svg>
