<svg width="34" height="35" viewBox="0 0 34 35" fill="none" xmlns="http://www.w3.org/2000/svg">
<path d="M5.70724 16.6657H7.79867C8.12612 16.6653 8.44005 16.5351 8.67159 16.3035C8.90313 16.072 9.03337 15.7581 9.03375 15.4306V13.3386C9.03337 13.0111 8.90313 12.6972 8.67159 12.4657C8.44005 12.2341 8.12612 12.1039 7.79867 12.1035H5.70724C5.3798 12.1039 5.06587 12.2341 4.83433 12.4657C4.60279 12.6972 4.47254 13.0111 4.47217 13.3386V15.4306C4.47254 15.7581 4.60279 16.072 4.83433 16.3035C5.06587 16.5351 5.3798 16.6653 5.70724 16.6657ZM5.70724 13.3386H7.79867L7.79929 15.4306H5.70724V13.3386Z" fill="#22AB00"/>
<path d="M11.7898 16.6657H13.8818C14.2092 16.6653 14.5232 16.5351 14.7547 16.3035C14.9863 16.072 15.1165 15.7581 15.1169 15.4306V13.3386C15.1165 13.0111 14.9863 12.6972 14.7547 12.4657C14.5232 12.2341 14.2092 12.1039 13.8818 12.1035H11.7898C11.4623 12.1039 11.1484 12.2341 10.9168 12.4657C10.6853 12.6972 10.5551 13.0111 10.5547 13.3386V15.4306C10.5551 15.7581 10.6853 16.072 10.9168 16.3035C11.1484 16.5351 11.4623 16.6653 11.7898 16.6657ZM11.7898 13.3386H13.8818L13.8824 15.4306H11.7898V13.3386Z" fill="#22AB00"/>
<path d="M7.79865 22.5677C8.12609 22.5674 8.44002 22.4371 8.67156 22.2056C8.9031 21.974 9.03335 21.6601 9.03372 21.3327V19.2409C9.03335 18.9135 8.9031 18.5996 8.67156 18.368C8.44002 18.1365 8.12609 18.0062 7.79865 18.0059H5.70724C5.3798 18.0062 5.06587 18.1365 4.83433 18.368C4.60279 18.5996 4.47254 18.9135 4.47217 19.2409V21.3327C4.47254 21.6601 4.60279 21.974 4.83433 22.2056C5.06587 22.4371 5.3798 22.5674 5.70724 22.5677L7.79865 22.5677ZM5.70724 19.2409H7.79867L7.79929 21.3327H5.70724V19.2409Z" fill="#22AB00"/>
<path d="M11.7898 22.5677H13.8818C14.2092 22.5674 14.5232 22.4371 14.7547 22.2056C14.9863 21.974 15.1165 21.6601 15.1169 21.3327V19.2409C15.1165 18.9135 14.9863 18.5996 14.7547 18.368C14.5232 18.1365 14.2092 18.0062 13.8818 18.0059H11.7898C11.4623 18.0062 11.1484 18.1365 10.9168 18.368C10.6853 18.5996 10.5551 18.9135 10.5547 19.2409V21.3327C10.5551 21.6601 10.6853 21.974 10.9169 22.2056C11.1484 22.4371 11.4623 22.5674 11.7898 22.5677ZM11.7898 19.2409H13.8818L13.8824 21.3327H11.7898V19.2409Z" fill="#22AB00"/>
<path d="M22.2143 12.1035H20.1223C19.7948 12.1039 19.4809 12.2341 19.2494 12.4657C19.0178 12.6972 18.8876 13.0111 18.8872 13.3386V15.4306C18.8876 15.7581 19.0178 16.072 19.2494 16.3035C19.4809 16.5351 19.7948 16.6653 20.1223 16.6657H22.2143C22.5418 16.6653 22.8557 16.5351 23.0872 16.3035C23.3188 16.072 23.449 15.7581 23.4494 15.4306V13.3386C23.449 13.0111 23.3188 12.6972 23.0872 12.4657C22.8557 12.2341 22.5418 12.1039 22.2143 12.1035ZM20.1223 15.4306V13.3386H22.2143L22.2149 15.4306H20.1223Z" fill="#22AB00"/>
<path d="M28.2972 12.1035H26.2058C25.8783 12.1039 25.5644 12.2341 25.3329 12.4657C25.1013 12.6972 24.9711 13.0111 24.9707 13.3386V15.4306C24.9711 15.7581 25.1013 16.072 25.3329 16.3035C25.5644 16.5351 25.8783 16.6653 26.2058 16.6657H28.2972C28.6246 16.6653 28.9386 16.5351 29.1701 16.3035C29.4016 16.072 29.5319 15.7581 29.5323 15.4306V13.3386C29.5319 13.0111 29.4016 12.6972 29.1701 12.4657C28.9386 12.2341 28.6246 12.1039 28.2972 12.1035ZM26.2058 15.4306V13.3386H28.2972L28.2978 15.4306H26.2058Z" fill="#22AB00"/>
<path d="M22.2143 18.0059H20.1223C19.7948 18.0062 19.4809 18.1365 19.2494 18.368C19.0178 18.5996 18.8876 18.9135 18.8872 19.2409V21.3327C18.8876 21.6601 19.0178 21.974 19.2494 22.2056C19.4809 22.4371 19.7948 22.5674 20.1223 22.5677H22.2143C22.5418 22.5674 22.8557 22.4371 23.0872 22.2056C23.3188 21.974 23.449 21.6601 23.4494 21.3327V19.2409C23.449 18.9135 23.3188 18.5996 23.0872 18.368C22.8557 18.1365 22.5418 18.0062 22.2143 18.0059ZM20.1223 21.3327V19.2409H22.2143L22.2149 21.3327H20.1223Z" fill="#22AB00"/>
<path d="M28.2972 18.0059H26.2058C25.8783 18.0062 25.5644 18.1365 25.3329 18.368C25.1013 18.5996 24.9711 18.9135 24.9707 19.2409V21.3327C24.9711 21.6601 25.1013 21.974 25.3329 22.2056C25.5644 22.4371 25.8783 22.5674 26.2058 22.5677H28.2972C28.6246 22.5674 28.9386 22.4371 29.1701 22.2056C29.4016 21.974 29.5319 21.6601 29.5323 21.3327V19.2409C29.5319 18.9135 29.4016 18.5996 29.1701 18.368C28.9386 18.1365 28.6246 18.0062 28.2972 18.0059ZM26.2058 21.3327V19.2409H28.2972L28.2978 21.3327H26.2058Z" fill="#22AB00"/>
<path d="M32.1472 30.7446C31.8736 30.991 32.1078 11.1385 32.0343 11.1535C32.6188 11.17 33.402 11.2213 33.7597 10.6224C33.8848 10.4405 33.9639 10.2309 33.9902 10.0117C34.0166 9.79256 33.9894 9.57025 33.9111 9.36385L31.2956 2.48889C31.0869 1.89369 30.7014 1.37643 30.1906 1.00633C29.6799 0.636236 29.0683 0.430958 28.4377 0.417969H5.56709C4.93622 0.431048 4.3244 0.636533 3.81354 1.00691C3.30268 1.37729 2.91715 1.8949 2.70857 2.49043L0.0918651 9.36775C0.0153805 9.56076 -0.0139926 9.76922 0.00618133 9.97584C0.0263553 10.1825 0.095495 10.3813 0.207868 10.5559C0.32024 10.7304 0.472608 10.8757 0.652337 10.9796C0.832066 11.0835 1.03398 11.1431 1.24133 11.1534H1.97041V30.7446C1.71814 30.7306 1.46567 30.7682 1.22836 30.8549C0.991057 30.9416 0.773871 31.0757 0.590022 31.249C0.406172 31.4223 0.259502 31.6312 0.158934 31.8629C0.0583667 32.0947 0.00600415 32.3445 0.00503292 32.5972V33.765C0.0054072 34.0925 0.135651 34.4064 0.367192 34.6379C0.598733 34.8695 0.912661 34.9997 1.24011 35.0001H32.7647C33.0921 34.9997 33.4061 34.8695 33.6376 34.6379C33.8691 34.4064 33.9994 34.0925 33.9998 33.765V32.5972C33.9992 32.106 33.8039 31.6351 33.4566 31.2878C33.1092 30.9405 32.6383 30.7451 32.1472 30.7446ZM27.0597 30.7446V25.1322C27.0593 24.8076 26.9302 24.4964 26.7007 24.2669C26.4712 24.0374 26.16 23.9083 25.8355 23.9079H22.5898C22.2652 23.9083 21.9541 24.0374 21.7246 24.2669C21.4951 24.4964 21.366 24.8076 21.3656 25.1322V30.7446H17.6199V10.2081C17.6199 10.0851 17.6477 9.96372 17.701 9.8529C17.7543 9.74208 17.832 9.64469 17.9281 9.56796L23.2411 5.31666C23.5153 5.09606 23.8566 4.97569 24.2085 4.97547C24.5604 4.97524 24.9018 5.09518 25.1763 5.31543L30.4899 9.56734C30.5864 9.644 30.6643 9.74143 30.7178 9.85237C30.7714 9.96331 30.7992 10.0849 30.7993 10.2081V30.7446H27.0597ZM22.5996 30.7446L22.5898 25.143L25.8246 25.1322V30.7446H22.5996ZM1.24794 9.80286L3.86222 2.93094C3.98293 2.56996 4.21073 2.25431 4.5153 2.02602C4.81986 1.79773 5.18674 1.66763 5.56709 1.65304H28.4377C28.8178 1.66754 29.1845 1.79743 29.4889 2.02544C29.7933 2.25345 30.0211 2.56877 30.142 2.92943L32.755 9.79892C32.7804 9.86556 32.7496 9.91712 32.7635 9.91833H32.0019C31.9323 9.40177 31.6677 8.93139 31.2625 8.60365L25.9483 4.35114C25.4554 3.95493 24.842 3.73895 24.2096 3.73895C23.5773 3.73895 22.9639 3.95493 22.471 4.35114L17.155 8.60455C16.9888 8.77424 17.0171 8.77913 16.8486 8.6036L11.532 4.34993C11.0393 3.95405 10.4261 3.73835 9.79405 3.73857C9.162 3.73879 8.54898 3.95491 8.05654 4.35114L2.74173 8.60427C2.33583 8.93264 2.07128 9.40415 2.00254 9.9217L1.26601 9.92588C1.25223 9.90889 1.24328 9.8885 1.2401 9.86685C1.23692 9.8452 1.23963 9.8231 1.24794 9.80286ZM3.20549 10.2081C3.20551 10.0851 3.23329 9.96361 3.28675 9.85277C3.34021 9.74194 3.41797 9.64459 3.51426 9.56796L8.82846 5.31545C9.10257 5.09531 9.44361 4.97532 9.79517 4.97532C10.1467 4.97532 10.4878 5.09531 10.7619 5.31545L16.0755 9.56706C16.1719 9.64379 16.2498 9.74127 16.3034 9.85226C16.3569 9.96325 16.3848 10.0849 16.3849 10.2081V30.7446H12.6392V25.1322C12.6388 24.8076 12.5097 24.4964 12.2802 24.2669C12.0507 24.0374 11.7396 23.9083 11.415 23.9079H8.16931C7.84475 23.9083 7.53359 24.0374 7.30409 24.2669C7.07458 24.4964 6.94548 24.8076 6.94509 25.1322V30.7446H3.20549V10.2081ZM8.17907 30.7446L8.16931 25.143L11.4042 25.1322V30.7446H8.17907ZM1.2401 33.765V32.5972C1.24027 32.4335 1.30538 32.2765 1.42116 32.1607C1.53693 32.0449 1.69391 31.9798 1.85764 31.9797H2.58942C8.66466 31.9797 29.4471 31.9796 32.1471 31.9797C32.3108 31.9798 32.4678 32.0449 32.5836 32.1607C32.6994 32.2765 32.7645 32.4335 32.7647 32.5972L32.7653 33.765H1.2401Z" fill="#22AB00"/>
</svg>
