<svg width="41" height="45" viewBox="0 0 41 45" fill="none" xmlns="http://www.w3.org/2000/svg">
<path d="M13.9647 6.21795C13.1987 4.66927 12.5949 3.44669 13.9274 1.44707C14.2125 1.0184 14.0951 0.440702 13.6684 0.155565C13.2453 -0.127737 12.6638 -0.0139969 12.3769 0.414582C10.4462 3.30692 11.4711 5.37931 12.2948 7.04357C13.0645 8.6016 13.6217 9.72721 12.3769 11.5964C12.0899 12.0251 12.2073 12.6028 12.634 12.8879C12.7924 12.9941 12.9732 13.0445 13.1522 13.0445C13.4522 13.0445 13.7466 12.8991 13.9255 12.6289C15.7687 9.86698 14.7698 7.84307 13.9647 6.21795Z" fill="#22AB00"/>
<path d="M21.389 6.21795C20.6212 4.66927 20.0174 3.44669 21.3499 1.44707C21.635 1.0184 21.5176 0.440702 21.0908 0.155565C20.6678 -0.127737 20.0845 -0.0139969 19.7993 0.414582C17.8705 3.30884 18.8954 5.38115 19.7173 7.0454C20.487 8.60344 21.0442 9.72904 19.7993 11.5964C19.5142 12.0251 19.6316 12.6028 20.0584 12.8879C20.2167 12.9941 20.3956 13.0445 20.5746 13.0445C20.8746 13.0445 21.169 12.8991 21.3499 12.6289C23.193 9.86698 22.1941 7.84307 21.389 6.21795Z" fill="#22AB00"/>
<path d="M28.8118 6.21795C28.0441 4.66927 27.4402 3.44669 28.7727 1.44707C29.0578 1.0184 28.9404 0.440702 28.5137 0.155565C28.0906 -0.127737 27.5073 -0.0139969 27.2222 0.414582C25.2933 3.30884 26.3183 5.38115 27.1402 7.0454C27.9099 8.60344 28.467 9.72904 27.2222 11.5964C26.9371 12.0251 27.0545 12.6028 27.4812 12.8879C27.6396 12.9941 27.8185 13.0445 27.9974 13.0445C28.2993 13.0445 28.5938 12.8991 28.7727 12.6289C30.6159 9.86698 29.6169 7.84307 28.8118 6.21795Z" fill="#22AB00"/>
<path d="M36.3409 14.9082H4.65907C2.08908 14.9082 0 16.9992 0 19.5673V36.34C0 38.9081 2.08917 40.9991 4.65907 40.9991H36.3409C38.9109 40.9991 41 38.9081 41 36.34V19.5673C41 16.9992 38.9108 14.9082 36.3409 14.9082ZM39.1364 36.3401C39.1364 37.8814 37.8822 39.1356 36.3409 39.1356H4.65907C3.11781 39.1356 1.86361 37.8814 1.86361 36.3401V19.5674C1.86361 18.0261 3.11781 16.7719 4.65907 16.7719H36.3409C37.8822 16.7719 39.1364 18.0261 39.1364 19.5674V36.3401Z" fill="#22AB00"/>
<path d="M6.52267 18.636C6.0083 18.636 5.59082 19.0535 5.59082 19.5678V36.3406C5.59082 36.8549 6.0083 37.2724 6.52267 37.2724C7.03703 37.2724 7.45452 36.8549 7.45452 36.3406V19.5678C7.45452 19.0535 7.03703 18.636 6.52267 18.636Z" fill="#22AB00"/>
<path d="M12.1135 18.636C11.5991 18.636 11.1816 19.0535 11.1816 19.5678V36.3406C11.1816 36.8549 11.5991 37.2724 12.1135 37.2724C12.6279 37.2724 13.0453 36.8549 13.0453 36.3406V19.5678C13.0453 19.0535 12.6279 18.636 12.1135 18.636Z" fill="#22AB00"/>
<path d="M17.7053 18.636C17.1909 18.636 16.7734 19.0535 16.7734 19.5678V36.3406C16.7734 36.8549 17.1909 37.2724 17.7053 37.2724C18.2197 37.2724 18.6371 36.8549 18.6371 36.3406V19.5678C18.6371 19.0535 18.2197 18.636 17.7053 18.636Z" fill="#22AB00"/>
<path d="M23.2951 18.636C22.7808 18.636 22.3633 19.0535 22.3633 19.5678V36.3406C22.3633 36.8549 22.7808 37.2724 23.2951 37.2724C23.8095 37.2724 24.227 36.8549 24.227 36.3406V19.5678C24.227 19.0535 23.8095 18.636 23.2951 18.636Z" fill="#22AB00"/>
<path d="M28.8859 18.636C28.3716 18.636 27.9541 19.0535 27.9541 19.5678V36.3406C27.9541 36.8549 28.3716 37.2724 28.8859 37.2724C29.4003 37.2724 29.8178 36.8549 29.8178 36.3406V19.5678C29.8178 19.0535 29.4003 18.636 28.8859 18.636Z" fill="#22AB00"/>
<path d="M34.4777 18.636C33.9634 18.636 33.5459 19.0535 33.5459 19.5678V36.3406C33.5459 36.8549 33.9634 37.2724 34.4777 37.2724C34.9921 37.2724 35.4096 36.8549 35.4096 36.3406V19.5678C35.4096 19.0535 34.9921 18.636 34.4777 18.636Z" fill="#22AB00"/>
<path d="M8.38595 39.136C7.87159 39.136 7.4541 39.5535 7.4541 40.0678V43.7951C7.4541 44.3095 7.87159 44.727 8.38595 44.727C8.90031 44.727 9.3178 44.3095 9.3178 43.7951V40.0678C9.31771 39.5534 8.90031 39.136 8.38595 39.136Z" fill="#22AB00"/>
<path d="M32.6135 39.136C32.0991 39.136 31.6816 39.5535 31.6816 40.0678V43.7951C31.6816 44.3095 32.0991 44.727 32.6135 44.727C33.1279 44.727 33.5453 44.3095 33.5453 43.7951V40.0678C33.5453 39.5534 33.1279 39.136 32.6135 39.136Z" fill="#22AB00"/>
</svg>
