<svg width="44" height="33" viewBox="0 0 44 33" fill="none" xmlns="http://www.w3.org/2000/svg">
<path d="M41.6429 0H2.35714C1.7322 0.000682154 1.13305 0.249242 0.691145 0.691145C0.249242 1.13305 0.000682154 1.7322 0 2.35714V27.5C0.000682154 28.1249 0.249242 28.7241 0.691145 29.166C1.13305 29.6079 1.7322 29.8565 2.35714 29.8571V31.4286C2.35756 31.8452 2.52325 32.2447 2.81786 32.5393C3.11247 32.8339 3.51193 32.9996 3.92857 33H8.64286C9.0595 32.9996 9.45896 32.8339 9.75357 32.5393C10.0482 32.2447 10.2139 31.8452 10.2143 31.4286V29.8571H33.7857V31.4286C33.7861 31.8452 33.9518 32.2447 34.2464 32.5393C34.541 32.8339 34.9405 32.9996 35.3571 33H40.0714C40.4881 32.9996 40.8875 32.8339 41.1821 32.5393C41.4767 32.2447 41.6424 31.8452 41.6429 31.4286V29.8571C42.2678 29.8565 42.867 29.6079 43.3089 29.166C43.7508 28.7241 43.9993 28.1249 44 27.5V2.35714C43.9993 1.7322 43.7508 1.13305 43.3089 0.691145C42.867 0.249242 42.2678 0.000682154 41.6429 0ZM8.64286 31.4286H3.92857V29.8571H8.64286V31.4286ZM40.0714 31.4286H35.3571V29.8571H40.0714V31.4286ZM42.4286 27.5C42.4283 27.7083 42.3454 27.908 42.1981 28.0553C42.0508 28.2026 41.8512 28.2854 41.6429 28.2857H2.35714C2.14884 28.2854 1.94915 28.2026 1.80186 28.0553C1.65457 27.908 1.5717 27.7083 1.57143 27.5V2.35714C1.5717 2.14884 1.65457 1.94915 1.80186 1.80186C1.94915 1.65457 2.14884 1.5717 2.35714 1.57143H41.6429C41.8512 1.5717 42.0508 1.65457 42.1981 1.80186C42.3454 1.94915 42.4283 2.14884 42.4286 2.35714V27.5Z" fill="#22AB00"/>
<path d="M38.4997 4.71436H31.4283C31.2199 4.71436 31.0201 4.79714 30.8727 4.94449C30.7254 5.09184 30.6426 5.29169 30.6426 5.50007C30.6426 5.70845 30.7254 5.9083 30.8727 6.05565C31.0201 6.203 31.2199 6.28578 31.4283 6.28578H38.4997C38.7081 6.28578 38.908 6.203 39.0553 6.05565C39.2027 5.9083 39.2854 5.70845 39.2854 5.50007C39.2854 5.29169 39.2027 5.09184 39.0553 4.94449C38.908 4.79714 38.7081 4.71436 38.4997 4.71436Z" fill="#22AB00"/>
<path d="M38.4997 11H31.4283C31.2199 11 31.0201 11.0828 30.8727 11.2301C30.7254 11.3775 30.6426 11.5773 30.6426 11.7857C30.6426 11.9941 30.7254 12.1939 30.8727 12.3413C31.0201 12.4886 31.2199 12.5714 31.4283 12.5714H38.4997C38.7081 12.5714 38.908 12.4886 39.0553 12.3413C39.2027 12.1939 39.2854 11.9941 39.2854 11.7857C39.2854 11.5773 39.2027 11.3775 39.0553 11.2301C38.908 11.0828 38.7081 11 38.4997 11Z" fill="#22AB00"/>
<path d="M38.4997 17.2856H31.4283C31.2199 17.2856 31.0201 17.3684 30.8727 17.5158C30.7254 17.6631 30.6426 17.863 30.6426 18.0714C30.6426 18.2797 30.7254 18.4796 30.8727 18.6269C31.0201 18.7743 31.2199 18.8571 31.4283 18.8571H38.4997C38.7081 18.8571 38.908 18.7743 39.0553 18.6269C39.2027 18.4796 39.2854 18.2797 39.2854 18.0714C39.2854 17.863 39.2027 17.6631 39.0553 17.5158C38.908 17.3684 38.7081 17.2856 38.4997 17.2856Z" fill="#22AB00"/>
<path d="M38.4997 23.571H31.4283C31.2199 23.571 31.0201 23.6538 30.8727 23.8012C30.7254 23.9485 30.6426 24.1484 30.6426 24.3568C30.6426 24.5651 30.7254 24.765 30.8727 24.9123C31.0201 25.0597 31.2199 25.1425 31.4283 25.1425H38.4997C38.7081 25.1425 38.908 25.0597 39.0553 24.9123C39.2027 24.765 39.2854 24.5651 39.2854 24.3568C39.2854 24.1484 39.2027 23.9485 39.0553 23.8012C38.908 23.6538 38.7081 23.571 38.4997 23.571Z" fill="#22AB00"/>
<path d="M14.9287 3.92871C12.7531 3.92871 10.6264 4.57385 8.81744 5.78254C7.0085 6.99124 5.59861 8.70921 4.76604 10.7192C3.93348 12.7292 3.71564 14.9409 4.14008 17.0747C4.56452 19.2085 5.61216 21.1685 7.15054 22.7069C8.68892 24.2453 10.6489 25.2929 12.7827 25.7174C14.9165 26.1418 17.1282 25.924 19.1382 25.0914C21.1482 24.2588 22.8662 22.8489 24.0749 21.04C25.2836 19.231 25.9287 17.1043 25.9287 14.9287C25.9254 12.0123 24.7655 9.21634 22.7033 7.15415C20.6411 5.09196 17.8451 3.93198 14.9287 3.92871ZM22.3296 9.10587C19.848 9.64847 17.5839 10.9174 15.8258 12.751C15.7501 12.7231 15.6731 12.6991 15.5949 12.6791C15.6238 10.8009 15.999 7.9331 17.7679 5.93889C19.5712 6.51408 21.1604 7.61735 22.3296 9.10587ZM15.7144 14.9287C15.7144 15.0841 15.6684 15.236 15.582 15.3652C15.4957 15.4944 15.373 15.5951 15.2294 15.6546C15.0858 15.7141 14.9278 15.7296 14.7754 15.6993C14.623 15.669 14.483 15.5942 14.3731 15.4843C14.2632 15.3744 14.1884 15.2344 14.1581 15.082C14.1278 14.9296 14.1433 14.7716 14.2028 14.628C14.2623 14.4845 14.363 14.3617 14.4922 14.2754C14.6214 14.1891 14.7733 14.143 14.9287 14.143C15.137 14.1433 15.3367 14.2261 15.484 14.3734C15.6313 14.5207 15.7142 14.7204 15.7144 14.9287ZM14.9287 5.50014C15.3027 5.50218 15.6762 5.52644 16.0473 5.57279C14.6751 7.7127 13.9702 10.2123 14.0222 12.7539C13.9496 12.7878 13.8788 12.8255 13.8101 12.8668C12.5054 11.5219 10.7403 9.22984 10.5828 6.57007C11.9237 5.86731 13.4149 5.50018 14.9287 5.50014ZM9.10592 7.52778C9.64842 10.0095 10.9173 12.2736 12.751 14.0317C12.7229 14.1081 12.6987 14.1858 12.6786 14.2646C10.8196 14.2411 7.93685 13.8611 5.93899 12.0893C6.51418 10.286 7.61743 8.69695 9.10592 7.52778ZM6.57004 19.2746C5.68315 17.5988 5.33495 15.6902 5.57297 13.8092C7.71307 15.1809 10.2124 15.886 12.7539 15.8349C12.7878 15.9075 12.8254 15.9783 12.8667 16.047C11.5242 17.3492 9.23094 19.1169 6.57004 19.2746ZM7.52783 20.7516C10.0095 20.2089 12.2735 18.94 14.0317 17.1064C14.1073 17.1343 14.1843 17.1582 14.2624 17.1782C14.2332 19.0433 13.8612 21.9204 12.0893 23.9184C10.2861 23.3432 8.69701 22.24 7.52783 20.7516ZM14.9287 24.3573C14.5547 24.3552 14.1812 24.331 13.8101 24.2846C15.1815 22.1443 15.8864 19.6449 15.8354 17.1034C15.908 17.0695 15.9787 17.0318 16.0474 16.9906C17.3541 18.3381 19.1172 20.6294 19.2746 23.2874C17.9338 23.9901 16.4425 24.3573 14.9287 24.3573ZM20.7514 22.3297C20.2089 19.8481 18.94 17.5841 17.1063 15.8262C17.1342 15.7504 17.1582 15.6732 17.1782 15.5949C19.0483 15.6238 21.9222 15.9977 23.9185 17.768C23.3433 19.5713 22.24 21.1605 20.7514 22.3297ZM24.3573 14.9287C24.3552 15.3028 24.3309 15.6764 24.2846 16.0476C22.1436 14.6783 19.6449 13.974 17.1039 14.0237C17.0699 13.9506 17.0322 13.8794 16.9907 13.8104C18.3339 12.5073 20.6265 10.7405 23.2874 10.5829C23.9901 11.9237 24.3572 13.4149 24.3573 14.9287Z" fill="#22AB00"/>
</svg>
