<svg width="46" height="34" viewBox="0 0 46 34" fill="none" xmlns="http://www.w3.org/2000/svg">
<path d="M18.0127 3.14722V5.43992" stroke="#22AB00" stroke-miterlimit="10" stroke-linecap="round" stroke-linejoin="round"/>
<path d="M42.451 18.5581V14.7464H24.9625L24.123 14.042V33.1075H29.5699" stroke="#22AB00" stroke-miterlimit="10" stroke-linecap="round" stroke-linejoin="round"/>
<path d="M32.6895 33.1082H42.0049C42.251 33.1082 42.4506 32.9087 42.4506 32.6625V26.4517" stroke="#22AB00" stroke-miterlimit="10" stroke-linecap="round" stroke-linejoin="round"/>
<path d="M1.71777 25.7164V32.6624C1.71777 32.9085 1.91736 33.1081 2.16348 33.1081H24.2119V14.2338L12.9648 4.79663L1.71777 14.2338V22.5965" stroke="#22AB00" stroke-miterlimit="10" stroke-linecap="round" stroke-linejoin="round"/>
<path d="M8.65918 33.1081H17.2709V19.5357C17.2709 19.388 17.1512 19.2683 17.0035 19.2683H8.9266C8.7789 19.2683 8.65918 19.388 8.65918 19.5357V33.1081Z" stroke="#22AB00" stroke-miterlimit="10" stroke-linecap="round" stroke-linejoin="round"/>
<path d="M20.0361 4.79663H12.9648L24.9298 14.8361H44.3326L39.207 10.5353" stroke="#22AB00" stroke-miterlimit="10" stroke-linecap="round" stroke-linejoin="round"/>
<path d="M29.0498 10.5342V12.2322" stroke="#22AB00" stroke-miterlimit="10" stroke-linecap="round" stroke-linejoin="round"/>
<path d="M39.6016 10.5342V12.2322" stroke="#22AB00" stroke-miterlimit="10" stroke-linecap="round" stroke-linejoin="round"/>
<path d="M20.2987 1H15.5117L26.8752 10.5348H45.3026L33.9392 1H23.4186" stroke="#22AB00" stroke-miterlimit="10" stroke-linecap="round" stroke-linejoin="round"/>
<path d="M12.9649 4.79663L1 14.8361" stroke="#22AB00" stroke-miterlimit="10" stroke-linecap="round" stroke-linejoin="round"/>
<path d="M11.0986 25.0898V26.5453" stroke="#22AB00" stroke-miterlimit="10" stroke-linecap="round" stroke-linejoin="round"/>
<path d="M28.148 19.0396C27.2175 21.2029 27.6339 23.8069 29.4006 25.5735C31.1673 27.3402 33.7712 27.7566 35.9345 26.8261C36.865 24.6629 36.4486 22.0589 34.6819 20.2922C32.9153 18.5255 30.3112 18.1091 28.148 19.0396Z" stroke="#22AB00" stroke-miterlimit="10" stroke-linecap="round" stroke-linejoin="round"/>
<path d="M30.6514 21.5435L36.4843 27.3764" stroke="#22AB00" stroke-miterlimit="10" stroke-linecap="round" stroke-linejoin="round"/>
<path d="M44.8202 19.0396C45.7508 21.2029 45.3343 23.8069 43.5676 25.5735C41.801 27.3402 39.197 27.7566 37.0337 26.8261C36.1033 24.6629 36.5196 22.0589 38.2863 20.2922C40.053 18.5255 42.657 18.1091 44.8202 19.0396Z" stroke="#22AB00" stroke-miterlimit="10" stroke-linecap="round" stroke-linejoin="round"/>
<path d="M42.3172 21.5435L36.4844 27.3764" stroke="#22AB00" stroke-miterlimit="10" stroke-linecap="round" stroke-linejoin="round"/>
<path d="M36.4844 27.3755V33.1071" stroke="#22AB00" stroke-miterlimit="10" stroke-linecap="round" stroke-linejoin="round"/>
<path d="M36.9641 10.5348L25.6006 1" stroke="#22AB00" stroke-miterlimit="10" stroke-linecap="round" stroke-linejoin="round"/>
<path d="M39.7928 5.91089H21.3652" stroke="#22AB00" stroke-miterlimit="10" stroke-linecap="round" stroke-linejoin="round"/>
</svg>
